<?xml version="1.0" encoding="utf-8"?>
<!-- Generator: Adobe Illustrator 28.2.0, SVG Export Plug-In . SVG Version: 6.00 Build 0)  -->
<svg version="1.1" id="Capa_1" xmlns="http://www.w3.org/2000/svg" xmlns:xlink="http://www.w3.org/1999/xlink" x="0px" y="0px"
	 viewBox="0 0 800 800" style="enable-background:new 0 0 800 800;" xml:space="preserve">
<style type="text/css">
	.st0{fill:#FFFFFF;}
</style>
<g>
	<path class="st0" d="M240.3,621.7c28.5-16.3,47.7-41.6,55-68.4c5.8-21.1,4-43-6.7-62l98.6-56.4c69.6,34.9,225.6,113.2,250.2,127.3
		c31.8,18.2,69.7-14.4,69.7-14.4L448.4,400L707,252.1c0,0-37.9-32.6-69.7-14.4c-24.6,14.1-180.6,92.4-250.2,127.3l-98.6-56.4
		c10.7-19,12.5-40.9,6.7-62c-7.3-26.8-26.5-52.1-55-68.4C189,148.9,127.6,160.1,103,203.1c-11,19.1-12.7,41.2-6.9,62.4
		c7.3,26.7,26.6,52.1,55,68.4c12.5,7.1,25.7,11.9,38.7,14.3l0,0c0.1,0,0.2,0,0.3,0.1c1.1,0.1,2.2,0.3,3.4,0.4
		c81.2,12.1,122.6,35,142.8,51.1c-20.1,16.2-61.6,39.1-142.8,51.2c-1.2,0.1-2.3,0.3-3.4,0.4c-0.1,0.1-0.2,0.1-0.3,0.1l0,0
		c-13,2.4-26.2,7.1-38.7,14.2c-28.4,16.3-47.7,41.7-55,68.4c-5.8,21.3-4,43.4,6.9,62.5C127.7,639.9,189.1,651,240.3,621.7z
		 M175.1,292.1c-16.1-9.2-28.3-23.9-32.5-39.1c-1.8-6.8-3-16.8,2.3-25.9c11.2-19.5,43.9-22.7,71.5-7c16.3,9.4,28.2,23.7,32.4,39.2
		c1.8,6.7,2.9,16.7-2.3,25.9C235.4,304.7,202.7,307.9,175.1,292.1z M144.9,572.9c-5.3-9.1-4.1-19.1-2.3-25.9
		c4.2-15.3,16.3-29.9,32.5-39.2c27.6-15.7,60.3-12.6,71.4,7c5.2,9.2,4.1,19.2,2.3,25.9c-4.2,15.5-16.1,29.8-32.4,39.1
		C188.9,595.6,156.1,592.4,144.9,572.9z"/>
</g>
</svg>
