
<svg xmlns="http://www.w3.org/2000/svg" version="1.1" xmlns:xlink="http://www.w3.org/1999/xlink" preserveAspectRatio="none" x="0px" y="0px" width="1920px" height="1080px" viewBox="0 0 1920 1080">
<defs/>

<g id="Layer_1">
<g>
<g>
<g>
<path fill="#56A2E5" stroke="none" d="
M 1921.2 213.1
Q 1884.7 182.1 1848.45 172.1 1812.85 162.3 1651.65 148.1 1478.35 134.05 1438.35 130.05 1388.35 125.05 1218.3 50.05 1165.15 26.6 1106.4 -1
L 1058.25 -23.95
Q 1059.45 -25.2 494.85 -61.7 212.55 -80 -70 -98
L -40 1174.3 2002.5 1146.3 1950.45 242.1
Q 1939.45 228.6 1921.2 213.1 Z"/>
</g>
</g>

<g>
<path stroke="#000000" stroke-opacity="0" stroke-width="1" stroke-linejoin="round" stroke-linecap="round" fill="none" d="
M 1058.25 -23.95
L 1106.4 -1
Q 1165.15 26.6 1218.3 50.05 1388.35 125.05 1438.35 130.05 1478.35 134.05 1651.65 148.1 1812.85 162.3 1848.45 172.1 1884.7 182.1 1921.2 213.1 1939.45 228.6 1950.45 242.1
L 2002.5 1146.3 -40 1174.3 -70 -98
Q 212.55 -80 494.85 -61.7 1059.45 -25.2 1058.25 -23.95 Z"/>
</g>
</g>
</g>
</svg>
