
<svg xmlns="http://www.w3.org/2000/svg" version="1.1" xmlns:xlink="http://www.w3.org/1999/xlink" preserveAspectRatio="none" x="0px" y="0px" width="1920px" height="1080px" viewBox="0 0 1920 1080">
<defs/>

<g id="Layer_1">
<g>
<g>
<g>
<path fill="#56A2E5" stroke="none" d="
M 1935.95 930.6
Q 1916.9 919.85 1894.4 914.2 1881.5 911 1820.35 908.5 1764.25 906.2 1688.25 905.35 1612.15 904.45 1552.2 905.35 1486.75 906.35 1466.35 909.2 1421.05 915.55 1269.2 931.6 1113 948.05 1074.25 950.2 1035.95 952.35 997.85 949.2 964.95 946.5 925.2 939.2 911.7 936.75 805.6 914.2 715.55 895.1 691.2 892.2 651.4 887.45 627.3 887.35 590.55 887.1 552.15 895.2 517.3 902.55 448.9 903.95 378.6 904.2 359.1 905.2 283.1 908.7 227.95 911.45 122.5 916.7 105.05 919.2 87.55 921.7 37.55 935.2 12.517578125 941.9453125 -9 948.2 -8.5876953125 949.09765625 -16.6 1021.5 -20.75 1058.75 -25 1096.25
L 1942.4 1099.25 1950.45 940.2
Q 1945.45 935.95 1935.95 930.6 Z"/>
</g>
</g>

<g>
<path stroke="#000000" stroke-opacity="0" stroke-width="1" stroke-linejoin="round" stroke-linecap="round" fill="none" d="
M 37.55 935.2
Q 87.55 921.7 105.05 919.2 122.5 916.7 227.95 911.45 283.1 908.7 359.1 905.2 378.6 904.2 448.9 903.95 517.3 902.55 552.15 895.2 590.55 887.1 627.3 887.35 651.4 887.45 691.2 892.2 715.55 895.1 805.6 914.2 911.7 936.75 925.2 939.2 964.95 946.5 997.85 949.2 1035.95 952.35 1074.25 950.2 1113 948.05 1269.2 931.6 1421.05 915.55 1466.35 909.2 1486.75 906.35 1552.2 905.35 1612.15 904.45 1688.25 905.35 1764.25 906.2 1820.35 908.5 1881.5 911 1894.4 914.2 1916.9 919.85 1935.95 930.6 1945.45 935.95 1950.45 940.2
L 1942.4 1099.25 -25 1096.25
Q -20.75 1058.75 -16.6 1021.5 -8.5876953125 949.09765625 -8.975 948.2 12.517578125 941.9453125 37.55 935.2 Z"/>
</g>
</g>
</g>
</svg>
