
<svg xmlns="http://www.w3.org/2000/svg" version="1.1" xmlns:xlink="http://www.w3.org/1999/xlink" preserveAspectRatio="none" x="0px" y="0px" width="1920px" height="1080px" viewBox="0 0 1920 1080">
<defs/>

<g id="Layer_1">
<g>
<g>
<g>
<path fill="#56A2E5" stroke="none" d="
M 1207.9 1058.95
Q 860.1 1064.8 830.2 1066.2 768.35 1069.15 598.3 1064.35 430.15 1059.55 394.15 1054.2 364.75 1049.85 172 1012.6 75.6 993.95 -14.95 976.2 -14.35 976.2 -27.6 1033.75 -34.25 1062.5 -41 1091.25
L 1936.45 1116.25
Q 1940.45 1095 1942.2 1073.5 1945.7 1030.45 1934.45 1029.2 1919.55 1027.55 1740.55 1036.7 1558.9 1046 1541.35 1050.2 1527.15 1053.6 1207.9 1058.95 Z"/>
</g>
</g>

<g>
<path stroke="#000000" stroke-opacity="0" stroke-width="1" stroke-linejoin="round" stroke-linecap="round" fill="none" d="
M -14.95 976.2
Q 75.6 993.95 172 1012.6 364.75 1049.85 394.15 1054.2 430.15 1059.55 598.3 1064.35 768.35 1069.15 830.2 1066.2 860.1 1064.8 1207.9 1058.95 1527.15 1053.6 1541.35 1050.2 1558.9 1046 1740.55 1036.7 1919.55 1027.55 1934.45 1029.2 1945.7 1030.45 1942.2 1073.5 1940.45 1095 1936.45 1116.25
L -41 1091.25
Q -34.25 1062.5 -27.6 1033.75 -14.35 976.2 -14.95 976.2 Z"/>
</g>
</g>
</g>
</svg>
