
<svg xmlns="http://www.w3.org/2000/svg" version="1.1" xmlns:xlink="http://www.w3.org/1999/xlink" preserveAspectRatio="none" x="0px" y="0px" width="1920px" height="1080px" viewBox="0 0 1920 1080">
<defs/>

<g id="Layer_1">
<g>
<g>
<g>
<path fill="#56A2E5" stroke="none" d="
M 1193.4 -3.45
Q 1199.05 -4.2 917.75 -3.2 636.45 -2.2 636.45 -1.45
L 646.95 4
Q 659.45 9.6 669.45 10.55 680.3 11.55 689.2 10.85 695.3 10.4 704.45 8.55 716.3 6.2 731.65 5.2 752.85 3.8 762.95 7.05 792.6 16.6 805.15 19.75 842.15 28.95 878.45 30.55 926.3 32.65 988.75 32.05 1057.75 31.4 1076.95 27.55 1094.95 23.95 1107.9 20.35 1114.6 18.5 1124.95 15.05 1127.8 14.1 1127.15 14 1125.75 14.05 1125.35 14.05 1123.95 14.05 1139.95 10.05 1149.7 7.6 1174.35 1.05 1189.15 -2.9 1193.4 -3.45 Z"/>
</g>
</g>

<g>
<path stroke="#000000" stroke-opacity="0" stroke-width="1" stroke-linejoin="round" stroke-linecap="round" fill="none" d="
M 636.45 -1.45
L 646.95 4
Q 659.45 9.6 669.45 10.55 680.3 11.55 689.2 10.85 695.3 10.4 704.45 8.55 716.3 6.2 731.65 5.2 752.85 3.8 762.95 7.05 792.6 16.6 805.15 19.75 842.15 28.95 878.45 30.55 926.3 32.65 988.75 32.05 1057.75 31.4 1076.95 27.55 1094.95 23.95 1107.9 20.35 1114.6 18.5 1124.95 15.05 1127.8 14.1 1127.15 14 1125.75 14.05 1125.35 14.05 1123.95 14.05 1139.95 10.05 1149.7 7.6 1174.35 1.05 1189.15 -2.9 1193.4 -3.45 1199.05 -4.2 917.75 -3.2 636.45 -2.2 636.45 -1.45 Z"/>
</g>
</g>
</g>
</svg>
