
<svg xmlns="http://www.w3.org/2000/svg" version="1.1" xmlns:xlink="http://www.w3.org/1999/xlink" preserveAspectRatio="none" x="0px" y="0px" width="1920px" height="1080px" viewBox="0 0 1920 1080">
<defs/>

<g id="Layer_1">
<g>
<g>
<g>
<path fill="#56A2E5" stroke="none" d="
M 618.45 -4.45
L 621.55 -1.55
Q 625.5 2 629.7 5.05 643.2 14.8 654.45 16.05 665.15 17.25 695.1 16.05 732.9 14.55 734.95 14.55 746.85 14.55 786.9 20.7 824.2 26.4 842.95 30.55 862.8 34.95 907.1 41.7 955.7 49.05 970.45 49.05 994.15 49.05 1044.1 44.6 1103.95 39.3 1120.4 33.05 1132.9 28.3 1154.15 19.6 1172.75 12.35 1189.4 8.05 1205.85 3.8 1249.65 1.55 1271.7 0.45 1293.4 -0.45 1298.35 -1.45 1318.35 -11.45
L 618.45 -4.45 Z"/>
</g>
</g>

<g>
<path stroke="#000000" stroke-opacity="0" stroke-width="1" stroke-linejoin="round" stroke-linecap="round" fill="none" d="
M 618.45 -4.45
L 621.55 -1.55
Q 625.5 2 629.7 5.05 643.2 14.8 654.45 16.05 665.15 17.25 695.1 16.05 732.9 14.55 734.95 14.55 746.85 14.55 786.9 20.7 824.2 26.4 842.95 30.55 862.8 34.95 907.1 41.7 955.7 49.05 970.45 49.05 994.15 49.05 1044.1 44.6 1103.95 39.3 1120.4 33.05 1132.9 28.3 1154.15 19.6 1172.75 12.35 1189.4 8.05 1205.85 3.8 1249.65 1.55 1271.7 0.45 1293.4 -0.45 1298.35 -1.45 1318.35 -11.45
L 618.45 -4.45 Z"/>
</g>
</g>
</g>
</svg>
