
<svg xmlns="http://www.w3.org/2000/svg" version="1.1" xmlns:xlink="http://www.w3.org/1999/xlink" preserveAspectRatio="none" x="0px" y="0px" width="1920px" height="1080px" viewBox="0 0 1920 1080">
<defs/>

<g id="Layer_1">
<g>
<g>
<g>
<path fill="#56A2E5" stroke="none" d="
M 2020.45 422.15
Q 2004.45 361.65 1981.95 295.15 1936.95 162.1 1904.4 132.1 1886.55 115.6 1819.65 103.55 1767.2 94.05 1679.6 86.6 1646.95 83.8 1538.4 76.35 1466.9 71.5 1450.3 68.05 1414 60.55 1294.55 -7.45 1257.2 -28.7 1216 -53.45
L 1182.3 -73.95 -4 -51.95 -58 -14 -178 1292.25 2040.45 1296.25 2020.45 422.15 Z"/>
</g>
</g>

<g>
<path stroke="#000000" stroke-opacity="0" stroke-width="1" stroke-linejoin="round" stroke-linecap="round" fill="none" d="
M -4 -51.95
L 1182.3 -73.95 1216 -53.45
Q 1257.2 -28.7 1294.55 -7.45 1414 60.55 1450.3 68.05 1466.9 71.5 1538.4 76.35 1646.95 83.8 1679.6 86.6 1767.2 94.05 1819.65 103.55 1886.55 115.6 1904.4 132.1 1936.95 162.1 1981.95 295.15 2004.45 361.65 2020.45 422.15
L 2040.45 1296.25 -178 1292.25 -58 -14 -4 -51.95 Z"/>
</g>
</g>
</g>
</svg>
