
<svg xmlns="http://www.w3.org/2000/svg" version="1.1" xmlns:xlink="http://www.w3.org/1999/xlink" preserveAspectRatio="none" x="0px" y="0px" width="1920px" height="1080px" viewBox="0 0 1920 1080">
<defs/>

<g id="Layer_1">
<g>
<g>
<g>
<path fill="#56A2E5" stroke="none" d="
M 880.2 921.2
Q 869.85 922.55 869.2 929.2 868.2 939.2 893.2 944.2 897.35 945.05 904.45 946.7 912.1 948.5 914.2 949.2 912.2 942.95 909.1 936.45 902.85 923.45 897.2 922.2 888.1 920.15 880.2 921.2
M 1143 932.2
Q 1146.1 926.45 1145.25 918.2 1144.6 911.55 1134.5 909.45 1128.5 908.2 1113.25 908.2 1103.9 908.2 1087.15 928.7 1081.9 935.1 1076.55 942.8
L 1072.3 949.1
Q 1073.1375 948.2994140625 1085.15 942.2 1099.5 934.9 1103.25 932.2 1107.55 929.15 1117.5 932.1 1123 933.7 1133.25 937.2 1139.6 938.6 1143 932.2
M 1114.25 1038.25
Q 1114.9 1037.65 1127.65 1035.9 1134.05 1035 1140.3 1034.25
L 1148.7 1036.65
Q 1157.45 1038.4 1159.3 1035.25 1161.2 1032.15 1166.95 1027.9 1169.8 1025.75 1172.3 1024.25 1171.8 1020.5 1170.3 1016.9 1167.3 1009.65 1162.3 1010.25 1151.1 1011.65 1145.4 1012.9 1133.8 1015.4 1129.25 1019.25 1124.85 1023 1119.1 1031
L 1114.25 1038.25
M 831.2 1030.25
Q 827.2 1030 823.7 1030.75 816.85 1032.2 816.2 1037.25 815.4 1043.75 816.1 1046.4 816.95 1049.7 821.2 1053.25 825.1 1056.5 832.85 1053.65 836.3 1052.35 845.2 1047.25 849.6 1044.75 859.35 1046.75 864.2 1047.75 868.2 1049.25 867.2 1046.25 865.2 1042.5 861.2 1035 856.2 1031.25 851.2 1027.5 840.7 1028.5
L 831.2 1030.25
M 990.4 869.35
Q 989.45 873.65 989.2 873.15
L 984.7 889
Q 978.9 908.6 972.1 927.3 950.35 987.1 927.2 1015.2 889.15 1061.45 886.1 1065.1 871.5 1082.3 862.2 1090.25 853.45 1097.75 949.5 1106.25 997.5 1110.5 1047.25 1113.25
L 1178.25 1098.25
Q 1171.4 1098.25 1160.45 1096.15 1138.6 1091.95 1118.4 1081.5 1053.65 1048 1029.25 964.2 1004.9 880.6 994.95 869.15 991.9 865.65 990.4 869.35 Z"/>
</g>
</g>

<g>
<path stroke="#000000" stroke-opacity="0" stroke-width="1" stroke-linejoin="round" stroke-linecap="round" fill="none" d="
M 1076.55 942.8
Q 1081.9 935.1 1087.15 928.7 1103.9 908.2 1113.25 908.2 1128.5 908.2 1134.5 909.45 1144.6 911.55 1145.25 918.2 1146.1 926.45 1143 932.2 1139.6 938.6 1133.25 937.2 1123 933.7 1117.5 932.1 1107.55 929.15 1103.25 932.2 1099.5 934.9 1085.15 942.2 1073.1375 948.2994140625 1072.3 949.1
L 1076.55 942.8 Z
M 989.2 873.15
L 984.7 889
Q 978.9 908.6 972.1 927.3 950.35 987.1 927.2 1015.2 889.15 1061.45 886.1 1065.1 871.5 1082.3 862.2 1090.25 853.45 1097.75 949.5 1106.25 997.5 1110.5 1047.25 1113.25
L 1178.25 1098.25
Q 1171.4 1098.25 1160.45 1096.15 1138.6 1091.95 1118.4 1081.5 1053.65 1048 1029.25 964.2 1004.9 880.6 994.95 869.15 991.9 865.65 990.4 869.35 989.45 873.65 989.2 873.15 Z
M 1114.25 1038.25
L 1119.1 1031
Q 1124.85 1023 1129.25 1019.25 1133.8 1015.4 1145.4 1012.9 1151.1 1011.65 1162.3 1010.25 1167.3 1009.65 1170.3 1016.9 1171.8 1020.5 1172.3 1024.25 1169.8 1025.75 1166.95 1027.9 1161.2 1032.15 1159.3 1035.25 1157.45 1038.4 1148.7 1036.65
L 1140.3 1034.25
Q 1134.05 1035 1127.65 1035.9 1114.9 1037.65 1114.25 1038.25 Z
M 914.2 949.2
Q 912.2 942.95 909.1 936.45 902.85 923.45 897.2 922.2 888.1 920.15 880.2 921.2 869.85 922.55 869.2 929.2 868.2 939.2 893.2 944.2 897.35 945.05 904.45 946.7 912.1 948.5 914.2 949.2 Z
M 831.2 1030.25
L 840.7 1028.5
Q 851.2 1027.5 856.2 1031.25 861.2 1035 865.2 1042.5 867.2 1046.25 868.2 1049.25 864.2 1047.75 859.35 1046.75 849.6 1044.75 845.2 1047.25 836.3 1052.35 832.85 1053.65 825.1 1056.5 821.2 1053.25 816.95 1049.7 816.1 1046.4 815.4 1043.75 816.2 1037.25 816.85 1032.2 823.7 1030.75 827.2 1030 831.2 1030.25 Z"/>
</g>
</g>
</g>
</svg>
