
<svg xmlns="http://www.w3.org/2000/svg" version="1.1" xmlns:xlink="http://www.w3.org/1999/xlink" preserveAspectRatio="none" x="0px" y="0px" width="1920px" height="1080px" viewBox="0 0 1920 1080">
<defs/>

<g id="Layer_1">
<g>
<g>
<g>
<path fill="#56A2E5" stroke="none" d="
M 1009.55 553.95
Q 1008.15 544.356640625 1008.15 546.1
L 995.4 625.05
Q 981.9 710.05 978.15 740.2 973.4 778.1 971.7 840.7 969.85 906.4 973.35 939.35 974.55 950.75 976.4 972 978.25 989.55 981.45 1000.05 989.85 1027.3 1016.55 1033.15
L 1023 1034.8
Q 1031.05 1036.55 1038.75 1036.95 1063.35 1038.2 1075.35 1025.55 1089.55 1010.5 1090.95 988.5 1092.25 966.95 1081.35 938.05 1077.741015625 928.5498046875 1074.2 918.5 1063.488671875 888.0669921875 1053.45 852.65 1036.15 791.75 1034.55 760.5 1033.05 730.6 1020.45 634.75 1012.3134765625 572.7013671875 1009.55 553.95
M 702.1 -12.8
Q 689.35 -1.55 689.95 -0.95
L 715.45 5.05
Q 746.95 11.55 776.95 14.05 792.05 15.3 807.4 15.7 816.05 15.95 831.35 16.2 858.45 16.85 887.95 22.05 915 26.85 950.9 35.55 984.7 43.75 998.9 46.05 1021.8 49.75 1057.15 47.45 1091.8 45.15 1110.9 39.05 1122.25 35.4 1169.3 28.95 1213.2 22.85 1223.9 18.05 1239.9 10.85 1261.9 1.95 1285.2 -7.5 1290.9 -8.95 1295.9 -10.2 1005.95 -17.2
L 714.95 -23.95
Q 708.45 -18.45 702.1 -12.8 Z"/>
</g>
</g>

<g>
<path stroke="#000000" stroke-opacity="0" stroke-width="1" stroke-linejoin="round" stroke-linecap="round" fill="none" d="
M 689.95 -0.95
L 715.45 5.05
Q 746.95 11.55 776.95 14.05 792.05 15.3 807.4 15.7 816.05 15.95 831.35 16.2 858.45 16.85 887.95 22.05 915 26.85 950.9 35.55 984.7 43.75 998.9 46.05 1021.8 49.75 1057.15 47.45 1091.8 45.15 1110.9 39.05 1122.25 35.4 1169.3 28.95 1213.2 22.85 1223.9 18.05 1239.9 10.85 1261.9 1.95 1285.2 -7.5 1290.9 -8.95 1295.9 -10.2 1005.95 -17.2
L 714.95 -23.95
Q 708.45 -18.45 702.1 -12.8 689.35 -1.55 689.95 -0.95 Z
M 1074.2 918.5
Q 1078.251953125 910.47734375 1078.9 900.7 1080 883.7 1070.9 860.95 1058.8 830.75 1047.65 793.6 1033.25 745.6 1031.9 720.95 1030.65 697.4 1020.15 621.85 1009.9 547.9 1009.9 551.95
L 1009.55 553.95"/>
</g>
</g>
</g>
</svg>
