
<svg xmlns="http://www.w3.org/2000/svg" version="1.1" xmlns:xlink="http://www.w3.org/1999/xlink" preserveAspectRatio="none" x="0px" y="0px" width="1920px" height="1080px" viewBox="0 0 1920 1080">
<defs/>

<g id="Layer_1">
<g>
<g>
<g>
<path fill="#56A2E5" stroke="none" d="
M 932.2 1064.2
Q 897.9 1065.45 848.8 1064.35 792.7 1062.7 763.15 1062.2 639.85 1059.7 546.85 1057.85 367.05 1054.2 335.1 1054.2 301.95 1054.2 139.7 1038.2 58.675 1030.2123046875 -15.8 1022.2 -15.6619140625 1022.6408203125 -15.5 1023.45 -15.25 1024.7 -15 1026.2
L -9 1101.25 1933.45 1093.25 1935.45 1052.2
Q 1916.95 1052.95 1892.7 1053.45 1844.2 1054.45 1815.45 1053.2 1782.75 1051.8 1649.4 1054.35 1520.95 1056.8 1477.35 1059.2 1447.85 1060.85 1205.55 1062.1 956.1 1063.35 932.2 1064.2 Z"/>
</g>
</g>

<g>
<path stroke="#000000" stroke-opacity="0" stroke-width="1" stroke-linejoin="round" stroke-linecap="round" fill="none" d="
M -15.775 1022.225
Q 58.675 1030.2123046875 139.7 1038.2 301.95 1054.2 335.1 1054.2 367.05 1054.2 546.85 1057.85 639.85 1059.7 763.15 1062.2 792.7 1062.7 848.8 1064.35 897.9 1065.45 932.2 1064.2 956.1 1063.35 1205.55 1062.1 1447.85 1060.85 1477.35 1059.2 1520.95 1056.8 1649.4 1054.35 1782.75 1051.8 1815.45 1053.2 1844.2 1054.45 1892.7 1053.45 1916.95 1052.95 1935.45 1052.2
L 1933.45 1093.25 -9 1101.25 -15 1026.2
Q -15.25 1024.7 -15.5 1023.45 -15.6619140625 1022.6408203125 -15.775 1022.225 -15.88515625 1022.2123046875 -16 1022.2 -16 1021.3544921875 -15.775 1022.225 Z"/>
</g>
</g>
</g>
</svg>
