
<svg xmlns="http://www.w3.org/2000/svg" version="1.1" xmlns:xlink="http://www.w3.org/1999/xlink" preserveAspectRatio="none" x="0px" y="0px" width="1920px" height="1080px" viewBox="0 0 1920 1080">
<defs/>

<g id="Layer_1">
<g>
<g>
<g>
<path fill="#56A2E5" stroke="none" d="
M 1343.8 971.9
Q 1344.35 975.35 1344.45 978.95 1344.7 990.45 1340.3 999.2 1338.55 1002.7 1334.9 1008.6 1331.6 1013.9 1330.7 1016.1 1327.7 1023.05 1335.3 1026.2 1338.25 1027.4 1343.75 1030.7 1348.75 1033.7 1351.05 1034.45 1358.5 1036.95 1362.3 1026.2 1362.3 1023.2 1343.3 969.2
L 1343.8 971.9
M 638.15 1025.2
Q 634.8 1037 635.3 1039.1 636.1 1042.5 645.15 1043.2 657.65 1044.15 663.05 1042.7 670.85 1040.6 668.15 1033.2 664.75 1023.8 664.15 1021.6 663.15 1017.75 663.15 1012.2 663.15 1006.45 662.55 1001.45 661.95 996.8 661.15 995.2
L 651.15 1004.95
Q 640.65 1016.45 638.15 1025.2
M 1690.4 1073.2
Q 1673.65 1070 1633.95 1065.55 1591 1060.75 1544 1057.2 1421.6 1047.85 1362.3 1053.2 1306.8 1058.2 1100.25 1048.95 1038.25 1046.2 953.55 1041.65 874.4 1037.45 868.2 1037.2 835.55 1035.85 734.15 1042.2 654.15 1047.2 585.1 1053.2 531.55 1057.85 515.95 1059.95 497.95 1062.35 476.1 1068.2 457.35 1073.2 444.35 1080.25 437.8 1083.75 435.05 1086.25
L 1727.4 1095.25
Q 1728.65 1091.75 1724.65 1087.25 1716.65 1078.25 1690.4 1073.2 Z"/>
</g>
</g>

<g>
<path stroke="#000000" stroke-opacity="0" stroke-width="1" stroke-linejoin="round" stroke-linecap="round" fill="none" d="
M 435.05 1086.25
Q 437.8 1083.75 444.35 1080.25 457.35 1073.2 476.1 1068.2 497.95 1062.35 515.95 1059.95 531.55 1057.85 585.1 1053.2 654.15 1047.2 734.15 1042.2 835.55 1035.85 868.2 1037.2 874.4 1037.45 953.55 1041.65 1038.25 1046.2 1100.25 1048.95 1306.8 1058.2 1362.3 1053.2 1421.6 1047.85 1544 1057.2 1591 1060.75 1633.95 1065.55 1673.65 1070 1690.4 1073.2 1716.65 1078.25 1724.65 1087.25 1728.65 1091.75 1727.4 1095.25
L 435.05 1086.25 Z
M 1327.3 964.2
L 1327.8 966.9
M 1343.8 971.9
Q 1344.35 975.35 1344.45 978.95 1344.7 990.45 1340.3 999.2 1338.55 1002.7 1334.9 1008.6 1331.6 1013.9 1330.7 1016.1 1327.7 1023.05 1335.3 1026.2 1338.25 1027.4 1343.75 1030.7 1348.75 1033.7 1351.05 1034.45 1358.5 1036.95 1362.3 1026.2 1362.3 1023.2 1343.3 969.2
M 661.15 995.2
L 651.15 1004.95
Q 640.65 1016.45 638.15 1025.2 634.8 1037 635.3 1039.1 636.1 1042.5 645.15 1043.2 657.65 1044.15 663.05 1042.7 670.85 1040.6 668.15 1033.2 664.75 1023.8 664.15 1021.6 663.15 1017.75 663.15 1012.2 663.15 1006.45 662.55 1001.45 661.95 996.8 661.15 995.2 Z"/>
</g>
</g>
</g>
</svg>
