
<svg xmlns="http://www.w3.org/2000/svg" version="1.1" xmlns:xlink="http://www.w3.org/1999/xlink" preserveAspectRatio="none" x="0px" y="0px" width="1920px" height="1080px" viewBox="0 0 1920 1080">
<defs/>

<g id="Layer_1">
<g>
<g>
<g>
<path fill="#56A2E5" stroke="none" d="
M 865 -5.95
L 872.7 -2.35
Q 882.3 2.25 891.1 7.2 919.35 22.95 929.95 36.05 943.35 52.7 963.05 88.45 983.6 125.8 987.9 143.05 990.85 154.8 1006.05 193.7 1020.35 230.4 1021.9 239.05 1023.8 249.7 1026.05 257.95 1027.15 262.05 1027.9 264.05 1027.9 256.8 1029.9 243.8 1033.9 217.8 1043.9 189.05 1048.4 176.15 1051.35 159.75 1054.6 142.15 1056.4 136.3 1060.3 123.85 1068.95 111.7 1079.15 97.4 1098.9 79.05 1126.9 53.05 1145.9 35.05 1152.9 28.55 1162.9 21.05 1173 13.45 1183.55 7.45 1189.4 4.05 1198.9 -0.95 1207.9 -5.95 1222.9 -13.95 1133.4 -11.7 1043.95 -9.55 867.5419921875 -5.3615234375 865 -5.95 Z"/>
</g>
</g>

<g>
<path stroke="#000000" stroke-opacity="0" stroke-width="1" stroke-linejoin="round" stroke-linecap="round" fill="none" d="
M 872.7 -2.35
Q 882.3 2.25 891.1 7.2 919.35 22.95 929.95 36.05 943.35 52.7 963.05 88.45 983.6 125.8 987.9 143.05 990.85 154.8 1006.05 193.7 1020.35 230.4 1021.9 239.05 1023.8 249.7 1026.05 257.95 1027.15 262.05 1027.9 264.05 1027.9 256.8 1029.9 243.8 1033.9 217.8 1043.9 189.05 1048.4 176.15 1051.35 159.75 1054.6 142.15 1056.4 136.3 1060.3 123.85 1068.95 111.7 1079.15 97.4 1098.9 79.05 1126.9 53.05 1145.9 35.05 1152.9 28.55 1162.9 21.05 1173 13.45 1183.55 7.45 1189.4 4.05 1198.9 -0.95 1207.9 -5.95 1222.9 -13.95 1133.4 -11.7 1043.95 -9.55 867.5419921875 -5.3615234375 865 -5.925
L 872.7 -2.35 Z"/>
</g>
</g>

<g>
<g>
<g>
<path fill="#56A2E5" stroke="none" d="
M 1029.05 284.95
Q 1026.933984375 277.364453125 1026.8 276.15
L 1015.4 308.1
Q 1001.9 344.35 991.9 364.95 981.1 387.25 972.3 420.6 965.6 445.9 960.9 473.95 954.3 513.6 960.3 543.3 969.75 590.25 1009.9 590.9 1053.55 591.6 1075.9 579.05 1094.95 568.3 1099.9 546.9 1104.2 528.15 1091.55 474.05 1079.3 421.95 1065.9 395.95 1057.4 379.75 1053.4 372.15 1046.4 358.7 1042.55 350.2 1031.9 326.85 1031.9 311.95 1031.9 298 1029.05 284.95 Z"/>
</g>
</g>

<g>
<path stroke="#000000" stroke-opacity="0" stroke-width="1" stroke-linejoin="round" stroke-linecap="round" fill="none" d="
M 1015.4 308.1
Q 1001.9 344.35 991.9 364.95 981.1 387.25 972.3 420.6 965.6 445.9 960.9 473.95 954.3 513.6 960.3 543.3 969.75 590.25 1009.9 590.9 1053.55 591.6 1075.9 579.05 1094.95 568.3 1099.9 546.9 1104.2 528.15 1091.55 474.05 1079.3 421.95 1065.9 395.95 1057.4 379.75 1053.4 372.15 1046.4 358.7 1042.55 350.2 1031.9 326.85 1031.9 311.95 1031.9 298 1029.05 284.95 1026.933984375 277.364453125 1026.825 276.15
L 1015.4 308.1 Z"/>
</g>
</g>
</g>
</svg>
