
<svg xmlns="http://www.w3.org/2000/svg" version="1.1" xmlns:xlink="http://www.w3.org/1999/xlink" preserveAspectRatio="none" x="0px" y="0px" width="1920px" height="1080px" viewBox="0 0 1920 1080">
<defs/>

<g id="Layer_1">
<g>
<g>
<g>
<path fill="#56A2E5" stroke="none" d="
M 1294.25 922.2
Q 1226.4 934.95 1064 912.8 1000.35 904.15 937.05 891.95 878.95 880.75 844.2 871.15 783.9 854.5 679.05 851.4 635.55 850.1 596.55 851.75 558.5 853.35 537.15 857.15 503.3 863.2 459.15 867.65 410.15 872.15 384.1 875.15 367.35 877.1 333.75 878.75 333.15 878.8 270.95 881.55 189.9 885.15 169.05 890.2 132 899.2 -8.95 929.2 -8.95 927.95 -25.95 1021 -34.45 1067.5 -42.95 1114.25
L 1929.45 1104.25 1931.45 858.15
Q 1904.2 857.65 1863.05 857.3 1780.75 856.55 1711.35 857.15 1641.1 857.8 1499.05 882.95 1453.3 891.05 1386.45 904.15 1303.8 920.4 1294.25 922.2 Z"/>
</g>
</g>

<g>
<path stroke="#000000" stroke-opacity="0" stroke-width="1" stroke-linejoin="round" stroke-linecap="round" fill="none" d="
M -8.95 929.2
Q 132 899.2 169.05 890.2 189.9 885.15 270.95 881.55 333.15 878.8 333.75 878.75 367.35 877.1 384.1 875.15 410.15 872.15 459.15 867.65 503.3 863.2 537.15 857.15 558.5 853.35 596.55 851.75 635.55 850.1 679.05 851.4 783.9 854.5 844.2 871.15 878.95 880.75 937.05 891.95 1000.35 904.15 1064 912.8 1226.4 934.95 1294.25 922.2 1303.8 920.4 1386.45 904.15 1453.3 891.05 1499.05 882.95 1641.1 857.8 1711.35 857.15 1780.75 856.55 1863.05 857.3 1904.2 857.65 1931.45 858.15
L 1929.45 1104.25 -42.95 1114.25
Q -34.45 1067.5 -25.95 1021 -8.95 927.95 -8.95 929.2 Z"/>
</g>
</g>
</g>
</svg>
