
<svg xmlns="http://www.w3.org/2000/svg" version="1.1" xmlns:xlink="http://www.w3.org/1999/xlink" preserveAspectRatio="none" x="0px" y="0px" width="1920px" height="1080px" viewBox="0 0 1920 1080">
<defs/>

<g id="Layer_1">
<g>
<g>
<g>
<path fill="#56A2E5" stroke="none" d="
M 1022.8 332.1
L 1002.9 382.85
Q 981.9 436.6 976.9 450.95 971.6 466.15 967.8 500.95 964.95 526.35 963.9 550.95 962.95 572.8 966.9 587.7 972.4 608.55 987.9 619.95 1005.15 632.65 1022.65 636.25 1040.15 639.85 1055.9 633.9 1070 628.55 1078.3 604.45 1084.9 585.1 1084.9 565.95 1084.9 552.45 1079.8 536.35 1077.15 528 1064.9 496.95 1056.45 475.45 1048.8 447.45 1045.2 434.45 1037.9 403.95 1033.15 384.15 1027.8 358.6 1022.667578125 334.1751953125 1022.8 332.1 Z"/>
</g>
</g>

<g>
<path stroke="#000000" stroke-opacity="0" stroke-width="1" stroke-linejoin="round" stroke-linecap="round" fill="none" d="
M 1002.9 382.85
Q 981.9 436.6 976.9 450.95 971.6 466.15 967.8 500.95 964.95 526.35 963.9 550.95 962.95 572.8 966.9 587.7 972.4 608.55 987.9 619.95 1005.15 632.65 1022.65 636.25 1040.15 639.85 1055.9 633.9 1070 628.55 1078.3 604.45 1084.9 585.1 1084.9 565.95 1084.9 552.45 1079.8 536.35 1077.15 528 1064.9 496.95 1056.45 475.45 1048.8 447.45 1045.2 434.45 1037.9 403.95 1033.15 384.15 1027.8 358.6 1022.667578125 334.1751953125 1022.825 332.125
L 1002.9 382.85 Z"/>
</g>
</g>

<g>
<g>
<g>
<path fill="#56A2E5" stroke="none" d="
M 1219.9 -6.95
L 829.95 -5.95 850.5 4.25
Q 875.35 16.75 896.95 28.45 965.9 65.7 975.9 80.05 984.55 92.45 998.55 119.2 1011.9 144.75 1015.9 150.05 1021.65 157.75 1025.05 155.2 1027.15 153.55 1031.9 146.05 1034.9 142.55 1049.65 117.8 1066.85 91.3 1083.9 76.05 1118.9 44.8 1173.9 22.05 1192.05 14.55 1207.8 3.05 1215.65 -2.7 1219.9 -6.95 Z"/>
</g>
</g>

<g>
<path stroke="#000000" stroke-opacity="0" stroke-width="1" stroke-linejoin="round" stroke-linecap="round" fill="none" d="
M 829.95 -5.95
L 850.5 4.25
Q 875.35 16.75 896.95 28.45 965.9 65.7 975.9 80.05 984.55 92.45 998.55 119.2 1011.9 144.75 1015.9 150.05 1021.65 157.75 1025.05 155.2 1027.15 153.55 1031.9 146.05 1034.9 142.55 1049.65 117.8 1066.85 91.3 1083.9 76.05 1118.9 44.8 1173.9 22.05 1192.05 14.55 1207.8 3.05 1215.65 -2.7 1219.9 -6.95
L 829.95 -5.95 Z"/>
</g>
</g>
</g>
</svg>
