
<svg xmlns="http://www.w3.org/2000/svg" version="1.1" xmlns:xlink="http://www.w3.org/1999/xlink" preserveAspectRatio="none" x="0px" y="0px" width="1920px" height="1080px" viewBox="0 0 1920 1080">
<defs/>

<g id="Layer_1">
<g>
<g>
<g>
<path fill="#56A2E5" stroke="none" d="
M 1929.45 1011.2
Q 1865.7 1007.45 1842.3 1005.45 1757.1 998.15 1700.35 986.2 1643.4 974.2 1523.7 989.85 1484.9 994.9 1433.3 1003.8 1383.05 1012.7 1367.3 1015.2 1332.75 1020.7 1151.6 1037.35 967.45 1054.25 947.2 1057.2 911.9 1062.35 868.8 1059.6 827.75 1056.95 767.15 1046.2 736.4 1040.75 561.85 1017.1 403.4 995.6 367.1 987.2 322.7 976.95 264.6 970.45 216.7 965.1 180.05 964.2 154.45 963.6 67.15 978.85 23.5458984375 986.4419921875 -14.95 994.15 -14.121484375 994.985546875 -23.25 1045 -28 1071 -33 1097.25
L 1922.45 1124.25 1973.5 1057.2
Q 1966.75 1045.95 1957.85 1034.6 1940.1 1011.85 1929.45 1011.2 Z"/>
</g>
</g>

<g>
<path stroke="#000000" stroke-opacity="0" stroke-width="1" stroke-linejoin="round" stroke-linecap="round" fill="none" d="
M 67.15 978.85
Q 154.45 963.6 180.05 964.2 216.7 965.1 264.6 970.45 322.7 976.95 367.1 987.2 403.4 995.6 561.85 1017.1 736.4 1040.75 767.15 1046.2 827.75 1056.95 868.8 1059.6 911.9 1062.35 947.2 1057.2 967.45 1054.25 1151.6 1037.35 1332.75 1020.7 1367.3 1015.2 1383.05 1012.7 1433.3 1003.8 1484.9 994.9 1523.7 989.85 1643.4 974.2 1700.35 986.2 1757.1 998.15 1842.3 1005.45 1865.7 1007.45 1929.45 1011.2 1940.1 1011.85 1957.85 1034.6 1966.75 1045.95 1973.5 1057.2
L 1922.45 1124.25 -33 1097.25
Q -28 1071 -23.25 1045 -14.121484375 994.985546875 -14.925 994.175 23.5458984375 986.4419921875 67.15 978.85 Z"/>
</g>
</g>
</g>
</svg>
