
<svg xmlns="http://www.w3.org/2000/svg" version="1.1" xmlns:xlink="http://www.w3.org/1999/xlink" preserveAspectRatio="none" x="0px" y="0px" width="1920px" height="1080px" viewBox="0 0 1920 1080">
<defs/>

<g id="Layer_1">
<g>
<g>
<g>
<path fill="#56A2E5" stroke="none" d="
M 942.2 989.2
Q 846.6 991.2 670.25 971.1 537.15 955.9 405.1 934.2 316.45 919.65 203.2 923.1 160.1 924.4 120.85 928.15 87 931.4 68.05 935.2 39.95 940.85 4.15 952.1 -13.75 957.7 -26 962.2
L -40 1107.25 1945.45 1112.25 1928.45 938.2
Q 1872.2 934.7 1809.95 930.7 1685.4 922.7 1655.4 920.2 1616.2 916.95 1591.75 917.2 1559.9 917.55 1491.35 923.2 1461.05 925.7 1384.75 936.45 1287.7 950.5 1234.05 958.1 1025.7 987.45 942.2 989.2 Z"/>
</g>
</g>

<g>
<path stroke="#000000" stroke-opacity="0" stroke-width="1" stroke-linejoin="round" stroke-linecap="round" fill="none" d="
M -26 962.2
Q -13.75 957.7 4.15 952.1 39.95 940.85 68.05 935.2 87 931.4 120.85 928.15 160.1 924.4 203.2 923.1 316.45 919.65 405.1 934.2 537.15 955.9 670.25 971.1 846.6 991.2 942.2 989.2 1025.7 987.45 1234.05 958.1 1287.7 950.5 1384.75 936.45 1461.05 925.7 1491.35 923.2 1559.9 917.55 1591.75 917.2 1616.2 916.95 1655.4 920.2 1685.4 922.7 1809.95 930.7 1872.2 934.7 1928.45 938.2
L 1945.45 1112.25 -40 1107.25 -26 962.2 Z"/>
</g>
</g>
</g>
</svg>
