
<svg xmlns="http://www.w3.org/2000/svg" version="1.1" xmlns:xlink="http://www.w3.org/1999/xlink" preserveAspectRatio="none" x="0px" y="0px" width="1920px" height="1080px" viewBox="0 0 1920 1080">
<defs/>

<g id="Layer_1">
<g>
<g>
<g>
<path fill="#56A2E5" stroke="none" d="
M 1280.9 -3.95
Q 1285.95 -5.05 1016.45 -3.8 748.340234375 -2.562890625 745.95 -2.95
L 791.1 14.55
Q 839.35 34.05 854.95 44.05 871.9 54.95 897.9 82.3 920.7 106.35 928.9 119.05 935.05 128.65 955.8 138.65 972.6 146.8 993.9 153 1017.55 159.9 1034.55 160.5 1059.2 161.35 1075.9 150 1098.15 134.9 1117.8 119.3 1141.95 100.05 1152.9 87.05 1173.45 62.65 1179.4 56.55 1197.15 38.4 1217.9 26.05 1239.85 13 1258.05 4.7 1273 -2.2 1280.9 -3.95 Z"/>
</g>
</g>

<g>
<path stroke="#000000" stroke-opacity="0" stroke-width="1" stroke-linejoin="round" stroke-linecap="round" fill="none" d="
M 791.1 14.55
Q 839.35 34.05 854.95 44.05 871.9 54.95 897.9 82.3 920.7 106.35 928.9 119.05 935.05 128.65 955.8 138.65 972.6 146.8 993.9 153 1017.55 159.9 1034.55 160.5 1059.2 161.35 1075.9 150 1098.15 134.9 1117.8 119.3 1141.95 100.05 1152.9 87.05 1173.45 62.65 1179.4 56.55 1197.15 38.4 1217.9 26.05 1239.85 13 1258.05 4.7 1273 -2.2 1280.9 -3.95 1285.95 -5.05 1016.45 -3.8 748.340234375 -2.562890625 745.975 -2.95
L 791.1 14.55 Z"/>
</g>
</g>
</g>
</svg>
