
<svg xmlns="http://www.w3.org/2000/svg" version="1.1" xmlns:xlink="http://www.w3.org/1999/xlink" preserveAspectRatio="none" x="0px" y="0px" width="1920px" height="1080px" viewBox="0 0 1920 1080">
<defs/>

<g id="Layer_1">
<g>
<g>
<g>
<path fill="#56A2E5" stroke="none" d="
M 1325.9 14.05
Q 1349.05 9.05 1373.8 2.55 1386.15 -0.7 1393.9 -2.95
L 597.95 -5.95 594.9 -4.65 606.9 -1
Q 623.2 3.75 639.85 7.8 693.1 20.8 729.95 22.05 749.75 22.7 781.95 30.8 803 36.1 843.8 48.7 889.05 62.6 906.95 67.45 941.1 76.75 962.9 79.05 1006.5 83.7 1052.4 76.55 1084.35 71.6 1111.9 62.05 1142.35 51.5 1160.15 46.05 1193.15 35.95 1221.9 30.05 1244.15 25.5 1276.55 21.7 1307.6 18 1325.9 14.05 Z"/>
</g>
</g>

<g>
<path stroke="#000000" stroke-opacity="0" stroke-width="1" stroke-linejoin="round" stroke-linecap="round" fill="none" d="
M 594.925 -4.65
L 606.9 -1
Q 623.2 3.75 639.85 7.8 693.1 20.8 729.95 22.05 749.75 22.7 781.95 30.8 803 36.1 843.8 48.7 889.05 62.6 906.95 67.45 941.1 76.75 962.9 79.05 1006.5 83.7 1052.4 76.55 1084.35 71.6 1111.9 62.05 1142.35 51.5 1160.15 46.05 1193.15 35.95 1221.9 30.05 1244.15 25.5 1276.55 21.7 1307.6 18 1325.9 14.05 1349.05 9.05 1373.8 2.55 1386.15 -0.7 1393.9 -2.95
L 597.95 -5.95 594.925 -4.65 593.95 -4.95
M 594.925 -4.65
L 594.45 -4.45"/>
</g>
</g>
</g>
</svg>
