
<svg xmlns="http://www.w3.org/2000/svg" version="1.1" xmlns:xlink="http://www.w3.org/1999/xlink" preserveAspectRatio="none" x="0px" y="0px" width="1920px" height="1080px" viewBox="0 0 1920 1080">
<defs/>

<g id="Layer_1">
<g>
<g>
<g>
<path fill="#56A2E5" stroke="none" d="
M 1480.75 -15.45
L 1452.3 -26
Q 1451.05 -24.75 685.4 -46.25 302.6 -57 -80 -68
L -100 1114.25 1978.45 1136.25 2074.45 924.2 1982.45 254.1
Q 1976.95 220.6 1967.95 185.1 1949.95 114.05 1932.45 104.05 1913.95 93.45 1840.65 78.3 1794.7 68.8 1708.35 54.05 1657.05 45.3 1549.55 8.8 1515.85 -2.65 1480.75 -15.45 Z"/>
</g>
</g>

<g>
<path stroke="#000000" stroke-opacity="0" stroke-width="1" stroke-linejoin="round" stroke-linecap="round" fill="none" d="
M 1452.3 -26
L 1480.75 -15.45
Q 1515.85 -2.65 1549.55 8.8 1657.05 45.3 1708.35 54.05 1794.7 68.8 1840.65 78.3 1913.95 93.45 1932.45 104.05 1949.95 114.05 1967.95 185.1 1976.95 220.6 1982.45 254.1
L 2074.45 924.2 1978.45 1136.25 -100 1114.25 -80 -68
Q 302.6 -57 685.4 -46.25 1451.05 -24.75 1452.3 -26 Z"/>
</g>
</g>
</g>
</svg>
