
<svg xmlns="http://www.w3.org/2000/svg" version="1.1" xmlns:xlink="http://www.w3.org/1999/xlink" preserveAspectRatio="none" x="0px" y="0px" width="1920px" height="1080px" viewBox="0 0 1920 1080">
<defs/>

<g id="Layer_1">
<g>
<g>
<g>
<path fill="#56A2E5" stroke="none" d="
M 859.45 1052.45
Q 836 1047.1 834.7 1046.85 819.6 1043.8 803.15 1042.2 774.5 1039.4 606.5 1047.2 487.5 1052.75 483.8 1052.9 422.5 1055.5 403.15 1055.2 343.15 1054.2 -16.95 1049.2
L -17 1098.25 1915.45 1120.25 1934.45 1066.2
Q 1931.7 1064.7 1928.2 1063.35 1921.2 1060.6 1917.45 1061.2 1902.45 1064.45 1888.45 1066.95 1861.15 1071.8 1847.45 1071.2 1833.3 1070.55 1819.2 1066.35 1801.45 1060.2 1789.45 1056.2 1773.85 1051 1649.8 1055.7 1555.5 1059.3 1485.35 1064.2 1451.85 1066.55 1428.7 1061.7 1416.05 1058.7 1408.95 1057.15 1396.35 1054.45 1383.3 1053.2 1362.05 1051.2 1166.4 1056.85 963.3 1062.7 929.2 1061.2 890.55 1059.5 859.45 1052.45 Z"/>
</g>
</g>

<g>
<path stroke="#000000" stroke-opacity="0" stroke-width="1" stroke-linejoin="round" stroke-linecap="round" fill="none" d="
M -16.95 1049.2
Q 343.15 1054.2 403.15 1055.2 422.5 1055.5 483.8 1052.9 487.5 1052.75 606.5 1047.2 774.5 1039.4 803.15 1042.2 819.6 1043.8 834.7 1046.85 836 1047.1 859.45 1052.45 890.55 1059.5 929.2 1061.2 963.3 1062.7 1166.4 1056.85 1362.05 1051.2 1383.3 1053.2 1396.35 1054.45 1408.95 1057.15 1416.05 1058.7 1428.7 1061.7 1451.85 1066.55 1485.35 1064.2 1555.5 1059.3 1649.8 1055.7 1773.85 1051 1789.45 1056.2 1801.45 1060.2 1819.2 1066.35 1833.3 1070.55 1847.45 1071.2 1861.15 1071.8 1888.45 1066.95 1902.45 1064.45 1917.45 1061.2 1921.2 1060.6 1928.2 1063.35 1931.7 1064.7 1934.45 1066.2
L 1915.45 1120.25 -17 1098.25 -16.95 1049.2 Z"/>
</g>
</g>
</g>
</svg>
