
<svg xmlns="http://www.w3.org/2000/svg" version="1.1" xmlns:xlink="http://www.w3.org/1999/xlink" preserveAspectRatio="none" x="0px" y="0px" width="1920px" height="1080px" viewBox="0 0 1920 1080">
<defs/>

<g id="Layer_1">
<g>
<g>
<g>
<path fill="#56A2E5" stroke="none" d="
M 1127.9 -4.95
Q 1131.5 -7.95 1032.55 -6.95
L 931.95 -5.95 947.05 14.55
Q 962.8 37.55 965.9 50.05 968.35 59.85 972.3 84.3 977.2 114.65 980.4 144.7 989.55 230.9 979.9 270.05 965.6 328.3 961.8 359.4 956.15 405.5 966.9 427 978.45 450.05 998.55 461.65 1017.2 472.35 1036.9 470 1058.4 467.4 1074.9 455.15 1094.2 440.75 1094.9 420 1095.25 410.2 1090.45 384.95 1089.25 378.4 1079.65 332.15 1063.45 253.95 1062.9 218.05 1062.1 165.3 1065.4 123.95 1069.1 77.65 1076.9 62.05 1084.2 47.45 1104.3 22.2 1121.75 0.15 1127.9 -4.95 Z"/>
</g>
</g>

<g>
<path stroke="#000000" stroke-opacity="0" stroke-width="1" stroke-linejoin="round" stroke-linecap="round" fill="none" d="
M 931.95 -5.95
L 947.05 14.55
Q 962.8 37.55 965.9 50.05 968.35 59.85 972.3 84.3 977.2 114.65 980.4 144.7 989.55 230.9 979.9 270.05 965.6 328.3 961.8 359.4 956.15 405.5 966.9 427 978.45 450.05 998.55 461.65 1017.2 472.35 1036.9 470 1058.4 467.4 1074.9 455.15 1094.2 440.75 1094.9 420 1095.25 410.2 1090.45 384.95 1089.25 378.4 1079.65 332.15 1063.45 253.95 1062.9 218.05 1062.1 165.3 1065.4 123.95 1069.1 77.65 1076.9 62.05 1084.2 47.45 1104.3 22.2 1121.75 0.15 1127.9 -4.95 1131.5 -7.95 1032.55 -6.95
L 931.95 -5.95 Z"/>
</g>
</g>
</g>
</svg>
