
<svg xmlns="http://www.w3.org/2000/svg" version="1.1" xmlns:xlink="http://www.w3.org/1999/xlink" preserveAspectRatio="none" x="0px" y="0px" width="1920px" height="1080px" viewBox="0 0 1920 1080">
<defs/>

<g id="Layer_1">
<g>
<g>
<g>
<path fill="#56A2E5" stroke="none" d="
M 1282.65 1010.3
Q 1172 1020.7 1113.25 1026.2 965.15 1040.05 808.6 1030.1 758.05 1026.85 709.75 1021.3 668.2 1015.95 662.2 1015.2 642.6 1012.75 611.95 1007.85 577.3 1002.25 539.15 995.2 503.25 988.55 438.5 984.95 389.15 982.2 349.1 982.2 336.55 982.2 239.55 980.35 151.7 978.65 127.05 979.2 100.2 979.85 40.45 991.1 10.55 996.7 -13.95 1002.2 -13.95 1000.35 -21.45 1046.1 -25.25 1069 -29 1092.25
L 1952.45 1098.25 1931.45 1012.2
Q 1893.45 1007.45 1841.2 1002.1 1736.65 991.35 1665.4 988.2 1590.4 984.9 1434.7 997.1 1374.6 1001.75 1282.65 1010.3 Z"/>
</g>
</g>

<g>
<path stroke="#000000" stroke-opacity="0" stroke-width="1" stroke-linejoin="round" stroke-linecap="round" fill="none" d="
M -13.95 1002.2
Q 10.55 996.7 40.45 991.1 100.2 979.85 127.05 979.2 151.7 978.65 239.55 980.35 336.55 982.2 349.1 982.2 389.15 982.2 438.5 984.95 503.25 988.55 539.15 995.2 577.3 1002.25 611.95 1007.85 642.6 1012.75 662.2 1015.2 668.2 1015.95 709.75 1021.3 758.05 1026.85 808.6 1030.1 965.15 1040.05 1113.25 1026.2 1172 1020.7 1282.65 1010.3 1374.6 1001.75 1434.7 997.1 1590.4 984.9 1665.4 988.2 1736.65 991.35 1841.2 1002.1 1893.45 1007.45 1931.45 1012.2
L 1952.45 1098.25 -29 1092.25
Q -25.25 1069 -21.45 1046.1 -13.95 1000.35 -13.95 1002.2 Z"/>
</g>
</g>
</g>
</svg>
