
<svg xmlns="http://www.w3.org/2000/svg" version="1.1" xmlns:xlink="http://www.w3.org/1999/xlink" preserveAspectRatio="none" x="0px" y="0px" width="1920px" height="1080px" viewBox="0 0 1920 1080">
<defs/>

<g id="Layer_1">
<g>
<g>
<g>
<path fill="#56A2E5" stroke="none" d="
M 1404.4 -5.2
Q 1407.25 -7.05 1408.85 -8.45
L 584.45 -1.95 598.2 4.2
Q 613.45 10.7 620.95 12.55 630.15 14.85 675.1 19.35 720.4 23.9 731.45 23.55 744.95 23.1 774 24.55 806.4 26.15 816.95 28.55 824.7 30.3 863.75 38.95 900.45 47.25 907.95 50.05 914.2 52.4 927.55 55.5 945.1 59.55 964.1 62.05 1018.7 69.2 1062.95 60.55 1079.15 57.4 1169.25 38.6 1228.3 26.3 1244.4 24.55 1253.05 23.6 1289.15 21.1 1317.75 19.15 1332.4 16.55 1350.55 13.35 1368.65 8.6 1385.2 4.25 1392.85 1.05 1398.8 -1.45 1404.4 -5.2 Z"/>
</g>
</g>

<g>
<path stroke="#000000" stroke-opacity="0" stroke-width="1" stroke-linejoin="round" stroke-linecap="round" fill="none" d="
M 584.45 -1.95
L 598.2 4.2
Q 613.45 10.7 620.95 12.55 630.15 14.85 675.1 19.35 720.4 23.9 731.45 23.55 744.95 23.1 774 24.55 806.4 26.15 816.95 28.55 824.7 30.3 863.75 38.95 900.45 47.25 907.95 50.05 914.2 52.4 927.55 55.5 945.1 59.55 964.1 62.05 1018.7 69.2 1062.95 60.55 1079.15 57.4 1169.25 38.6 1228.3 26.3 1244.4 24.55 1253.05 23.6 1289.15 21.1 1317.75 19.15 1332.4 16.55 1350.55 13.35 1368.65 8.6 1385.2 4.25 1392.85 1.05 1398.8 -1.45 1404.4 -5.2 1407.25 -7.05 1408.85 -8.45
L 584.45 -1.95 Z"/>
</g>
</g>
</g>
</svg>
