
<svg xmlns="http://www.w3.org/2000/svg" version="1.1" xmlns:xlink="http://www.w3.org/1999/xlink" preserveAspectRatio="none" x="0px" y="0px" width="1920px" height="1080px" viewBox="0 0 1920 1080">
<defs/>

<g id="Layer_1">
<g>
<g>
<g>
<path fill="#56A2E5" stroke="none" d="
M 1029.55 382.1
L 1025.9 366.95 1020.9 368.95
Q 1017.9 370.45 1011.8 377.45 1003.4 387 998.9 397.95 995.4 406.45 982.8 434.7 970.35 464.2 962.9 490.95 954.15 522.35 951.05 555.05 948.15 585.55 948.9 631.9 949.6 672.7 968.05 706.15 982.95 733.2 1002.9 745.9 1017.55 755.2 1036.15 749.15 1043.65 746.7 1054.1 741.1 1056.9 739.6 1073.9 729.9 1092.1 719.5 1095.15 690.15 1096.25 679.45 1095.55 664.35 1094.4 647.4 1093.9 639.9 1092.75 622.95 1072.4 576.8 1061.4 552.3 1056.5 540.8 1048.1 521.2 1044.9 509.95 1038.2 486.45 1036.05 465.2 1034.85 453.8 1033.9 421.95 1033.3 401.35 1029.55 382.1 Z"/>
</g>
</g>

<g>
<path stroke="#000000" stroke-opacity="0" stroke-width="1" stroke-linejoin="round" stroke-linecap="round" fill="none" d="
M 1020.9 368.95
L 1025.9 366.95 1029.55 382.1
Q 1033.3 401.35 1033.9 421.95 1034.85 453.8 1036.05 465.2 1038.2 486.45 1044.9 509.95 1048.1 521.2 1056.5 540.8 1061.4 552.3 1072.4 576.8 1092.75 622.95 1093.9 639.9 1094.4 647.4 1095.55 664.35 1096.25 679.45 1095.15 690.15 1092.1 719.5 1073.9 729.9 1056.9 739.6 1054.1 741.1 1043.65 746.7 1036.15 749.15 1017.55 755.2 1002.9 745.9 982.95 733.2 968.05 706.15 949.6 672.7 948.9 631.9 948.15 585.55 951.05 555.05 954.15 522.35 962.9 490.95 970.35 464.2 982.8 434.7 995.4 406.45 998.9 397.95 1003.4 387 1011.8 377.45 1017.9 370.45 1020.9 368.95 Z"/>
</g>
</g>
</g>
</svg>
