
<svg xmlns="http://www.w3.org/2000/svg" version="1.1" xmlns:xlink="http://www.w3.org/1999/xlink" preserveAspectRatio="none" x="0px" y="0px" width="1920px" height="1080px" viewBox="0 0 1920 1080">
<defs/>

<g id="Layer_1">
<g>
<g>
<g>
<path fill="#56A2E5" stroke="none" d="
M 1347.3 933.1
Q 1345.3 927.2 1340.3 922.2 1336.55 918.45 1315.05 914.45
L 1294.3 911.2
Q 1290.55 912.2 1287.05 913.35 1280.05 915.6 1281.3 916.2
L 1286.8 922.7
Q 1293.8 930.7 1301.3 938.2 1307.35 944.25 1315.2 946.95 1321.85 949.25 1325.3 954.2 1330.65 961.85 1338.7 960.35 1346.85 958.8 1348.3 949.2 1349.7 940.1 1347.3 933.1
M 683.15 964.45
Q 684.9 959.95 687.15 953.2 688.4 949.45 689.9 943.45
L 691.15 938.2 681.05 944.95
Q 669.8 953.45 664.15 962.2 662.15 965.35 658.15 970.85 655.25 974.85 654.55 976.45 653.5 978.75 654.45 980.2 655.45 981.7 659.15 983.2 661.35 984.1 665.2 986.1 667.95 987.55 669.15 987.7 672.25 988.05 676.15 980.2 680.1 972.35 683.15 964.45
M 1580.35 1078.1
Q 1526.35 1071.35 1491.35 1068.2 1401.6 1060.95 1339.05 1055.6 1220.7 1045.4 1182.25 1039.2 1130.55 1030.85 1038.35 1025.45 938.7 1019.6 907.2 1025.2 843.45 1036.95 796.8 1044.95 709.75 1059.9 654.15 1066.2 599.15 1072.45 522.15 1081
L 456.1 1088.25
Q 454.85 1088.9 1041 1086.65 1334.05 1085.5 1627.35 1084.25 1607.35 1081.5 1580.35 1078.1 Z"/>
</g>
</g>

<g>
<path stroke="#000000" stroke-opacity="0" stroke-width="1" stroke-linejoin="round" stroke-linecap="round" fill="none" d="
M 1281.3 916.2
L 1286.8 922.7
Q 1293.8 930.7 1301.3 938.2 1307.35 944.25 1315.2 946.95 1321.85 949.25 1325.3 954.2 1330.65 961.85 1338.7 960.35 1346.85 958.8 1348.3 949.2 1349.7 940.1 1347.3 933.1 1345.3 927.2 1340.3 922.2 1336.55 918.45 1315.05 914.45
L 1294.3 911.2
Q 1290.55 912.2 1287.05 913.35 1280.05 915.6 1281.3 916.2 Z
M 456.1 1088.25
L 522.15 1081
Q 599.15 1072.45 654.15 1066.2 709.75 1059.9 796.8 1044.95 843.45 1036.95 907.2 1025.2 938.7 1019.6 1038.35 1025.45 1130.55 1030.85 1182.25 1039.2 1220.7 1045.4 1339.05 1055.6 1401.6 1060.95 1491.35 1068.2 1526.35 1071.35 1580.35 1078.1 1607.35 1081.5 1627.35 1084.25 1334.05 1085.5 1041 1086.65 454.85 1088.9 456.1 1088.25 Z
M 691.15 938.2
L 681.05 944.95
Q 669.8 953.45 664.15 962.2 662.15 965.35 658.15 970.85 655.25 974.85 654.55 976.45 653.5 978.75 654.45 980.2 655.45 981.7 659.15 983.2 661.35 984.1 665.2 986.1 667.95 987.55 669.15 987.7 672.25 988.05 676.15 980.2 680.1 972.35 683.15 964.45 684.9 959.95 687.15 953.2 688.4 949.45 689.9 943.45
L 691.15 938.2 Z"/>
</g>
</g>
</g>
</svg>
