
<svg xmlns="http://www.w3.org/2000/svg" version="1.1" xmlns:xlink="http://www.w3.org/1999/xlink" preserveAspectRatio="none" x="0px" y="0px" width="1920px" height="1080px" viewBox="0 0 1920 1080">
<defs/>

<g id="Layer_1">
<g>
<g>
<g>
<path fill="#56A2E5" stroke="none" d="
M 1178.9 -6.95
Q 1105.15 -7.45 1031.45 -8.05 885.658203125 -9.285546875 883.95 -9.95
L 897.75 0.55
Q 914.65 14.4 930.05 31.3 979.3 85.3 994.9 149.05 1001.2 174.7 1010.15 208.2 1016.9 233.5 1018.65 242.05 1021.2 254.65 1020.8 264.65 1020.4 273.8 1016.9 290.05 1012 312.95 999.3 343.4 985.2 377.05 980.9 392.95 979.6 397.8 973.05 419.7 968.35 435.55 966.15 445.8 959.8 475.75 964.9 503.9 968.55 524.05 970.45 531.95 973.4 544.25 977.05 551.3 981.1 559.1 987.55 563.65 994.1 568.3 1004.9 570.9 1026.85 576.2 1054.9 570.15 1067.6 567.4 1076.05 563.05 1085.1 558.35 1086.9 552.9 1093.55 532.95 1096.3 505.7 1100.25 465.9 1089.9 441.95 1070.85 397.85 1055.55 359.2 1032.85 301.95 1030.9 286.95 1030.1 281 1028.45 272.6 1026.9 264.6 1026.4 260.6 1024.75 246.85 1027.9 222.95 1032 191.95 1038.8 163.9 1046.4 132.3 1054.9 116.05 1065.1 96.5 1076.9 80.95 1091.45 61.7 1110.9 45.05 1128.4 30.05 1155.4 10.05 1168.9 0.05 1178.9 -6.95 Z"/>
</g>
</g>

<g>
<path stroke="#000000" stroke-opacity="0" stroke-width="1" stroke-linejoin="round" stroke-linecap="round" fill="none" d="
M 897.75 0.55
Q 914.65 14.4 930.05 31.3 979.3 85.3 994.9 149.05 1001.2 174.7 1010.15 208.2 1016.9 233.5 1018.65 242.05 1021.2 254.65 1020.8 264.65 1020.4 273.8 1016.9 290.05 1012 312.95 999.3 343.4 985.2 377.05 980.9 392.95 979.6 397.8 973.05 419.7 968.35 435.55 966.15 445.8 959.8 475.75 964.9 503.9 968.55 524.05 970.45 531.95 973.4 544.25 977.05 551.3 981.1 559.1 987.55 563.65 994.1 568.3 1004.9 570.9 1026.85 576.2 1054.9 570.15 1067.6 567.4 1076.05 563.05 1085.1 558.35 1086.9 552.9 1093.55 532.95 1096.3 505.7 1100.25 465.9 1089.9 441.95 1070.85 397.85 1055.55 359.2 1032.85 301.95 1030.9 286.95 1030.1 281 1028.45 272.6 1026.9 264.6 1026.4 260.6 1024.75 246.85 1027.9 222.95 1032 191.95 1038.8 163.9 1046.4 132.3 1054.9 116.05 1065.1 96.5 1076.9 80.95 1091.45 61.7 1110.9 45.05 1128.4 30.05 1155.4 10.05 1168.9 0.05 1178.9 -6.95 1105.15 -7.45 1031.45 -8.05 885.658203125 -9.285546875 883.975 -9.925
L 897.75 0.55 Z"/>
</g>
</g>
</g>
</svg>
