
<svg xmlns="http://www.w3.org/2000/svg" version="1.1" xmlns:xlink="http://www.w3.org/1999/xlink" preserveAspectRatio="none" x="0px" y="0px" width="1920px" height="1080px" viewBox="0 0 1920 1080">
<defs/>

<g id="Layer_1">
<g>
<g>
<g>
<path fill="#56A2E5" stroke="none" d="
M 1215.9 -1.95
Q 1230.9 -6.95 1052.45 -3.45
L 870.85 1.25 873.55 2.1
Q 885.2 5.95 895.6 9.95 928.85 22.7 936.95 32.05 941.75 37.65 948.45 53.95 955.05 70.05 960.9 90.3 975 139 972.9 165.05 972.3 172.15 969.8 191.3 967.85 206.4 967.8 214.55 967.7 226.3 970.8 234.75 974.4 244.55 982.9 252 1003.95 270.4 1024.55 276.75 1049.45 284.45 1063.9 270 1078.5 255.4 1085.05 225.65 1090.2 201.95 1091.9 158.05 1093.35 120.2 1105.8 91.8 1117.5 65.05 1136.9 51.05 1149.4 42.05 1176.8 20.8 1201 3 1215.9 -1.95 Z"/>
</g>
</g>

<g>
<path stroke="#000000" stroke-opacity="0" stroke-width="1" stroke-linejoin="round" stroke-linecap="round" fill="none" d="
M 870.875 1.25
L 873.55 2.1
Q 885.2 5.95 895.6 9.95 928.85 22.7 936.95 32.05 941.75 37.65 948.45 53.95 955.05 70.05 960.9 90.3 975 139 972.9 165.05 972.3 172.15 969.8 191.3 967.85 206.4 967.8 214.55 967.7 226.3 970.8 234.75 974.4 244.55 982.9 252 1003.95 270.4 1024.55 276.75 1049.45 284.45 1063.9 270 1078.5 255.4 1085.05 225.65 1090.2 201.95 1091.9 158.05 1093.35 120.2 1105.8 91.8 1117.5 65.05 1136.9 51.05 1149.4 42.05 1176.8 20.8 1201 3 1215.9 -1.95 1230.9 -6.95 1052.45 -3.45
L 870.875 1.25 863.95 -0.95"/>
</g>
</g>
</g>
</svg>
