
<svg xmlns="http://www.w3.org/2000/svg" version="1.1" xmlns:xlink="http://www.w3.org/1999/xlink" preserveAspectRatio="none" x="0px" y="0px" width="1920px" height="1080px" viewBox="0 0 1920 1080">
<defs/>

<g id="Layer_1">
<g>
<g>
<g>
<path fill="#56A2E5" stroke="none" d="
M 932.7 -8.05
Q 890.15 -7.35 890.95 -6.95
L 898.95 -3.85
Q 908.65 0.15 917.3 4.95 945.05 20.2 951.9 37.05 960.35 57.8 967.55 114.95 974.85 173.2 971.9 201.05 969.9 220.05 965.55 238 964.45 244.6 965 250.2 965.7 256.7 968.9 266 970.55 270.7 973.75 283.25 976 292.05 978.4 296 981.75 301.5 988.3 304.25 995.55 307.3 1008.9 308 1012.4 308.2 1032.4 309.95 1043.5 310.95 1049.05 310.15 1056.25 309.05 1061.35 304.5 1066.8 299.6 1071.9 289 1080.75 270.7 1082.65 250.65 1083.2 244.7 1084 228.45 1084.85 210.85 1085.9 198.05 1089.45 155.2 1093.9 132.95 1100.25 101.05 1113.9 73.05 1127.35 45.55 1142.05 20.45 1154.1 -0.2 1158.9 -5.95 1162.15 -9.85 1026.05 -9.05 977.8 -8.8 932.7 -8.05 Z"/>
</g>
</g>

<g>
<path stroke="#000000" stroke-opacity="0" stroke-width="1" stroke-linejoin="round" stroke-linecap="round" fill="none" d="
M 890.95 -6.95
L 898.95 -3.85
Q 908.65 0.15 917.3 4.95 945.05 20.2 951.9 37.05 960.35 57.8 967.55 114.95 974.85 173.2 971.9 201.05 969.9 220.05 965.55 238 964.45 244.6 965 250.2 965.7 256.7 968.9 266 970.55 270.7 973.75 283.25 976 292.05 978.4 296 981.75 301.5 988.3 304.25 995.55 307.3 1008.9 308 1012.4 308.2 1032.4 309.95 1043.5 310.95 1049.05 310.15 1056.25 309.05 1061.35 304.5 1066.8 299.6 1071.9 289 1080.75 270.7 1082.65 250.65 1083.2 244.7 1084 228.45 1084.85 210.85 1085.9 198.05 1089.45 155.2 1093.9 132.95 1100.25 101.05 1113.9 73.05 1127.35 45.55 1142.05 20.45 1154.1 -0.2 1158.9 -5.95 1162.15 -9.85 1026.05 -9.05 977.8 -8.8 932.7 -8.05 890.15 -7.35 890.95 -6.95 Z"/>
</g>
</g>
</g>
</svg>
