
<svg xmlns="http://www.w3.org/2000/svg" version="1.1" xmlns:xlink="http://www.w3.org/1999/xlink" preserveAspectRatio="none" x="0px" y="0px" width="1920px" height="1080px" viewBox="0 0 1920 1080">
<defs/>

<g id="Layer_1">
<g>
<g>
<g>
<path fill="#56A2E5" stroke="none" d="
M 2050.5 1168.25
Q 2048.65 1141.5 2044.75 1100.7 2037 1019.1 2027 949 1995 724.45 1952.45 698.2 1908.95 671.35 1731.9 664.45 1671.5 662.05 1590.15 661.9 1506.35 662.15 1478.35 662.15 1409.6 662.15 1231.05 692.95 1190.95 699.85 1087.05 718.7 1002.35 734.15 964.25 740.2 875.9 754.3 720.95 735.2 667.7 728.65 598.8 717.15 527.15 704.7 500.15 700.2 417.8 686.5 362.65 663.95 305 640.4 234.1 590.15 174.1 547.65 79.05 493.65 31.55 466.6 -4 448.1 -5.45 448.1 -20.85 564.6 -35.85 678.35 -53.25 820.65 -98.75 1192.95 -92 1190.25 -85.75 1187.75 983 1177.75 1517.4 1172.75 2050.5 1168.25 Z"/>
</g>
</g>

<g>
<path stroke="#000000" stroke-opacity="0" stroke-width="1" stroke-linejoin="round" stroke-linecap="round" fill="none" d="
M -4 448.1
Q 31.55 466.6 79.05 493.65 174.1 547.65 234.1 590.15 305 640.4 362.65 663.95 417.8 686.5 500.15 700.2 527.15 704.7 598.8 717.15 667.7 728.65 720.95 735.2 875.9 754.3 964.25 740.2 1002.35 734.15 1087.05 718.7 1190.95 699.85 1231.05 692.95 1409.6 662.15 1478.35 662.15 1506.35 662.15 1590.15 661.9 1671.5 662.05 1731.9 664.45 1908.95 671.35 1952.45 698.2 1995 724.45 2027 949 2037 1019.1 2044.75 1100.7 2048.65 1141.5 2050.5 1168.25 1517.4 1172.75 983 1177.75 -85.75 1187.75 -92 1190.25 -98.75 1192.95 -53.25 820.65 -35.85 678.35 -20.85 564.6 -5.45 448.1 -4 448.1 Z"/>
</g>
</g>
</g>
</svg>
