
<svg xmlns="http://www.w3.org/2000/svg" version="1.1" xmlns:xlink="http://www.w3.org/1999/xlink" preserveAspectRatio="none" x="0px" y="0px" width="1920px" height="1080px" viewBox="0 0 1920 1080">
<defs/>

<g id="Layer_1">
<g>
<g>
<g>
<path fill="#56A2E5" stroke="none" d="
M 934.95 -3.95
L 912.95 -1.95 920.4 3.65
Q 929.4 10.5 937.3 17.2 962.55 38.45 966.9 49.05 972.4 62.35 985.9 133.95 999.6 206.55 998.9 221.05 998.05 237.9 987.8 322.65 977.1 410.8 972.9 431 969 449.8 975.8 468.45 980.55 481.55 986.9 487.9 989.05 490.05 996.35 493.6 1004.75 497.65 1013.9 500.4 1039.25 508.05 1052.9 500.9 1072.3 490.75 1079.55 484.2 1090.55 474.2 1091.9 459.95 1092.55 453 1087.25 422.9 1084.8 409.1 1074.9 357.85 1055.95 259.85 1054.9 230.95 1052.95 177.9 1054.8 146.15 1057.55 98.45 1068.9 71.05 1079.55 45.45 1106.3 16.2 1119.65 1.55 1130.9 -7.95
L 934.95 -3.95 Z"/>
</g>
</g>

<g>
<path stroke="#000000" stroke-opacity="0" stroke-width="1" stroke-linejoin="round" stroke-linecap="round" fill="none" d="
M 934.95 -3.95
L 912.95 -1.95 920.4 3.65
Q 929.4 10.5 937.3 17.2 962.55 38.45 966.9 49.05 972.4 62.35 985.9 133.95 999.6 206.55 998.9 221.05 998.05 237.9 987.8 322.65 977.1 410.8 972.9 431 969 449.8 975.8 468.45 980.55 481.55 986.9 487.9 989.05 490.05 996.35 493.6 1004.75 497.65 1013.9 500.4 1039.25 508.05 1052.9 500.9 1072.3 490.75 1079.55 484.2 1090.55 474.2 1091.9 459.95 1092.55 453 1087.25 422.9 1084.8 409.1 1074.9 357.85 1055.95 259.85 1054.9 230.95 1052.95 177.9 1054.8 146.15 1057.55 98.45 1068.9 71.05 1079.55 45.45 1106.3 16.2 1119.65 1.55 1130.9 -7.95
L 934.95 -3.95 Z"/>
</g>
</g>
</g>
</svg>
