
<svg xmlns="http://www.w3.org/2000/svg" version="1.1" xmlns:xlink="http://www.w3.org/1999/xlink" preserveAspectRatio="none" x="0px" y="0px" width="1920px" height="1080px" viewBox="0 0 1920 1080">
<defs/>

<g id="Layer_1">
<g>
<g>
<g>
<path fill="#56A2E5" stroke="none" d="
M 1004.25 1063.45
Q 991.25 1062.7 978.2 1062.2 968.25 1061.8 806.55 1063.1 646.25 1064.3 622.1 1063.2 538.1 1061.2 471.6 1058.95 343.45 1054.6 297.1 1047.2 222.1 1035.2 -5 996.2 -4.35 996.2 -25.1 1045.75 -35.45 1070.5 -45.95 1095.25
L 1932.45 1101.25 1932.45 1050.2
Q 1886.45 1048.95 1832.7 1047.7 1725.15 1045.2 1686.4 1045.2 1652.4 1045.2 1377.85 1053.85 1092.8 1062.8 1063.25 1063.2 1018.6 1063.85 1004.25 1063.45 Z"/>
</g>
</g>

<g>
<path stroke="#000000" stroke-opacity="0" stroke-width="1" stroke-linejoin="round" stroke-linecap="round" fill="none" d="
M -5 996.2
Q 222.1 1035.2 297.1 1047.2 343.45 1054.6 471.6 1058.95 538.1 1061.2 622.1 1063.2 646.25 1064.3 806.55 1063.1 968.25 1061.8 978.2 1062.2 991.25 1062.7 1004.25 1063.45 1018.6 1063.85 1063.25 1063.2 1092.8 1062.8 1377.85 1053.85 1652.4 1045.2 1686.4 1045.2 1725.15 1045.2 1832.7 1047.7 1886.45 1048.95 1932.45 1050.2
L 1932.45 1101.25 -45.95 1095.25
Q -35.45 1070.5 -25.1 1045.75 -4.35 996.2 -5 996.2 Z"/>
</g>
</g>
</g>
</svg>
