
<svg xmlns="http://www.w3.org/2000/svg" version="1.1" xmlns:xlink="http://www.w3.org/1999/xlink" preserveAspectRatio="none" x="0px" y="0px" width="1920px" height="1080px" viewBox="0 0 1920 1080">
<defs/>

<g id="Layer_1">
<g>
<g>
<g>
<path fill="#56A2E5" stroke="none" d="
M 920.95 -6.25
Q 677.45 -3.9 677.45 -2.95
L 683.45 0.55
Q 690.7 4.05 696.95 4.05 699.45 4.05 708.85 2.7 720.6 1 727.85 0.35 755.65 -2.2 775.95 3.05 798.7 8.9 845.85 16.6 889.1 23.7 902.95 24.55 926.1 26 968.4 26.2 1025.15 26.4 1045.45 22.55 1062 19.4 1079.45 13.05 1094.75 7.5 1102.95 6.55 1111.7 5.55 1127.65 4.75 1140.55 3.75 1145.95 1.05 1154.95 -3.45 1164.45 -8.45 1042.7 -7.45 920.95 -6.25 Z"/>
</g>
</g>

<g>
<path stroke="#000000" stroke-opacity="0" stroke-width="1" stroke-linejoin="round" stroke-linecap="round" fill="none" d="
M 677.45 -2.95
L 683.45 0.55
Q 690.7 4.05 696.95 4.05 699.45 4.05 708.85 2.7 720.6 1 727.85 0.35 755.65 -2.2 775.95 3.05 798.7 8.9 845.85 16.6 889.1 23.7 902.95 24.55 926.1 26 968.4 26.2 1025.15 26.4 1045.45 22.55 1062 19.4 1079.45 13.05 1094.75 7.5 1102.95 6.55 1111.7 5.55 1127.65 4.75 1140.55 3.75 1145.95 1.05 1154.95 -3.45 1164.45 -8.45 1042.7 -7.45 920.95 -6.25 677.45 -3.9 677.45 -2.95 Z"/>
</g>
</g>
</g>
</svg>
