
<svg xmlns="http://www.w3.org/2000/svg" version="1.1" xmlns:xlink="http://www.w3.org/1999/xlink" preserveAspectRatio="none" x="0px" y="0px" width="1920px" height="1080px" viewBox="0 0 1920 1080">
<defs/>

<g id="Layer_1">
<g>
<g>
<g>
<path fill="#56A2E5" stroke="none" d="
M 1114.2 -1.25
Q 1119.65 -1.6 775.5 -0.95
L 794.55 1.05
Q 814.3 3.2 817.9 4.2 838.95 10.05 849.2 12.05 882.8 18.6 917.4 18 955.35 17.35 990.3 15.75 1020.9 14.3 1029.45 13.2 1034.45 12.55 1058.4 9.65 1081.1 6.75 1086.9 5.15 1097.6 2.2 1102 1.15 1110.65 -1 1114.2 -1.25 Z"/>
</g>
</g>

<g>
<path stroke="#000000" stroke-opacity="0" stroke-width="1" stroke-linejoin="round" stroke-linecap="round" fill="none" d="
M 775.5 -0.95
L 794.55 1.05
Q 814.3 3.2 817.9 4.2 838.95 10.05 849.2 12.05 882.8 18.6 917.4 18 955.35 17.35 990.3 15.75 1020.9 14.3 1029.45 13.2 1034.45 12.55 1058.4 9.65 1081.1 6.75 1086.9 5.15 1097.6 2.2 1102 1.15 1110.65 -1 1114.2 -1.25 1119.65 -1.6 775.5 -0.95 Z"/>
</g>
</g>
</g>
</svg>
