
<svg xmlns="http://www.w3.org/2000/svg" version="1.1" xmlns:xlink="http://www.w3.org/1999/xlink" preserveAspectRatio="none" x="0px" y="0px" width="1920px" height="1080px" viewBox="0 0 1920 1080">
<defs/>

<g id="Layer_1">
<g>
<g>
<g>
<path fill="#56A2E5" stroke="none" d="
M 1160.65 67.2
Q 1191.25 44.55 1207.9 37.05 1227.3 28.3 1294.55 12.3 1328.15 4.3 1357.9 -1.95
L 683.95 -0.95 714.25 8.9
Q 751 21 783.3 32.2 886.5 67.95 905.9 81.05 913.55 86.2 927.55 96.85 940.85 107 947.8 111.55 971.05 126.9 994.9 130.05 1026.2 134.15 1046.3 130.55 1071.25 126.05 1102.9 107.05 1123 95 1160.65 67.2 Z"/>
</g>
</g>

<g>
<path stroke="#000000" stroke-opacity="0" stroke-width="1" stroke-linejoin="round" stroke-linecap="round" fill="none" d="
M 683.95 -0.95
L 714.25 8.9
Q 751 21 783.3 32.2 886.5 67.95 905.9 81.05 913.55 86.2 927.55 96.85 940.85 107 947.8 111.55 971.05 126.9 994.9 130.05 1026.2 134.15 1046.3 130.55 1071.25 126.05 1102.9 107.05 1123 95 1160.65 67.2 1191.25 44.55 1207.9 37.05 1227.3 28.3 1294.55 12.3 1328.15 4.3 1357.9 -1.95
L 683.95 -0.95 Z"/>
</g>
</g>
</g>
</svg>
