
<svg xmlns="http://www.w3.org/2000/svg" version="1.1" xmlns:xlink="http://www.w3.org/1999/xlink" preserveAspectRatio="none" x="0px" y="0px" width="1920px" height="1080px" viewBox="0 0 1920 1080">
<defs/>

<g id="Layer_1">
<g>
<g>
<g>
<path fill="#56A2E5" stroke="none" d="
M 1245.3 872.2
Q 1235.8 875.7 1226.2 880.1 1206.95 888.85 1206.3 893.2 1205.5 898.7 1207.05 901.35 1208.8 904.3 1215.3 907.2 1221.7 910.05 1231.7 910.45 1240.6 910.8 1250.3 909.2 1257.7 907.95 1264.05 905.7 1267.55 904.45 1273.3 902.2 1277.05 900.95 1280.55 892.95
L 1283.3 885.2
Q 1274.05 881.95 1264.7 878.7 1245.95 872.2 1245.3 872.2
M 757.8 882.85
Q 755.55 882.6 756.15 883.2 752.4 884.05 746.5 884.6 739.1 885.3 737.4 885.6 727.45 887.1 723.15 893.2 719.65 898.2 714.05 902.85 710.7 906.5 713.15 913.2 716.7 923 719.65 925.2 724.2 928.6 735.15 925.2 745.6 921.95 753.55 918.1 755.3 917.2 768.15 910.2 775.05 906.45 780.8 898.45
L 785.15 891.2 760.15 883.2
Q 758.9 882.95 757.8 882.85
M 788.8 1043
Q 778.05 1044 776.15 1045.25
L 768.15 1056.25 772 1060.1
Q 779.3755859375 1058.0666015625 785.75 1056.25
L 799.15 1042.25
Q 794.15 1042.5 788.8 1043
M 777.15 1065.25
L 785.75 1056.25
Q 779.3755859375 1058.0666015625 772 1060.1
L 777.15 1065.25
M 1024.25 984.2
Q 996.5 979.7 987.35 978.7 973.95 977.25 960.2 979.2 946.8 981.1 937.95 987.1 935 989.05 929 993.95 921.85 999.8 917.2 1003.2 904.75 1012.4 872.95 1025.45 855.2 1032.75 818.2 1046.2 807.9759765625 1049.922265625 785.75 1056.25
L 777.15 1065.25 772 1060.1
Q 753.319921875 1065.233203125 728.3 1071.75
L 663.15 1088.25 1368.3 1088.25
Q 1331.05 1081.25 1288.65 1072.75 1203.9 1055.7 1178.25 1048.2 1164.8 1044.25 1141.65 1033.85 1132.3 1029.65 1098.6 1013.6 1071.5 1000.65 1056.9 994.6 1035.75 985.9 1024.25 984.2
M 1226.25 1038.25
Q 1224.6 1036.3 1221.25 1036.85 1219.75 1037.1 1214.75 1038.9 1210.5 1040.4 1208.25 1040.35 1204.95 1040.3 1203.25 1037.25 1199.95 1031.3 1196.65 1034.65 1195.4 1035.85 1194.95 1037.65 1194.5 1039.5 1195.25 1040.25
L 1206.25 1053.25 1213.85 1055.15
Q 1222.1 1056.4 1225.25 1053.25 1229.2 1049.35 1229.5 1046.15 1229.9 1042.6 1226.25 1038.25 Z"/>
</g>
</g>

<g>
<path stroke="#000000" stroke-opacity="0" stroke-width="1" stroke-linejoin="round" stroke-linecap="round" fill="none" d="
M 1245.3 872.2
Q 1235.8 875.7 1226.2 880.1 1206.95 888.85 1206.3 893.2 1205.5 898.7 1207.05 901.35 1208.8 904.3 1215.3 907.2 1221.7 910.05 1231.7 910.45 1240.6 910.8 1250.3 909.2 1257.7 907.95 1264.05 905.7 1267.55 904.45 1273.3 902.2 1277.05 900.95 1280.55 892.95
L 1283.3 885.2
Q 1274.05 881.95 1264.7 878.7 1245.95 872.2 1245.3 872.2 Z
M 663.15 1088.25
L 728.3 1071.75
Q 753.319921875 1065.233203125 772 1060.1
L 768.15 1056.25 776.15 1045.25
Q 778.05 1044 788.8 1043 794.15 1042.5 799.15 1042.25
L 785.75 1056.25
Q 807.9759765625 1049.922265625 818.2 1046.2 855.2 1032.75 872.95 1025.45 904.75 1012.4 917.2 1003.2 921.85 999.8 929 993.95 935 989.05 937.95 987.1 946.8 981.1 960.2 979.2 973.95 977.25 987.35 978.7 996.5 979.7 1024.25 984.2 1035.75 985.9 1056.9 994.6 1071.5 1000.65 1098.6 1013.6 1132.3 1029.65 1141.65 1033.85 1164.8 1044.25 1178.25 1048.2 1203.9 1055.7 1288.65 1072.75 1331.05 1081.25 1368.3 1088.25
L 663.15 1088.25 Z
M 1195.25 1040.25
L 1206.25 1053.25 1213.85 1055.15
Q 1222.1 1056.4 1225.25 1053.25 1229.2 1049.35 1229.5 1046.15 1229.9 1042.6 1226.25 1038.25 1224.6 1036.3 1221.25 1036.85 1219.75 1037.1 1214.75 1038.9 1210.5 1040.4 1208.25 1040.35 1204.95 1040.3 1203.25 1037.25 1199.95 1031.3 1196.65 1034.65 1195.4 1035.85 1194.95 1037.65 1194.5 1039.5 1195.25 1040.25 Z
M 756.15 883.2
Q 752.4 884.05 746.5 884.6 739.1 885.3 737.4 885.6 727.45 887.1 723.15 893.2 719.65 898.2 714.05 902.85 710.7 906.5 713.15 913.2 716.7 923 719.65 925.2 724.2 928.6 735.15 925.2 745.6 921.95 753.55 918.1 755.3 917.2 768.15 910.2 775.05 906.45 780.8 898.45
L 785.15 891.2 760.15 883.2
Q 758.9 882.95 757.8 882.85 755.55 882.6 756.15 883.2 Z
M 785.75 1056.25
Q 779.3755859375 1058.0666015625 772 1060.1
L 777.15 1065.25 785.75 1056.25 Z"/>
</g>
</g>
</g>
</svg>
