
<svg xmlns="http://www.w3.org/2000/svg" version="1.1" xmlns:xlink="http://www.w3.org/1999/xlink" preserveAspectRatio="none" x="0px" y="0px" width="1920px" height="1080px" viewBox="0 0 1920 1080">
<defs/>

<g id="Layer_1">
<g>
<g>
<g>
<path fill="#56A2E5" stroke="none" d="
M 807.2 1070.2
Q 778.9 1070.2 704.8 1067.6 619.35 1064.55 579.15 1061.2 544.7 1058.35 360.1 1026.85 170.6 994.5 159.05 993.2 136.5 990.7 58.55 986.7 19.55 984.7 -14.95 983.2
L -15 1096.25 1930.45 1090.25 1928.45 1020.2
Q 1908.7 1018.2 1881.05 1015.85 1825.8 1011.1 1786.4 1009.2 1738.55 1006.95 1561.85 1020.35 1383.95 1033.8 1328.3 1044.2 1280.4 1053.15 1050.5 1062.45 971.8 1065.65 890.3 1068.1 821.2 1070.2 807.2 1070.2 Z"/>
</g>
</g>

<g>
<path stroke="#000000" stroke-opacity="0" stroke-width="1" stroke-linejoin="round" stroke-linecap="round" fill="none" d="
M -14.95 983.2
Q 19.55 984.7 58.55 986.7 136.5 990.7 159.05 993.2 170.6 994.5 360.1 1026.85 544.7 1058.35 579.15 1061.2 619.35 1064.55 704.8 1067.6 778.9 1070.2 807.2 1070.2 821.2 1070.2 890.3 1068.1 971.8 1065.65 1050.5 1062.45 1280.4 1053.15 1328.3 1044.2 1383.95 1033.8 1561.85 1020.35 1738.55 1006.95 1786.4 1009.2 1825.8 1011.1 1881.05 1015.85 1908.7 1018.2 1928.45 1020.2
L 1930.45 1090.25 -15 1096.25 -14.95 983.2 Z"/>
</g>
</g>
</g>
</svg>
