
<svg xmlns="http://www.w3.org/2000/svg" version="1.1" xmlns:xlink="http://www.w3.org/1999/xlink" preserveAspectRatio="none" x="0px" y="0px" width="1920px" height="1080px" viewBox="0 0 1920 1080">
<defs/>

<g id="Layer_1">
<g>
<g>
<g>
<path fill="#56A2E5" stroke="none" d="
M 1996.5 1256.3
L 1966.45 606.15
Q 1942.95 592.65 1911.45 577.15 1848.45 546.15 1808.45 536.15 1761.1 524.3 1634.15 507.15 1508.4 490.15 1470.35 490.15 1441.8 490.15 1330.35 507.65 1268.35 517.55 1238 522.2 1185.5 530.35 1154.3 534.15 1057.7 545.95 941.5 550.4 789.8 556.2 688.2 544.15 635.75 537.95 589.7 514.9 553.75 496.9 512.4 463.15 499.45 452.55 477.05 433 452.05 411.2 441.45 402.35 398.55 366.5 362.1 346.1 288.3 304.85 229.8 291.35 211.5 287.15 196.95 286.2
L 186.05 286.1
Q 136 294.9 40 291.35 -8 289.6 -46 286.1 -48.5 286.1 -64.5 732.15 -72.5 955.2 -80 1178.25
L 1996.5 1256.3 Z"/>
</g>
</g>

<g>
<path stroke="#000000" stroke-opacity="0" stroke-width="1" stroke-linejoin="round" stroke-linecap="round" fill="none" d="
M -46 286.1
Q -8 289.6 40 291.35 136 294.9 186.05 286.1
L 196.95 286.2
Q 211.5 287.15 229.8 291.35 288.3 304.85 362.1 346.1 398.55 366.5 441.45 402.35 452.05 411.2 477.05 433 499.45 452.55 512.4 463.15 553.75 496.9 589.7 514.9 635.75 537.95 688.2 544.15 789.8 556.2 941.5 550.4 1057.7 545.95 1154.3 534.15 1185.5 530.35 1238 522.2 1268.35 517.55 1330.35 507.65 1441.8 490.15 1470.35 490.15 1508.4 490.15 1634.15 507.15 1761.1 524.3 1808.45 536.15 1848.45 546.15 1911.45 577.15 1942.95 592.65 1966.45 606.15
L 1996.5 1256.3 -80 1178.25
Q -72.5 955.2 -64.5 732.15 -48.5 286.1 -46 286.1 Z"/>
</g>
</g>
</g>
</svg>
