
<svg xmlns="http://www.w3.org/2000/svg" version="1.1" xmlns:xlink="http://www.w3.org/1999/xlink" preserveAspectRatio="none" x="0px" y="0px" width="1920px" height="1080px" viewBox="0 0 1920 1080">
<defs/>

<g id="Layer_1">
<g>
<g>
<g>
<path fill="#56A2E5" stroke="none" d="
M 947.8 -8.3
Q 906.2 -5.95 905.95 -5.95
L 913.7 0.2
Q 923.05 7.8 931.2 15.3 957.15 39.3 960.9 53.05 962.35 58.4 967.1 71.25 972.15 84.95 974.55 93.05 983 121.95 979.9 148.05 978.3 161.45 972.55 181.85 969.2 193.75 961.65 218.4 955.2 240.4 952.6 254.75 949.2 274 950.9 288 952.75 303.05 960.35 316.35 967.65 329.1 979.3 338.4 990.85 347.65 1004.75 352 1019.15 356.5 1033.9 355 1065.05 351.9 1082.3 326.85 1100.65 300.2 1099.9 253 1099.6 232.1 1092.65 218 1090.2 213.05 1086.05 207.3 1081.45 201.05 1079.3 197.9 1071.6 186.65 1070.25 173.9 1068.4 156.45 1075.9 127.05 1091.35 66.55 1108.65 36.45 1122.8 11.7 1145.9 -3.95 1163.4 -15.8 1036.8 -12.05 997.35 -10.9 947.8 -8.3 Z"/>
</g>
</g>

<g>
<path stroke="#000000" stroke-opacity="0" stroke-width="1" stroke-linejoin="round" stroke-linecap="round" fill="none" d="
M 905.95 -5.95
L 913.7 0.2
Q 923.05 7.8 931.2 15.3 957.15 39.3 960.9 53.05 962.35 58.4 967.1 71.25 972.15 84.95 974.55 93.05 983 121.95 979.9 148.05 978.3 161.45 972.55 181.85 969.2 193.75 961.65 218.4 955.2 240.4 952.6 254.75 949.2 274 950.9 288 952.75 303.05 960.35 316.35 967.65 329.1 979.3 338.4 990.85 347.65 1004.75 352 1019.15 356.5 1033.9 355 1065.05 351.9 1082.3 326.85 1100.65 300.2 1099.9 253 1099.6 232.1 1092.65 218 1090.2 213.05 1086.05 207.3 1081.45 201.05 1079.3 197.9 1071.6 186.65 1070.25 173.9 1068.4 156.45 1075.9 127.05 1091.35 66.55 1108.65 36.45 1122.8 11.7 1145.9 -3.95 1163.4 -15.8 1036.8 -12.05 997.35 -10.9 947.8 -8.3 906.2 -5.95 905.95 -5.95 Z"/>
</g>
</g>
</g>
</svg>
