
<svg xmlns="http://www.w3.org/2000/svg" version="1.1" xmlns:xlink="http://www.w3.org/1999/xlink" preserveAspectRatio="none" x="0px" y="0px" width="1920px" height="1080px" viewBox="0 0 1920 1080">
<defs/>

<g id="Layer_1">
<g>
<g>
<g>
<path fill="#56A2E5" stroke="none" d="
M 2046.5 1216.3
Q 2028 1039.75 2005 861.5 1958.95 504.9 1936.45 496.15 1900.65 482.25 1838.7 466.65 1759.8 446.8 1694.4 440.15 1661.1 436.75 1578.3 440.3 1518.15 442.9 1409.1 450.4 1239.1 462.1 1235 462.35 1144.25 468.15 1104.25 468.15 975.65 468.15 905 460.15 791.25 447.25 734.2 410.15 678.5 373.9 493.4 293.85 427.15 265.25 355.85 236 297.45 212.05 266.1 200.05 219.9 182.35 178.35 185.55 160.55 186.9 139.2 192.15 125.05 195.65 98.05 204.05 61.8 215.3 16.3 238.85 -6.5 250.6 -22 260.1 -19.5 258.85 -37.5 729.45 -46.5 964.75 -56 1200.3
L 2046.5 1216.3 Z"/>
</g>
</g>

<g>
<path stroke="#000000" stroke-opacity="0" stroke-width="1" stroke-linejoin="round" stroke-linecap="round" fill="none" d="
M -22 260.1
Q -6.5 250.6 16.3 238.85 61.8 215.3 98.05 204.05 125.05 195.65 139.2 192.15 160.55 186.9 178.35 185.55 219.9 182.35 266.1 200.05 297.45 212.05 355.85 236 427.15 265.25 493.4 293.85 678.5 373.9 734.2 410.15 791.25 447.25 905 460.15 975.65 468.15 1104.25 468.15 1144.25 468.15 1235 462.35 1239.1 462.1 1409.1 450.4 1518.15 442.9 1578.3 440.3 1661.1 436.75 1694.4 440.15 1759.8 446.8 1838.7 466.65 1900.65 482.25 1936.45 496.15 1958.95 504.9 2005 861.5 2028 1039.75 2046.5 1216.3
L -56 1200.3
Q -46.5 964.75 -37.5 729.45 -19.5 258.85 -22 260.1 Z"/>
</g>
</g>
</g>
</svg>
