
<svg xmlns="http://www.w3.org/2000/svg" version="1.1" xmlns:xlink="http://www.w3.org/1999/xlink" preserveAspectRatio="none" x="0px" y="0px" width="1920px" height="1080px" viewBox="0 0 1920 1080">
<defs/>

<g id="Layer_1">
<g>
<g>
<g>
<path fill="#56A2E5" stroke="none" d="
M 1229.3 -9.7
Q 1233.9 -15.7 1236.9 -19.95
L 831.95 -5.95 864.95 25.45
Q 900.45 60.2 912.95 77.05 922.95 90.55 939.3 110.95 951.5 127.7 955.9 144.05 963.25 171.4 965.8 177.55 972 192.8 983.9 202.05 992.25 208.55 1004.4 213.3 1019.7 219.25 1034.05 219.2 1073.35 218.95 1090.9 174.05 1108.3 129.55 1120.05 113.8 1124.2 108.15 1131.8 100.65 1141.9 90.7 1146.9 85.05 1157.2 73.45 1183.55 43.2 1204.8 18.7 1211.9 11.05 1220.05 2.3 1229.3 -9.7 Z"/>
</g>
</g>

<g>
<path stroke="#000000" stroke-opacity="0" stroke-width="1" stroke-linejoin="round" stroke-linecap="round" fill="none" d="
M 831.95 -5.95
L 864.95 25.45
Q 900.45 60.2 912.95 77.05 922.95 90.55 939.3 110.95 951.5 127.7 955.9 144.05 963.25 171.4 965.8 177.55 972 192.8 983.9 202.05 992.25 208.55 1004.4 213.3 1019.7 219.25 1034.05 219.2 1073.35 218.95 1090.9 174.05 1108.3 129.55 1120.05 113.8 1124.2 108.15 1131.8 100.65 1141.9 90.7 1146.9 85.05 1157.2 73.45 1183.55 43.2 1204.8 18.7 1211.9 11.05 1220.05 2.3 1229.3 -9.7 1233.9 -15.7 1236.9 -19.95
L 831.95 -5.95 Z"/>
</g>
</g>
</g>
</svg>
