
<svg xmlns="http://www.w3.org/2000/svg" version="1.1" xmlns:xlink="http://www.w3.org/1999/xlink" preserveAspectRatio="none" x="0px" y="0px" width="1920px" height="1080px" viewBox="0 0 1920 1080">
<defs/>

<g id="Layer_1">
<g>
<g>
<g>
<path fill="#56A2E5" stroke="none" d="
M 1106.9 -8.95
Q 1061.9 -7.2 1016.7 -5.55 926.2 -2.3 924.95 -2.95
L 930.5 0.65
Q 937.3 5.3 943.3 10.7 962.55 27.95 966.9 46.05 970.4 60.55 979.05 95.05 985.9 125.65 985.9 144.05 985.9 164.75 979.15 223.95 972.7 280.4 967.9 306.05 966.05 315.95 963.1 324.95 961.55 329.9 958.9 337.4 957.05 343.45 956.95 348.9 956.8 355.5 958.9 365 961.05 374.7 968.6 385.4 975.55 395.3 985.55 403.9 995.25 412.25 1004.9 416.9 1014.95 421.75 1021.9 421 1026.65 420.5 1038.95 419.65 1050.7 418.65 1058.65 416.9 1082.15 411.7 1087.9 397 1094.45 380.25 1096.3 358.15 1098 337.15 1094.9 320.05 1087.9 284.3 1083.4 258.45 1074.9 209.55 1074.9 190.05 1074.9 166.1 1080.65 110.8 1086.5 54.4 1090.9 39.05 1094.65 25.95 1101.15 7.2 1104.4 -2.2 1106.9 -8.95 Z"/>
</g>
</g>

<g>
<path stroke="#000000" stroke-opacity="0" stroke-width="1" stroke-linejoin="round" stroke-linecap="round" fill="none" d="
M 924.95 -2.95
L 930.5 0.65
Q 937.3 5.3 943.3 10.7 962.55 27.95 966.9 46.05 970.4 60.55 979.05 95.05 985.9 125.65 985.9 144.05 985.9 164.75 979.15 223.95 972.7 280.4 967.9 306.05 966.05 315.95 963.1 324.95 961.55 329.9 958.9 337.4 957.05 343.45 956.95 348.9 956.8 355.5 958.9 365 961.05 374.7 968.6 385.4 975.55 395.3 985.55 403.9 995.25 412.25 1004.9 416.9 1014.95 421.75 1021.9 421 1026.65 420.5 1038.95 419.65 1050.7 418.65 1058.65 416.9 1082.15 411.7 1087.9 397 1094.45 380.25 1096.3 358.15 1098 337.15 1094.9 320.05 1087.9 284.3 1083.4 258.45 1074.9 209.55 1074.9 190.05 1074.9 166.1 1080.65 110.8 1086.5 54.4 1090.9 39.05 1094.65 25.95 1101.15 7.2 1104.4 -2.2 1106.9 -8.95 1061.9 -7.2 1016.7 -5.55 926.2 -2.3 924.95 -2.95 Z"/>
</g>
</g>
</g>
</svg>
