
<svg xmlns="http://www.w3.org/2000/svg" version="1.1" xmlns:xlink="http://www.w3.org/1999/xlink" preserveAspectRatio="none" x="0px" y="0px" width="1920px" height="1080px" viewBox="0 0 1920 1080">
<defs/>

<g id="Layer_1">
<g>
<g>
<g>
<path fill="#56A2E5" stroke="none" d="
M 1932.45 324.1
Q 1923.45 327.6 1905.45 328.35 1869.45 329.85 1824.4 316.1 1774.85 300.95 1689.9 294.1 1618.8 288.35 1552.4 290.1 1485.8 291.85 1442.4 294.6 1381.1 298.5 1290.35 308.1 1233.25 314.15 1195.75 315.25 1146.7 316.7 1100.8 311.35 1049.35 305.35 991.6 289.8 930.25 273.3 854.25 244.1 781.85 216.25 745.8 198.1 716.65 183.45 705.2 171.85 701.1 167.65 697.6 162.15 693.9 155.95 691.65 152.65 683.3 140.6 664.2 128.05 624.2 101.8 549.2 76.3 525.7 68.35 501.6 61.4
L 482.15 56.05 518.15 10.05
Q 512.65 8.55 502.4 8.55 481.9 8.55 458.15 16.05 435.9 23.45 421.1 28.15 393.75 36.85 371.65 42.3 306.2 58.45 264.1 52.05 243 48.85 218.45 42.85 191.1 35.7 178.1 32.3 155.05 26.35 139.2 23.65 117.9 20.05 98.05 20.05 61.8 20.05 1.3 42.05 -29 53.05 -52 64.05 -50.75 64.05 -73.25 632.15 -84.5 916.2 -96 1200.25
L 2008.45 1256.25 1932.45 324.1 Z"/>
</g>
</g>

<g>
<path stroke="#000000" stroke-opacity="0" stroke-width="1" stroke-linejoin="round" stroke-linecap="round" fill="none" d="
M -52 64.05
Q -29 53.05 1.3 42.05 61.8 20.05 98.05 20.05 117.9 20.05 139.2 23.65 155.05 26.35 178.1 32.3 191.1 35.7 218.45 42.85 243 48.85 264.1 52.05 306.2 58.45 371.65 42.3 393.75 36.85 421.1 28.15 435.9 23.45 458.15 16.05 481.9 8.55 502.4 8.55 512.65 8.55 518.15 10.05
L 482.15 56.05 501.6 61.4
Q 525.7 68.35 549.2 76.3 624.2 101.8 664.2 128.05 683.3 140.6 691.65 152.65 693.9 155.95 697.6 162.15 701.1 167.65 705.2 171.85 716.65 183.45 745.8 198.1 781.85 216.25 854.25 244.1 930.25 273.3 991.6 289.8 1049.35 305.35 1100.8 311.35 1146.7 316.7 1195.75 315.25 1233.25 314.15 1290.35 308.1 1381.1 298.5 1442.4 294.6 1485.8 291.85 1552.4 290.1 1618.8 288.35 1689.9 294.1 1774.85 300.95 1824.4 316.1 1869.45 329.85 1905.45 328.35 1923.45 327.6 1932.45 324.1
L 2008.45 1256.25 -96 1200.25
Q -84.5 916.2 -73.25 632.15 -50.75 64.05 -52 64.05 Z"/>
</g>
</g>
</g>
</svg>
