
<svg xmlns="http://www.w3.org/2000/svg" version="1.1" xmlns:xlink="http://www.w3.org/1999/xlink" preserveAspectRatio="none" x="0px" y="0px" width="1920px" height="1080px" viewBox="0 0 1920 1080">
<defs/>

<g id="Layer_1">
<g>
<g>
<g>
<path fill="#56A2E5" stroke="none" d="
M 1066.25 879.15
Q 930.3 893.6 796.7 874.05 707.3 860.95 632.2 835.15 588.9 820.3 525.2 822.8 502.45 823.65 475.5 826.85 466.25 827.95 436.15 832.15 412.3 835.5 319.9 837.4 217.55 839.55 196.1 841.15 163 843.65 72.2 835.65 26.8 831.65 -11.95 827.15
L -26 1099.25 1945.45 1092.25 1927.45 860.15
Q 1925.95 861.9 1910.55 859.4 1879.8 854.4 1810.4 833.15 1735.95 810.35 1614.15 798.4 1566.6 793.75 1524.35 792.1 1485.25 790.55 1467.35 792.15 1453.85 793.35 1414.8 804.35 1361.95 819.65 1327.55 828.9 1189.4 866.05 1066.25 879.15 Z"/>
</g>
</g>

<g>
<path stroke="#000000" stroke-opacity="0" stroke-width="1" stroke-linejoin="round" stroke-linecap="round" fill="none" d="
M -11.95 827.15
Q 26.8 831.65 72.2 835.65 163 843.65 196.1 841.15 217.55 839.55 319.9 837.4 412.3 835.5 436.15 832.15 466.25 827.95 475.5 826.85 502.45 823.65 525.2 822.8 588.9 820.3 632.2 835.15 707.3 860.95 796.7 874.05 930.3 893.6 1066.25 879.15 1189.4 866.05 1327.55 828.9 1361.95 819.65 1414.8 804.35 1453.85 793.35 1467.35 792.15 1485.25 790.55 1524.35 792.1 1566.6 793.75 1614.15 798.4 1735.95 810.35 1810.4 833.15 1879.8 854.4 1910.55 859.4 1925.95 861.9 1927.45 860.15
L 1945.45 1092.25 -26 1099.25 -11.95 827.15 Z"/>
</g>
</g>
</g>
</svg>
