
<svg xmlns="http://www.w3.org/2000/svg" version="1.1" xmlns:xlink="http://www.w3.org/1999/xlink" preserveAspectRatio="none" x="0px" y="0px" width="1920px" height="1080px" viewBox="0 0 1920 1080">
<defs/>

<g id="Layer_1">
<g>
<g>
<g>
<path fill="#56A2E5" stroke="none" d="
M 1244.45 973.2
Q 1133 989.7 1095.95 994.6 1015.9 1005.25 971.25 1007.2 888.35 1010.85 646.7 986.45 592.55 981 477 968.4 393.5 959.3 376.15 958.2 325.15 955 219.75 957.85 109.85 960.75 79.05 967.2 52.2 972.85 3.95 969.1 -20.2 967.2 -38.95 964.2 -37.75 964.2 -42.25 1031.25 -44.5 1064.75 -47 1098.25
L 1850.45 1111.25 1944.45 1088.25
Q 1943.7 1065.75 1940.95 1042.1 1935.45 994.85 1925.45 989.2 1915 983.35 1731.3 967.6 1589.95 955.45 1482.35 948.2 1452.3 946.2 1384.05 954.05 1337.8 959.4 1244.45 973.2 Z"/>
</g>
</g>

<g>
<path stroke="#000000" stroke-opacity="0" stroke-width="1" stroke-linejoin="round" stroke-linecap="round" fill="none" d="
M -38.95 964.2
Q -20.2 967.2 3.95 969.1 52.2 972.85 79.05 967.2 109.85 960.75 219.75 957.85 325.15 955 376.15 958.2 393.5 959.3 477 968.4 592.55 981 646.7 986.45 888.35 1010.85 971.25 1007.2 1015.9 1005.25 1095.95 994.6 1133 989.7 1244.45 973.2 1337.8 959.4 1384.05 954.05 1452.3 946.2 1482.35 948.2 1589.95 955.45 1731.3 967.6 1915 983.35 1925.45 989.2 1935.45 994.85 1940.95 1042.1 1943.7 1065.75 1944.45 1088.25
L 1850.45 1111.25 -47 1098.25
Q -44.5 1064.75 -42.25 1031.25 -37.75 964.2 -38.95 964.2 Z"/>
</g>
</g>
</g>
</svg>
