
<svg xmlns="http://www.w3.org/2000/svg" version="1.1" xmlns:xlink="http://www.w3.org/1999/xlink" preserveAspectRatio="none" x="0px" y="0px" width="1920px" height="1080px" viewBox="0 0 1920 1080">
<defs/>

<g id="Layer_1">
<g>
<g>
<g>
<path fill="#56A2E5" stroke="none" d="
M 1005.65 785.7
Q 1001.9548828125 745.89296875 999.45 719.75 994.67890625 669.5552734375 994.35 669.95
L 983.8 798.75
Q 972.45 934.45 968.4 968.85 963.65 1009.3 962.6 1042 961.6 1073.35 964.05 1095 966.55 1116.35 976.2 1129.45 986.15 1142.85 1002.95 1146.45 1024.7 1151.15 1042.85 1148.6 1066 1145.35 1068.9 1130.5 1071.34765625 1117.93828125 1057.2 1061.05 1056.032421875 1056.3541015625 1054.75 1051.35 1033.8 974.4 1026.75 945.6 1018.2 910.65 1005.65 785.7
M 1268.55 -1.7
Q 1281.65 -5.2 1292.9 -7.95
L 710.95 -10.95 759.7 1.45
Q 808.7 13.7 809.95 13.05 830.85 14.6 898.95 24.45 968.05 34.4 981.9 38.05 995.15 41.55 1047.8 39.45 1097.7 37.45 1112.9 34.05 1121.9 32.05 1174.05 22.3 1223.85 12.7 1232.9 9.05 1242.3 5.3 1268.55 -1.7 Z"/>
</g>
</g>

<g>
<path stroke="#000000" stroke-opacity="0" stroke-width="1" stroke-linejoin="round" stroke-linecap="round" fill="none" d="
M 809.95 13.05
Q 830.85 14.6 898.95 24.45 968.05 34.4 981.9 38.05 995.15 41.55 1047.8 39.45 1097.7 37.45 1112.9 34.05 1121.9 32.05 1174.05 22.3 1223.85 12.7 1232.9 9.05 1242.3 5.3 1268.55 -1.7 1281.65 -5.2 1292.9 -7.95
L 710.95 -10.95 759.7 1.45
Q 808.7 13.7 809.95 13.05 Z
M 1057.2 1061.05
Q 1070.785546875 1057.376171875 1072.9 1047.9 1075.35 1036.8 1059.8 983.3 1040.4 920.45 1033.9 896.95 1026 868.45 1014.4 766.45 1004.4 671.45 1003.9 671.95
L 999.475 719.775"/>
</g>
</g>
</g>
</svg>
