
<svg xmlns="http://www.w3.org/2000/svg" version="1.1" xmlns:xlink="http://www.w3.org/1999/xlink" preserveAspectRatio="none" x="0px" y="0px" width="1920px" height="1080px" viewBox="0 0 1920 1080">
<defs/>

<g id="Layer_1">
<g>
<g>
<g>
<path fill="#56A2E5" stroke="none" d="
M 722.5 906.4
Q 720.6732421875 906.2396484375 718.8 906.1 702.55 904.85 698.15 909.2 693.85 913.5 692.9 920.95 692.4248046875 924.75234375 692.15 930.6 692.1623046875 930.891015625 692.15 931.2 691.25 935.6 696.3 937.2 701.9 939 710.15 934.2 716.75 930.35 720.05 925.1 723.25 919.85 726.15 918.2 730.45 915.75 732.8 911.35 733.85 908.5 734.1 908.2 728.537109375 907.0490234375 722.5 906.4
M 1312.25 897.8
Q 1311.8087890625 897.5037109375 1311.3 897.2 1305.05 893.45 1290.05 890.45
L 1276.3 888.2 1251.3 902.2
Q 1250.7375 902.8427734375 1250.2 903.45 1249.06796875 904.8427734375 1248.05 906.2 1245.05 910.2 1246.3 910.2
L 1254.55 916.7
Q 1264.05 923.2 1270.3 923.2 1276.75 923.2 1286.8 919.35 1292.3 917.2 1300.3 913.2 1308.9 908.9 1311.8 906.35 1317.2806640625 901.46796875 1312.25 897.8
M 1439.7 1072.2
Q 1391.25 1065.2 1301.3 1045.2 1264.05 1036.95 1205.45 1022.85 1142.75 1007.8 1121.4 1002.95 1034.15 983.2 993.2 983.2 969.5 983.2 949.1 986.35 930.95 989.1 909.05 995.45 895.95 999.25 862.85 1010.2 826.05 1022.35 800.2 1030.2 738.35 1048.95 641.55 1070.5 611.2 1077.2 581.15 1083.4
L 557.15 1088.25
Q 562.2046875 1087.6611328125 1055.1 1088.9 1303.8 1089.5 1552.35 1090.25 1550.1 1087.75 1543.1 1085 1529.1 1079.5 1505.35 1078.2 1467.1 1076.15 1439.7 1072.2 Z"/>
</g>
</g>

<g>
<path stroke="#000000" stroke-opacity="0" stroke-width="1" stroke-linejoin="round" stroke-linecap="round" fill="none" d="
M 1312.25 897.825
Q 1312.542578125 897.5763671875 1312.8 897.35 1318.75 892.05 1312.3 888.2 1306.05 884.45 1291.05 881.45
L 1277.3 879.2 1252.3 893.2
Q 1250.55 895.2 1249.05 897.2 1246.05 901.2 1247.3 901.2
L 1250.2 903.475
M 581.15 1083.4
Q 611.2 1077.2 641.55 1070.5 738.35 1048.95 800.2 1030.2 826.05 1022.35 862.85 1010.2 895.95 999.25 909.05 995.45 930.95 989.1 949.1 986.35 969.5 983.2 993.2 983.2 1034.15 983.2 1121.4 1002.95 1142.75 1007.8 1205.45 1022.85 1264.05 1036.95 1301.3 1045.2 1391.25 1065.2 1439.7 1072.2 1467.1 1076.15 1505.35 1078.2 1529.1 1079.5 1543.1 1085 1550.1 1087.75 1552.35 1090.25 1303.8 1089.5 1055.1 1088.9 562.2046875 1087.6611328125 557.15 1088.25
L 581.15 1083.4 Z
M 722.5 906.425
Q 723.2125 905.45 723.8 904.35 724.8455078125 901.5232421875 725.075 901.175 717.86171875 899.697265625 709.8 899.1 693.55 897.85 689.15 902.2 684.85 906.5 683.9 913.95 683.4 917.95 683.15 924.2 682.25 928.6 687.3 930.2 689.5279296875 930.9162109375 692.175 930.6"/>
</g>
</g>
</g>
</svg>
