
<svg xmlns="http://www.w3.org/2000/svg" version="1.1" xmlns:xlink="http://www.w3.org/1999/xlink" preserveAspectRatio="none" x="0px" y="0px" width="1920px" height="1080px" viewBox="0 0 1920 1080">
<defs/>

<g id="Layer_1">
<g>
<g>
<g>
<path fill="#56A2E5" stroke="none" d="
M 1927.45 852.15
Q 1891.95 849.9 1848.8 847.3 1762.55 842.05 1724.4 840.15 1659.7 836.95 1596.25 839.05 1506.55 841.95 1452.35 855.15 1423.05 862.3 1341.7 870.65 1267.85 878.2 1175.05 884.45 1083.55 890.55 1015.45 892.6 942.05 894.8 926.2 891.2 904.3 886.25 831.65 875.05 764.25 864.65 752.15 861.15 739.4 857.45 668.75 851.55 588.45 844.8 565.1 841.15 529.7 835.6 346.7 848 272.7 853 206.9 859 140.05 865.05 114.05 869.15 70.3 876.05 25.3 885.3 2.75 889.95 -11 893.2
L -24 1100.25 1931.45 1104.25 1927.45 852.15 Z"/>
</g>
</g>

<g>
<path stroke="#000000" stroke-opacity="0" stroke-width="1" stroke-linejoin="round" stroke-linecap="round" fill="none" d="
M 1927.45 852.15
Q 1891.95 849.9 1848.8 847.3 1762.55 842.05 1724.4 840.15 1659.7 836.95 1596.25 839.05 1506.55 841.95 1452.35 855.15 1423.05 862.3 1341.7 870.65 1267.85 878.2 1175.05 884.45 1083.55 890.55 1015.45 892.6 942.05 894.8 926.2 891.2 904.3 886.25 831.65 875.05 764.25 864.65 752.15 861.15 739.4 857.45 668.75 851.55 588.45 844.8 565.1 841.15 529.7 835.6 346.7 848 272.7 853 206.9 859 140.05 865.05 114.05 869.15 70.3 876.05 25.3 885.3 2.75 889.95 -11 893.2
L -24 1100.25 1931.45 1104.25 1927.45 852.15 Z"/>
</g>
</g>
</g>
</svg>
