
<svg xmlns="http://www.w3.org/2000/svg" version="1.1" xmlns:xlink="http://www.w3.org/1999/xlink" preserveAspectRatio="none" x="0px" y="0px" width="1920px" height="1080px" viewBox="0 0 1920 1080">
<defs/>

<g id="Layer_1">
<g>
<g>
<g>
<path fill="#56A2E5" stroke="none" d="
M 739.95 1016.45
Q 719.5 1013.95 691.45 1009.5 660.4 1004.45 646.15 1002.2 608.55 996.25 383 993.6 299.15 992.6 224.6 992.5 153.2 992.4 143.05 993.2 126.8 994.45 54.8 991.45 18.75 989.95 -14 988.2 -13.35 988.85 -32.6 1035.6 -42.25 1058.95 -52 1082.2
L 1972.45 1101.25 1942.45 1026.2
Q 1915.45 1018.95 1879.3 1010.45 1807.05 993.45 1761.4 987.2 1733.7 983.4 1684.75 981.05 1634.85 978.65 1578.85 978.6 1445.05 978.35 1366.3 990.2 1298.5 1000.4 1080.5 1009.7 1060.5 1010.55 927.2 1015.8 852.6 1018.75 835.2 1020.2 797.1 1023.45 739.95 1016.45 Z"/>
</g>
</g>

<g>
<path stroke="#000000" stroke-opacity="0" stroke-width="1" stroke-linejoin="round" stroke-linecap="round" fill="none" d="
M -14 988.2
Q 18.75 989.95 54.8 991.45 126.8 994.45 143.05 993.2 153.2 992.4 224.6 992.5 299.15 992.6 383 993.6 608.55 996.25 646.15 1002.2 660.4 1004.45 691.45 1009.5 719.5 1013.95 739.95 1016.45 797.1 1023.45 835.2 1020.2 852.6 1018.75 927.2 1015.8 1060.5 1010.55 1080.5 1009.7 1298.5 1000.4 1366.3 990.2 1445.05 978.35 1578.85 978.6 1634.85 978.65 1684.75 981.05 1733.7 983.4 1761.4 987.2 1807.05 993.45 1879.3 1010.45 1915.45 1018.95 1942.45 1026.2
L 1972.45 1101.25 -52 1082.2
Q -42.25 1058.95 -32.6 1035.6 -13.35 988.85 -14 988.2 Z"/>
</g>
</g>
</g>
</svg>
