
<svg xmlns="http://www.w3.org/2000/svg" version="1.1" xmlns:xlink="http://www.w3.org/1999/xlink" preserveAspectRatio="none" x="0px" y="0px" width="1920px" height="1080px" viewBox="0 0 1920 1080">
<defs/>

<g id="Layer_1">
<g>
<g>
<g>
<path fill="#56A2E5" stroke="none" d="
M 922.25 -6.5
L 879.55 -5.2
Q 891.379296875 -1.5294921875 902.45 4.2 938.9 22.95 953.9 56.05 972.65 97.45 988.65 155.05 1005.45 215.55 1006.9 251.05 1007.55 267.55 1002.2 288.95 998.65 302.95 989.4 329.25 978.95 359 975.1 372.2 967.9 397.2 965.9 417.95 960.8 471.75 969.05 505.4 979.1 546.5 1008.9 556.9 1038.5 567.2 1061.55 559.9 1080.9 553.75 1087.9 538.9 1095.95 521.75 1099.9 494.8 1104.9 460.6 1096.9 437.95 1095.2 433.1 1083.55 404.95 1072.75 378.75 1066.05 358.6 1044.25 293.3 1044.9 234.95 1045.55 173.35 1061.9 125.9 1072 96.5 1093.9 61.05 1107.4 39.2 1134.4 20.3 1143.85 13.7 1156.35 6.5 1163.3 2.5 1174.9 -3.95 1188 -11.45 1031.3 -8.95 982.35 -8.15 922.25 -6.5 Z"/>
</g>
</g>

<g>
<path stroke="#000000" stroke-opacity="0" stroke-width="1" stroke-linejoin="round" stroke-linecap="round" fill="none" d="
M 868.95 -7.95
L 878.85 -5.4
Q 879.20234375 -5.2931640625 879.55 -5.175
L 922.25 -6.5
Q 982.35 -8.15 1031.3 -8.95 1188 -11.45 1174.9 -3.95 1163.3 2.5 1156.35 6.5 1143.85 13.7 1134.4 20.3 1107.4 39.2 1093.9 61.05 1072 96.5 1061.9 125.9 1045.55 173.35 1044.9 234.95 1044.25 293.3 1066.05 358.6 1072.75 378.75 1083.55 404.95 1095.2 433.1 1096.9 437.95 1104.9 460.6 1099.9 494.8 1095.95 521.75 1087.9 538.9 1080.9 553.75 1061.55 559.9 1038.5 567.2 1008.9 556.9 979.1 546.5 969.05 505.4 960.8 471.75 965.9 417.95 967.9 397.2 975.1 372.2 978.95 359 989.4 329.25 998.65 302.95 1002.2 288.95 1007.55 267.55 1006.9 251.05 1005.45 215.55 988.65 155.05 972.65 97.45 953.9 56.05 938.9 22.95 902.45 4.2 891.379296875 -1.5294921875 879.55 -5.175
L 871.95 -4.95 863.95 -7.95"/>
</g>
</g>
</g>
</svg>
