
<svg xmlns="http://www.w3.org/2000/svg" version="1.1" xmlns:xlink="http://www.w3.org/1999/xlink" preserveAspectRatio="none" x="0px" y="0px" width="1920px" height="1080px" viewBox="0 0 1920 1080">
<defs/>

<g id="Layer_1">
<g>
<g>
<g>
<path fill="#56A2E5" stroke="none" d="
M 1881.45 1086.25
Q 1856.2 1081.45 1695.05 1070.75 1528.85 1060.2 1506.35 1058.2 1488.105078125 1056.5912109375 1359.9 1052.85 1357.787890625 1049.9275390625 1357.05 1044.9 1356.55 1038.85 1356.05 1035.9 1355.85 1034.45 1355.25 1033.8 1354.8 1033.35 1354.2 1033.3 1353.6 1033.25 1353.25 1033.7 1352.9 1034.15 1352.9 1035.05
L 1352.95 1039.45
Q 1352.6 1039.4 1352.3 1039.7 1352 1039.95 1351.9 1040.35 1351.85 1040.75 1352.05 1041.85 1352.55 1044.3 1351.65 1047.25 1351.1 1049.15 1349.45 1052.45 1349.4203125 1052.5076171875 1349.4 1052.55 1305.9818359375 1051.3216796875 1250.8 1049.85 1010.65 1043.4 989.2 1042.2 953.95 1040.2 791.4 1045.45 706.968359375 1048.1830078125 655.35 1050.35 653.4955078125 1042.7494140625 654 1034.75 654.1 1033.3 653.9 1032.6 653.45 1031.3 652.35 1031.3 652.85 1030.85 652.5 1030.15 652.2 1029.45 651.55 1029.35 650.9 1029.3 650.35 1029.75 649.85 1030.15 649.6 1030.8 649.35 1031.35 649.25 1033.4 649.15 1036.55 647.4 1041.95 646.6 1044.4 646.2 1045.45 645.4 1047.4 644.35 1048.6 643.45 1049.7 642.05 1050.75 641.94296875 1050.825 641.75 1050.95 614.399609375 1052.1685546875 598.15 1053.2 576.05 1054.6 461.25 1059.7 350.1 1064.65 328.1 1066.2 310.65 1067.45 181.4 1077.95 116.75 1083.15 55.6 1088.1 165.65 1087.5 345.9 1087.8 520.55 1088.1 983.85 1089.15 1905.7 1090.85 1881.45 1086.25
M 1355.9 1051.95
Q 1356.1595703125 1052.3912109375 1356.4 1052.75 1356.13515625 1052.759375 1355.85 1052.75 1355.783984375 1052.269140625 1355.9 1051.95 Z"/>
</g>
</g>

<g>
<path stroke="#000000" stroke-opacity="0" stroke-width="1" stroke-linejoin="round" stroke-linecap="round" fill="none" d="
M 1359.9 1052.875
Q 1488.105078125 1056.5912109375 1506.35 1058.2 1528.85 1060.2 1695.05 1070.75 1856.2 1081.45 1881.45 1086.25 1905.7 1090.85 983.85 1089.15 520.55 1088.1 345.9 1087.8 165.65 1087.5 55.6 1088.125
L 54 1088.25
M 1355.85 1052.75
Q 1356.13515625 1052.759375 1356.425 1052.775
M 55.6 1088.125
Q 116.75 1083.15 181.4 1077.95 310.65 1067.45 328.1 1066.2 350.1 1064.65 461.25 1059.7 576.05 1054.6 598.15 1053.2 614.399609375 1052.1685546875 641.75 1050.95
M 655.375 1050.35
Q 706.968359375 1048.1830078125 791.4 1045.45 953.95 1040.2 989.2 1042.2 1010.65 1043.4 1250.8 1049.85 1305.9818359375 1051.3216796875 1349.4 1052.575"/>
</g>
</g>
</g>
</svg>
