
<svg xmlns="http://www.w3.org/2000/svg" version="1.1" xmlns:xlink="http://www.w3.org/1999/xlink" preserveAspectRatio="none" x="0px" y="0px" width="1920px" height="1080px" viewBox="0 0 1920 1080">
<defs/>

<g id="Layer_1">
<g>
<g>
<g>
<path fill="#56A2E5" stroke="none" d="
M 1214.3 880.2
Q 1206.2 873.35 1201.4 873.6 1199.9 873.65 1198.95 874.45
L 1198.25 875.2 1161.25 896.2
Q 1161.25 896.85 1165.25 898.1 1167.25 898.7 1169.25 899.2
L 1182.4 901.7
Q 1196.15 904.7 1199.25 907.2 1202.4 909.7 1212.65 909.2 1217.8 908.95 1222.3 908.2 1223.55 903.95 1223.2 898.35 1222.45 887.1 1214.3 880.2
M 828.45 888.25
Q 820.7 885.15 817.45 884.1 802.4 879.15 790.15 882.2 783.1 883.95 775.65 889.6 769.05 894.65 764.15 901.1 759.4 907.3 758.65 911.6 757.85 916.2 762.15 916.2 766.1 916.2 770.8 914.35 772.65 913.6 779.45 910.2 791.45 904.2 801.2 904.2 810.2 904.2 820.2 904.85 826.4 904.65 830.2 900.2 834.2 895.55 836.35 892.7 838.2 890.2 837.2 891.2 834.45 890.65 828.45 888.25
M 1185.3 1031.25
Q 1187.5 1032.15 1190.05 1038.25 1192.5 1044.15 1196.3 1045.25 1200.7 1046.5 1205.45 1043 1207.8 1041.25 1209.3 1039.25 1209.8 1037.25 1208.95 1034.5 1207.2 1029 1200.3 1025.25 1193.45 1021.5 1180.2 1020.5
L 1168.3 1020.25
Q 1166.8 1020.25 1174.2 1025 1181.5 1029.75 1185.3 1031.25
M 777.2 1056.25
L 801.2 1049.25 806.2 1036.25
Q 808.7 1034.75 811.1 1033.15 815.85 1029.9 815.2 1029.25
L 780.2 1034.25 775.7 1039.5
Q 770.7 1045.5 768.2 1049.25 765.7 1053 771.2 1055 773.95 1056 777.2 1056.25
M 1011.25 973.2
Q 999 963.7 984.25 965.1 974.2 966 954.2 974.2 940.95 979.6 925.95 995.45 921.45 1000.2 911.45 1011.35 901.6 1022.1 893.2 1030.2 875.7 1047.1 808.2 1067.85 787.05 1074.35 763.5 1080.45
L 744.2 1085.2
Q 747.291015625 1084.76015625 869.95 1091.9 932.2 1095.5 994.2 1099.25
L 1116.9 1092.65
Q 1237.15 1085.9 1225.3 1085.25 1205.3 1084.2 1160.4 1075.6 1107.45 1065.45 1090.25 1056.2 1075.45 1048.25 1047.75 1014.7 1033.75 997.45 1027.55 990.1 1017 977.7 1011.25 973.2 Z"/>
</g>
</g>

<g>
<path stroke="#000000" stroke-opacity="0" stroke-width="1" stroke-linejoin="round" stroke-linecap="round" fill="none" d="
M 1161.25 896.2
L 1198.25 875.2 1198.95 874.45
Q 1199.9 873.65 1201.4 873.6 1206.2 873.35 1214.3 880.2 1222.45 887.1 1223.2 898.35 1223.55 903.95 1222.3 908.2 1217.8 908.95 1212.65 909.2 1202.4 909.7 1199.25 907.2 1196.15 904.7 1182.4 901.7
L 1169.25 899.2
Q 1167.25 898.7 1165.25 898.1 1161.25 896.85 1161.25 896.2 Z
M 763.5 1080.45
Q 787.05 1074.35 808.2 1067.85 875.7 1047.1 893.2 1030.2 901.6 1022.1 911.45 1011.35 921.45 1000.2 925.95 995.45 940.95 979.6 954.2 974.2 974.2 966 984.25 965.1 999 963.7 1011.25 973.2 1017 977.7 1027.55 990.1 1033.75 997.45 1047.75 1014.7 1075.45 1048.25 1090.25 1056.2 1107.45 1065.45 1160.4 1075.6 1205.3 1084.2 1225.3 1085.25 1237.15 1085.9 1116.9 1092.65
L 994.2 1099.25
Q 932.2 1095.5 869.95 1091.9 747.291015625 1084.76015625 744.225 1085.225
L 763.5 1080.45 Z
M 1168.3 1020.25
L 1180.2 1020.5
Q 1193.45 1021.5 1200.3 1025.25 1207.2 1029 1208.95 1034.5 1209.8 1037.25 1209.3 1039.25 1207.8 1041.25 1205.45 1043 1200.7 1046.5 1196.3 1045.25 1192.5 1044.15 1190.05 1038.25 1187.5 1032.15 1185.3 1031.25 1181.5 1029.75 1174.2 1025 1166.8 1020.25 1168.3 1020.25 Z
M 837.2 891.2
Q 834.45 890.65 828.45 888.25 820.7 885.15 817.45 884.1 802.4 879.15 790.15 882.2 783.1 883.95 775.65 889.6 769.05 894.65 764.15 901.1 759.4 907.3 758.65 911.6 757.85 916.2 762.15 916.2 766.1 916.2 770.8 914.35 772.65 913.6 779.45 910.2 791.45 904.2 801.2 904.2 810.2 904.2 820.2 904.85 826.4 904.65 830.2 900.2 834.2 895.55 836.35 892.7 838.2 890.2 837.2 891.2 Z
M 815.2 1029.25
L 780.2 1034.25 775.7 1039.5
Q 770.7 1045.5 768.2 1049.25 765.7 1053 771.2 1055 773.95 1056 777.2 1056.25
L 801.2 1049.25 806.2 1036.25
Q 808.7 1034.75 811.1 1033.15 815.85 1029.9 815.2 1029.25 Z"/>
</g>
</g>
</g>
</svg>
