
<svg xmlns="http://www.w3.org/2000/svg" version="1.1" xmlns:xlink="http://www.w3.org/1999/xlink" preserveAspectRatio="none" x="0px" y="0px" width="1920px" height="1080px" viewBox="0 0 1920 1080">
<defs/>

<g id="Layer_1">
<g>
<g>
<g>
<path fill="#56A2E5" stroke="none" d="
M 1956.45 1180.25
L 1968.45 428.1
Q 1945.45 419.1 1914.2 408.85 1851.7 388.35 1810.4 382.1 1784.6 378.2 1734.25 373.7 1681 368.95 1625.9 365.85 1485.6 358 1438.4 366.1 1413.5 370.35 1337.3 368.7 1269.05 367.2 1174.1 361.35 1084.5 355.85 1001.5 348.4 916.7 340.75 872.25 334.1 829.1 327.65 776.05 311.2 727.4 296.1 678.7 275.35 632.1 255.4 597.1 235.35 561.55 214.9 548.15 200.05 527.2 176.85 514.15 141.55 508.4 124.95 505.95 118.5 501.95 107.85 498.15 104.05 493.7 99.6 478 96.75 462.65 93.95 441.9 93.55 420.1 93.15 399.4 95.6 376.55 98.35 360.1 104.05 345.15 109.25 311.9 111.55 305.5 112 246.1 114.55 203.05 116.4 177.25 119.8 141.05 124.55 120.05 134.05 81.25 151.55 15.8 156.55 -16.95 159.05 -41.95 158.05 -44.5 160.55 -71.5 683.65 -85 945.2 -98 1206.25
L 1956.45 1180.25 Z"/>
</g>
</g>

<g>
<path stroke="#000000" stroke-opacity="0" stroke-width="1" stroke-linejoin="round" stroke-linecap="round" fill="none" d="
M -41.95 158.05
Q -16.95 159.05 15.8 156.55 81.25 151.55 120.05 134.05 141.05 124.55 177.25 119.8 203.05 116.4 246.1 114.55 305.5 112 311.9 111.55 345.15 109.25 360.1 104.05 376.55 98.35 399.4 95.6 420.1 93.15 441.9 93.55 462.65 93.95 478 96.75 493.7 99.6 498.15 104.05 501.95 107.85 505.95 118.5 508.4 124.95 514.15 141.55 527.2 176.85 548.15 200.05 561.55 214.9 597.1 235.35 632.1 255.4 678.7 275.35 727.4 296.1 776.05 311.2 829.1 327.65 872.25 334.1 916.7 340.75 1001.5 348.4 1084.5 355.85 1174.1 361.35 1269.05 367.2 1337.3 368.7 1413.5 370.35 1438.4 366.1 1485.6 358 1625.9 365.85 1681 368.95 1734.25 373.7 1784.6 378.2 1810.4 382.1 1851.7 388.35 1914.2 408.85 1945.45 419.1 1968.45 428.1
L 1956.45 1180.25 -98 1206.25
Q -85 945.2 -71.5 683.65 -44.5 160.55 -41.95 158.05 Z"/>
</g>
</g>
</g>
</svg>
