
<svg xmlns="http://www.w3.org/2000/svg" version="1.1" xmlns:xlink="http://www.w3.org/1999/xlink" preserveAspectRatio="none" x="0px" y="0px" width="1920px" height="1080px" viewBox="0 0 1920 1080">
<defs/>

<g id="Layer_1">
<g>
<g>
<g>
<path fill="#56A2E5" stroke="none" d="
M 1573.75 774.05
Q 1526.3 773.95 1479.9 775 1437 775.95 1423.3 777.15 1397.9 779.4 1318.05 792.4 1238.35 805.4 1208.25 812.15 1132.45 829.2 1132.15 829.3 1080.95 840.35 1052.25 844.15 1025.75 847.85 1008.35 850.25 975.85 854.7 951.6 857.55 878.5 866.05 844.2 864.15 816.4 862.6 677.45 837.3 606.45 824.35 580.1 819.85 532.8 811.8 518.15 811.15 504 810.5 474.7 811.95 436.7 814.15 414.5 815.4 325.4 820.4 268.1 818.15 204.95 815.65 90.7 777.15 33.55 757.9 -10.95 739.15 -10.35 738.55 -27.1 915.35 -35.5 1003.75 -44 1092.25
L 1939.45 1105.25 1947.45 873.15
Q 1942.95 865.65 1933.1 857.3 1913.35 840.55 1886.45 836.15 1859.4 831.75 1801.2 811.05 1739.9 788.15 1723.4 782.15 1701.7 774.25 1573.75 774.05 Z"/>
</g>
</g>

<g>
<path stroke="#000000" stroke-opacity="0" stroke-width="1" stroke-linejoin="round" stroke-linecap="round" fill="none" d="
M -10.95 739.15
Q 33.55 757.9 90.7 777.15 204.95 815.65 268.1 818.15 325.4 820.4 414.5 815.4 436.7 814.15 474.7 811.95 504 810.5 518.15 811.15 532.8 811.8 580.1 819.85 606.45 824.35 677.45 837.3 816.4 862.6 844.2 864.15 878.5 866.05 951.6 857.55 975.85 854.7 1008.35 850.25 1025.75 847.85 1052.25 844.15 1080.95 840.35 1132.15 829.3 1132.45 829.2 1208.25 812.15 1238.35 805.4 1318.05 792.4 1397.9 779.4 1423.3 777.15 1437 775.95 1479.9 775 1526.3 773.95 1573.75 774.05 1701.7 774.25 1723.4 782.15 1739.9 788.15 1801.2 811.05 1859.4 831.75 1886.45 836.15 1913.35 840.55 1933.1 857.3 1942.95 865.65 1947.45 873.15
L 1939.45 1105.25 -44 1092.25
Q -35.5 1003.75 -27.1 915.35 -10.35 738.55 -10.95 739.15 Z"/>
</g>
</g>
</g>
</svg>
