
<svg xmlns="http://www.w3.org/2000/svg" version="1.1" xmlns:xlink="http://www.w3.org/1999/xlink" preserveAspectRatio="none" x="0px" y="0px" width="1920px" height="1080px" viewBox="0 0 1920 1080">
<defs/>

<g id="Layer_1">
<g>
<g>
<g>
<path fill="#56A2E5" stroke="none" d="
M 904.85 1056.45
Q 834.4 1059.15 725.6 1064 637.05 1068 626.15 1068.2 591.25 1068.9 487.25 1055.85 387.3 1043.25 355.1 1035.2 330.1 1028.95 157.55 992.95 71.3 974.95 -10 958.2 -9.35 960.1 -22.1 1031.35 -28.5 1067 -35 1102.25
L 1933.45 1098.25
Q 1940.2 1078.25 1942.2 1057.1 1946.2 1014.85 1922.45 1009.2 1898.3 1003.5 1706.55 1024.6 1583.95 1038.05 1485.35 1051.2 1446.2 1056.4 1381.7 1057.35 1305.05 1058.4 1229.25 1052.2 1161.35 1046.65 904.85 1056.45 Z"/>
</g>
</g>

<g>
<path stroke="#000000" stroke-opacity="0" stroke-width="1" stroke-linejoin="round" stroke-linecap="round" fill="none" d="
M -10 958.2
Q 71.3 974.95 157.55 992.95 330.1 1028.95 355.1 1035.2 387.3 1043.25 487.25 1055.85 591.25 1068.9 626.15 1068.2 637.05 1068 725.6 1064 834.4 1059.15 904.85 1056.45 1161.35 1046.65 1229.25 1052.2 1305.05 1058.4 1381.7 1057.35 1446.2 1056.4 1485.35 1051.2 1583.95 1038.05 1706.55 1024.6 1898.3 1003.5 1922.45 1009.2 1946.2 1014.85 1942.2 1057.1 1940.2 1078.25 1933.45 1098.25
L -35 1102.25
Q -28.5 1067 -22.1 1031.35 -9.35 960.1 -10 958.2 Z"/>
</g>
</g>
</g>
</svg>
