
<svg xmlns="http://www.w3.org/2000/svg" version="1.1" xmlns:xlink="http://www.w3.org/1999/xlink" preserveAspectRatio="none" x="0px" y="0px" width="1920px" height="1080px" viewBox="0 0 1920 1080">
<defs/>

<g id="Layer_1">
<g>
<g>
<g>
<path fill="#56A2E5" stroke="none" d="
M 1619.25 705.9
Q 1569.6 708.1 1515.85 713.05 1471.4 717.15 1443.3 721.15 1410.3 725.85 1238.75 742.15 1050.55 760 998.2 766.15 919.2 775.4 870.9 775.4 829.4 775.4 793.15 768.15 745.55 758.65 730.35 755.8 675.6 745.7 626.75 739.3 479.8 719.9 401.1 735.15 323.55 750.15 235.1 733.65 207.45 728.5 182 720.8
L 162.1 714.15
Q 137.85 697 102.1 658 84.95 638.95 78.25 631.55 67 619.15 63.05 616.1 54.95 609.85 21.2 585.85
L -10.95 563.1
Q -12.5 567.1 -12.95 567.15
L -47 1131.25 1944.45 1126.25 1937.45 781.15
Q 1920.7 771.15 1895.2 758.05 1844.2 731.8 1800.45 716.15 1754.75 699.85 1619.25 705.9 Z"/>
</g>
</g>

<g>
<path stroke="#000000" stroke-opacity="0" stroke-width="1" stroke-linejoin="round" stroke-linecap="round" fill="none" d="
M -10.95 563.1
L 21.2 585.85
Q 54.95 609.85 63.05 616.1 67 619.15 78.25 631.55 84.95 638.95 102.1 658 137.85 697 162.1 714.15
L 182 720.8
Q 207.45 728.5 235.1 733.65 323.55 750.15 401.1 735.15 479.8 719.9 626.75 739.3 675.6 745.7 730.35 755.8 745.55 758.65 793.15 768.15 829.4 775.4 870.9 775.4 919.2 775.4 998.2 766.15 1050.55 760 1238.75 742.15 1410.3 725.85 1443.3 721.15 1471.4 717.15 1515.85 713.05 1569.6 708.1 1619.25 705.9 1754.75 699.85 1800.45 716.15 1844.2 731.8 1895.2 758.05 1920.7 771.15 1937.45 781.15
L 1944.45 1126.25 -47 1131.25 -12.95 567.15
Q -12.5 567.1 -10.95 563.1 Z"/>
</g>
</g>
</g>
</svg>
