
<svg xmlns="http://www.w3.org/2000/svg" version="1.1" xmlns:xlink="http://www.w3.org/1999/xlink" preserveAspectRatio="none" x="0px" y="0px" width="1920px" height="1080px" viewBox="0 0 1920 1080">
<defs/>

<g id="Layer_1">
<g>
<g>
<g>
<path fill="#56A2E5" stroke="none" d="
M 899.2 1070.85
Q 902.45 1070.7 905.2 1070.2 902.45 1068.45 899.35 1065.2 893.1 1058.7 891.2 1051.2 889.35 1043.7 879.6 1044.2 876.55 1044.35 873.05 1045.3
L 870.2 1046.2 865.2 1064.2 872.85 1065.6
Q 881.6 1067.35 887.2 1069.2 892.8 1071.05 899.2 1070.85
M 1096.25 1067.1
Q 1098.25 1067.7 1100.25 1068.2
L 1101.7 1068.35
Q 1103.55 1068.4 1105.25 1067.95 1110.75 1066.45 1113.25 1060.2 1115.75 1053.95 1112.25 1052.45 1111.15 1052 1109.6 1052.05
L 1108.25 1052.2 1092.25 1065.2
Q 1092.25 1065.85 1096.25 1067.1
M 1003.05 756.25
Q 1001.25 749.95 1001.25 751.15
L 995.25 813.95
Q 988.2 880.45 983.2 899.2 970.95 945.2 954.6 993.25 929.25 1067.55 913.2 1084.25 897.6 1100.5 973.85 1106 1012 1108.75 1053.25 1108.25
L 1098.25 1091.25
Q 1094.55 1088.15 1088.8 1081.35 1077.3 1067.8 1067 1049.5 1034 991 1025.25 907.2 1016.45 823.15 1008 778.55 1005.3 764.35 1003.05 756.25
M 1170.15 -1.3
Q 1178.25 -4.95 1184.25 -7.95
L 786.15 -6.95 850.2 5.45
Q 915.7 17.7 923.2 17.05 929.15 16.55 992.1 17.05 1055.7 17.55 1063.25 17.05 1070.75 16.55 1102.5 14.55 1132.55 12.2 1143.25 9.05 1153.9 5.95 1170.15 -1.3 Z"/>
</g>
</g>

<g>
<path stroke="#000000" stroke-opacity="0" stroke-width="1" stroke-linejoin="round" stroke-linecap="round" fill="none" d="
M 786.15 -6.95
L 850.2 5.45
Q 915.7 17.7 923.2 17.05 929.15 16.55 992.1 17.05 1055.7 17.55 1063.25 17.05 1070.75 16.55 1102.5 14.55 1132.55 12.2 1143.25 9.05 1153.9 5.95 1170.15 -1.3 1178.25 -4.95 1184.25 -7.95
L 786.15 -6.95 Z
M 1001.25 751.15
L 995.25 813.95
Q 988.2 880.45 983.2 899.2 970.95 945.2 954.6 993.25 929.25 1067.55 913.2 1084.25 897.6 1100.5 973.85 1106 1012 1108.75 1053.25 1108.25
L 1098.25 1091.25
Q 1094.55 1088.15 1088.8 1081.35 1077.3 1067.8 1067 1049.5 1034 991 1025.25 907.2 1016.45 823.15 1008 778.55 1005.3 764.35 1003.05 756.25 1001.25 749.95 1001.25 751.15 Z
M 1092.25 1065.2
L 1108.25 1052.2 1109.6 1052.05
Q 1111.15 1052 1112.25 1052.45 1115.75 1053.95 1113.25 1060.2 1110.75 1066.45 1105.25 1067.95 1103.55 1068.4 1101.7 1068.35
L 1100.25 1068.2
Q 1098.25 1067.7 1096.25 1067.1 1092.25 1065.85 1092.25 1065.2 Z
M 905.2 1070.2
Q 902.45 1068.45 899.35 1065.2 893.1 1058.7 891.2 1051.2 889.35 1043.7 879.6 1044.2 876.55 1044.35 873.05 1045.3
L 870.2 1046.2 865.2 1064.2 872.85 1065.6
Q 881.6 1067.35 887.2 1069.2 892.8 1071.05 899.2 1070.85 902.45 1070.7 905.2 1070.2 Z"/>
</g>
</g>
</g>
</svg>
