
<svg xmlns="http://www.w3.org/2000/svg" version="1.1" xmlns:xlink="http://www.w3.org/1999/xlink" preserveAspectRatio="none" x="0px" y="0px" width="1920px" height="1080px" viewBox="0 0 1920 1080">
<defs/>

<g id="Layer_1">
<g>
<g>
<g>
<path fill="#56A2E5" stroke="none" d="
M 970.55 573.9
Q 966.9 593.9 960.8 686.8 954.95 775.9 954.95 801.6 954.95 869.4 973.15 892.05 980.7 901.55 983.05 904 987.8 909 992.45 911.15 1001.8 915.45 1026.35 912.75 1035.1 911.8 1049.6 910.75 1061 909.7 1067.1 907.45 1074.85 904.55 1079.45 898 1084.6 890.95 1087.35 877.85 1091 861.9 1092.25 856.05 1094.2 846.65 1094.2 840.2 1094.2 827.05 1083.5 797.7 1074.35 772.65 1062.9 724.8 1049.15 667.4 1047.15 660.6 1041.55 641.55 1032.4 575.2 1023.75 509.25 1022.45 501.5 1020.6 490.25 1012.9 455.9 1005.35 422 1004.3 420
L 989.35 486.3
Q 973.8 556.15 970.55 573.9
M 768.95 -16.95
Q 766.45 -12.45 764.2 -8.05 759.7 0.7 760.95 0.05
L 812.35 10.55
Q 867.1 21.55 883.95 24.05 903.75 27 936.2 37.8 967.8 48.35 980.9 56.05 999 66.7 1007.15 70.2 1021.65 76.35 1028.9 73.05 1058.25 59.7 1064.9 56.8 1095.35 43.5 1109.9 39.05 1124.65 34.55 1151.55 27.7 1156.55 26.4 1193.9 17.05 1208.9 13.3 1228.4 2.3 1238.15 -3.2 1244.9 -7.95
L 768.95 -16.95 Z"/>
</g>
</g>

<g>
<path stroke="#000000" stroke-opacity="0" stroke-width="1" stroke-linejoin="round" stroke-linecap="round" fill="none" d="
M 760.95 0.05
L 812.35 10.55
Q 867.1 21.55 883.95 24.05 903.75 27 936.2 37.8 967.8 48.35 980.9 56.05 999 66.7 1007.15 70.2 1021.65 76.35 1028.9 73.05 1058.25 59.7 1064.9 56.8 1095.35 43.5 1109.9 39.05 1124.65 34.55 1151.55 27.7 1156.55 26.4 1193.9 17.05 1208.9 13.3 1228.4 2.3 1238.15 -3.2 1244.9 -7.95
L 768.95 -16.95
Q 766.45 -12.45 764.2 -8.05 759.7 0.7 760.95 0.05 Z"/>
</g>
</g>
</g>
</svg>
