
<svg xmlns="http://www.w3.org/2000/svg" version="1.1" xmlns:xlink="http://www.w3.org/1999/xlink" preserveAspectRatio="none" x="0px" y="0px" width="1920px" height="1080px" viewBox="0 0 1920 1080">
<defs/>

<g id="Layer_1">
<g>
<g>
<g>
<path fill="#56A2E5" stroke="none" d="
M 1312.9 4.8
Q 1335.4 -0.45 1351.9 -3.95 1176.15 -2.7 1000.2 -1.7 657.0140625 0.25 647.2 -0.9
L 701.85 10.8
Q 760.1 23.8 776.95 30.05 783.4 32.45 805.45 41.75 830.65 52.4 845.95 58.45 901.85 80.5 935.9 86.05 982.2 93.65 1027.05 92.55 1079.25 91.3 1109.9 78.05 1131.9 68.55 1172.4 49.2 1208.75 32.55 1237.9 24.05 1267.9 15.3 1312.9 4.8 Z"/>
</g>
</g>

<g>
<path stroke="#000000" stroke-opacity="0" stroke-width="1" stroke-linejoin="round" stroke-linecap="round" fill="none" d="
M 647.225 -0.9
L 701.85 10.8
Q 760.1 23.8 776.95 30.05 783.4 32.45 805.45 41.75 830.65 52.4 845.95 58.45 901.85 80.5 935.9 86.05 982.2 93.65 1027.05 92.55 1079.25 91.3 1109.9 78.05 1131.9 68.55 1172.4 49.2 1208.75 32.55 1237.9 24.05 1267.9 15.3 1312.9 4.8 1335.4 -0.45 1351.9 -3.95 1176.15 -2.7 1000.2 -1.7 657.0140625 0.25 647.225 -0.9
L 646.95 -0.95"/>
</g>
</g>
</g>
</svg>
