
<svg xmlns="http://www.w3.org/2000/svg" version="1.1" xmlns:xlink="http://www.w3.org/1999/xlink" preserveAspectRatio="none" x="0px" y="0px" width="1920px" height="1080px" viewBox="0 0 1920 1080">
<defs/>

<g id="Layer_1">
<g>
<g>
<g>
<path fill="#56A2E5" stroke="none" d="
M 1592.35 210.1
Q 1509.85 204.5 1453.4 200.55 1346.55 193.15 1269.8 186.35 1034.45 165.4 962.25 140.05 890.95 115 765.45 31 726.25 4.75 686.3 -24.25
L 654.2 -48
Q 652.95 -46.75 286.35 -70.25 103.05 -82 -80 -94
L -108 1264.3 2064.45 1220.3
Q 2045.45 991.25 2022.2 758.7 1975.7 293.6 1954.45 276.1 1930.8 256.6 1810.9 236.35 1705.6 218.55 1592.35 210.1 Z"/>
</g>
</g>

<g>
<path stroke="#000000" stroke-opacity="0" stroke-width="1" stroke-linejoin="round" stroke-linecap="round" fill="none" d="
M 654.2 -48
L 686.3 -24.25
Q 726.25 4.75 765.45 31 890.95 115 962.25 140.05 1034.45 165.4 1269.8 186.35 1346.55 193.15 1453.4 200.55 1509.85 204.5 1592.35 210.1 1705.6 218.55 1810.9 236.35 1930.8 256.6 1954.45 276.1 1975.7 293.6 2022.2 758.7 2045.45 991.25 2064.45 1220.3
L -108 1264.3 -80 -94
Q 103.05 -82 286.35 -70.25 652.95 -46.75 654.2 -48 Z"/>
</g>
</g>
</g>
</svg>
