
<svg xmlns="http://www.w3.org/2000/svg" version="1.1" xmlns:xlink="http://www.w3.org/1999/xlink" preserveAspectRatio="none" x="0px" y="0px" width="1920px" height="1080px" viewBox="0 0 1920 1080">
<defs/>

<g id="Layer_1">
<g>
<g>
<g>
<path fill="#56A2E5" stroke="none" d="
M 1968.45 1106.2
L 1956.45 646.1
Q 1892.45 632.6 1813.65 618.6 1656.15 590.6 1582.35 588.1 1541.35 586.7 1482.3 593.4 1434.75 598.75 1364.1 610.85 1353.9 612.6 1235 633.95 1154.6 648.4 1102.3 656.1 1036.95 665.75 955.65 672 875.8 678.1 797.75 679.6 717.2 681.15 655.6 677.5 589.55 673.5 556.2 664.1 498.05 647.65 384.4 546.85 347.8 514.35 294.25 462.95 228.6 399.9 220.1 392.05 168.85 344.55 67.35 317.55 35.6 309.1 2.65 303.75 -13.8 301.05 -23.95 300.05 -24.95 517.6 -24.95 735.4 -24.95 1171 -19.95 1172.25 -14.95 1173.5 470.15 1218 712.65 1240.25 954.2 1262.25
L 1968.45 1106.2 Z"/>
</g>
</g>

<g>
<path stroke="#000000" stroke-opacity="0" stroke-width="1" stroke-linejoin="round" stroke-linecap="round" fill="none" d="
M -23.95 300.05
Q -13.8 301.05 2.65 303.75 35.6 309.1 67.35 317.55 168.85 344.55 220.1 392.05 228.6 399.9 294.25 462.95 347.8 514.35 384.4 546.85 498.05 647.65 556.2 664.1 589.55 673.5 655.6 677.5 717.2 681.15 797.75 679.6 875.8 678.1 955.65 672 1036.95 665.75 1102.3 656.1 1154.6 648.4 1235 633.95 1353.9 612.6 1364.1 610.85 1434.75 598.75 1482.3 593.4 1541.35 586.7 1582.35 588.1 1656.15 590.6 1813.65 618.6 1892.45 632.6 1956.45 646.1
L 1968.45 1106.2 954.2 1262.25
Q 712.65 1240.25 470.15 1218 -14.95 1173.5 -19.95 1172.25 -24.95 1171 -24.95 735.4 -24.95 517.6 -23.95 300.05 Z"/>
</g>
</g>
</g>
</svg>
