
<svg xmlns="http://www.w3.org/2000/svg" version="1.1" xmlns:xlink="http://www.w3.org/1999/xlink" preserveAspectRatio="none" x="0px" y="0px" width="1950px" height="2308px" viewBox="0 0 1950 2308">
<defs/>

<g id="MergedLayer_1">
<g id="Layer_1" transform="matrix( 1, 0, 0, 1, 2.05,-8) ">
<g>
<g>
<g>
<path fill="#848FAA" stroke="none" d="
M 83.95 863.25
Q 105.3 865.05 119.55 860.15 118.25 811.15 109.35 821.55 83.65 834.3 81 863.1 82.45 863.1 83.95 863.25 Z"/>

<path fill="#5F5961" stroke="none" d="
M 220.65 886.85
Q 220.6 886.85 220.5 886.85 220.5 888.35 220.8 888.35 222.55 888.65 224.35 888.95 224.2 888.85 224.05 888.75 223.3 888.2 222.7 887.6 222 886.9 220.65 886.85
M 291.75 872
Q 291.75 870.5 291.75 869.05 287.3 889.2 262.05 888.5 253 888.2 235.35 886.85 233 888.9 230.85 889.7 230.65 889.75 230.45 889.8 263.25 894.25 291.75 892.8 291.75 892.75 291.75 892.65 291.9 882.35 291.75 872 Z"/>

<path fill="#726C7E" stroke="none" d="
M 291.75 869.05
Q 291.75 867.55 291.75 866.05 248.85 857.6 235.95 884.2 235.35 885.35 235.35 886.85 253 888.2 262.05 888.5 287.3 889.2 291.75 869.05 Z"/>

<path fill="#52535B" stroke="none" d="
M 386.7 800.75
Q 386.7 799.3 386.7 797.8 385.3 797.8 383.9 797.8 383.85 797.8 383.75 797.8 383.75 799.3 383.75 800.75 381.5 844.55 386.7 880.9 386.7 880.3 386.7 879.7 386.7 872.9 386.7 866.05 386.7 864.6 386.7 863.1 386.7 831.95 386.7 800.75 Z"/>

<path fill="#BCA28A" stroke="none" d="
M 457.95 889.7
Q 457.95 883.85 457.95 877.95 457.95 876.45 457.95 875 431.85 888.65 389.25 863.7 388.2 863.1 386.7 863.1 386.7 864.6 386.7 866.05 386.7 872.9 386.7 879.7 386.7 880.3 386.7 880.9 386.7 882.4 387.3 882.55 415.05 894.25 457.95 889.8 457.95 889.75 457.95 889.7 Z"/>

<path fill="#827E8E" stroke="none" d="
M 535.1 860.15
Q 535.1 858.65 535.1 857.15 484.05 847.8 478.85 883.9 478.75 885.35 478.75 886.85 480.2 886.85 481.7 886.85 506.9 885.95 535.1 883.9 535.1 872 535.1 860.15 Z"/>

<path fill="#545354" stroke="none" d="
M 535.1 857.15
Q 535.1 858.65 535.1 860.15 535.1 872 535.1 883.9 506.9 885.95 481.7 886.85 480.2 886.85 478.75 886.85 475.75 886.85 472.8 886.85 471.4 886.85 469.95 886.85 469.9 886.85 469.8 886.85 469.8 888.35 469.95 888.35 507.65 892.05 538.1 886.85 538.1 886.8 538.1 886.75 538.1 867.5 538.1 848.25 538.1 846.8 538.1 845.3 536.6 845.3 535.1 845.3 535.1 846.8 535.1 848.25 534.95 852.7 535.1 857.15 Z"/>

<path fill="#646060" stroke="none" d="
M 626.15 885.45
Q 625.8 884.9 625.65 884.2 625.65 883.9 624.3 883.9 624.25 883.9 624.15 883.9 624.15 885.35 624.45 885.35 625.35 885.5 626.25 885.65 626.2 885.55 626.15 885.45
M 692.45 860.15
Q 692.45 858.65 692.45 857.15 690.95 857.15 689.45 857.15 689.45 858.65 689.45 860.15 689.45 872 689.45 883.9 666.9 886.4 636.05 886.85 634.55 886.85 633.05 886.85 632.95 886.85 632.85 886.9 632.65 886.9 632.5 887 659.65 891.75 692.45 889.8 692.45 889.75 692.45 889.65 692.45 874.95 692.45 860.15 Z"/>

<path fill="#454C58" stroke="none" d="
M 624.15 658.3
Q 624.15 656.8 624.15 655.35 622.75 655.35 621.35 655.35 621.3 655.35 621.2 655.35 621.2 656.8 621.2 658.3 618.95 758.45 624.15 851.25 624.15 849.8 624.15 848.4 624.15 753.3 624.15 658.3
M 42.4 156.65
Q 42.4 158.15 42.4 159.65 40.15 204.9 45.35 242.75 45.35 242.1 45.35 241.5 45.35 200.55 45.35 159.65 45.35 158.15 45.35 156.65 43.95 156.65 42.55 156.65 42.5 156.65 42.4 156.65 Z"/>

<path fill="#757D88" stroke="none" d="
M 385.25 702.8
L 383.75 702.8
Q 383.75 704.3 383.75 705.8 383.75 751.8 383.75 797.8 383.85 797.8 383.9 797.8 385.3 797.8 386.7 797.8 386.7 750.3 385.25 702.8 Z"/>

<path fill="#7A4721" stroke="none" d="
M 457.95 584.1
Q 457.95 585.6 457.95 587.05 457.95 731 457.95 875 457.95 876.45 457.95 877.95 457.95 883.85 457.95 889.7 457.95 889.75 457.95 889.8 459.45 889.8 460.9 889.8 460.9 889.75 460.9 889.65 460.9 736.9 459.45 584.1
L 457.95 584.1 Z"/>

<path fill="#585D65" stroke="none" d="
M 469.8 587.05
Q 469.8 585.6 469.8 584.1 468.4 584.1 467 584.1 466.95 584.1 466.85 584.1 466.85 585.6 466.85 587.05 464.65 740.65 469.8 886.85 469.8 884.65 469.8 882.45 469.8 734.75 469.8 587.05 Z"/>

<path fill="#7F8795" stroke="none" d="
M 468.35 441.6
L 466.85 441.6
Q 466.85 443.1 466.85 444.6 466.85 514.35 466.85 584.1 466.95 584.1 467 584.1 468.4 584.1 469.8 584.1 469.8 512.85 468.35 441.6 Z"/>

<path fill="#5A606E" stroke="none" d="
M 538.1 426.8
Q 538.1 425.3 538.1 423.8 536.6 423.8 535.1 423.8 535.1 425.3 535.1 426.8 535.1 636.05 535.1 845.3 536.6 845.3 538.1 845.3 538.1 636.05 538.1 426.8 Z"/>

<path fill="#808998" stroke="none" d="
M 622.7 465.35
L 621.2 465.35
Q 621.2 466.85 621.2 468.35 621.2 561.85 621.2 655.35 621.3 655.35 621.35 655.35 622.75 655.35 624.15 655.35 624.15 560.35 622.7 465.35 Z"/>

<path fill="#404B5D" stroke="none" d="
M 220.5 682.05
Q 220.5 680.55 220.5 679.1 219.1 679.1 217.65 679.1 217.6 679.1 217.5 679.1 217.5 680.55 217.5 682.05 215.3 773.3 220.5 857.15 220.5 855.85 220.5 854.55 220.5 768.3 220.5 682.05 Z"/>

<path fill="#606F83" stroke="none" d="
M 219 622.85
Q 219 622.7 217.65 622.7 217.6 622.7 217.5 622.7 217.5 624.15 217.5 625.65 217.5 652.35 217.5 679.1 217.6 679.1 217.65 679.1 219.1 679.1 220.5 679.1 220.5 650.9 219 622.85 Z"/>

<path fill="#554F57" stroke="none" d="
M 122.55 524.75
Q 122.55 526.2 122.55 527.7 122.55 693.9 122.55 860.15 122.55 861.6 122.55 863.1 122.6 863.1 122.7 863.1 124.1 863.1 125.5 863.1 125.5 863.05 125.5 862.95 125.5 693.85 124 524.75
L 122.55 524.75 Z"/>

<path fill="#676571" stroke="none" d="
M 51.3 560.35
Q 49.9 560.35 48.5 560.35 48.4 560.35 48.35 560.35 48.35 561.85 48.35 563.3 48.35 728.05 48.35 892.8 49.8 892.8 51.3 892.8 86.9 892.8 122.55 892.8 122.55 892.75 122.55 892.65 122.4 879.35 122.55 866.05 122.55 864.6 122.55 863.1 122.55 861.6 122.55 860.15 121.05 860.15 119.55 860.15 105.3 865.05 83.95 863.25 82.45 863.1 81 863.1 54.25 895.75 53.85 872 51.3 716.2 51.3 560.35 Z"/>

<path fill="#7B7E8D" stroke="none" d="
M 49.8 501
L 48.35 501
Q 48.35 502.45 48.35 503.95 48.35 532.15 48.35 560.35 48.4 560.35 48.5 560.35 49.9 560.35 51.3 560.35 51.3 530.65 49.8 501 Z"/>

<path fill="#875D42" stroke="none" d="
M 39.45 474.25
Q 39.45 475.75 39.45 477.25 39.45 683.55 39.45 889.8 14.95 886.85 -0.05 869.8 -0.65 869.05 -2.15 869.05 -2.15 870.5 -2.15 872 -2 882.4 -2.15 892.8 -2.05 892.8 -2 892.8 -0.55 892.8 0.85 892.8 21.6 892.8 42.4 892.8 42.4 892.75 42.4 892.65 42.4 683.5 40.9 474.25
L 39.45 474.25 Z"/>

<path fill="#574B51" stroke="none" d="
M 291.75 512.85
Q 291.75 514.35 291.75 515.8 291.75 689.45 291.75 863.1 291.8 863.1 291.9 863.1 293.3 863.1 294.7 863.1 294.7 863.05 294.7 862.95 294.7 687.95 293.2 512.85
L 291.75 512.85 Z"/>

<path fill="#3E4D67" stroke="none" d="
M 216.05 346.65
L 214.55 346.65
Q 214.55 348.1 214.55 349.6 212.35 393.4 217.5 429.75 217.5 429.15 217.5 428.55 217.5 387.6 216.05 346.65 Z"/>

<path fill="#733D1F" stroke="none" d="
M 178.95 284.3
Q 178.95 285.8 178.95 287.25 178.95 308.05 178.95 328.85 179 328.85 179.1 328.85 180.5 328.85 181.9 328.85 181.9 328.8 181.9 328.7 181.75 306.5 180.4 284.45 180.4 284.3 178.95 284.3 Z"/>

<path fill="#EBE8E4" stroke="none" d="
M 318.45 293.2
Q 318.45 291.7 318.45 290.25 313.4 294.1 314.6 305.25
L 315.45 314 306.85 300.65
Q 310.6 318 303.75 315.15
L 300.65 314
Q 278.35 329.1 318.45 325.85 318.45 309.55 318.45 293.2 Z"/>

<path fill="#AF7444" stroke="none" d="
M 318.45 272.45
Q 318.45 281.35 318.45 290.25 318.45 291.7 318.45 293.2 318.45 309.55 318.45 325.85 318.45 327.3 318.45 328.75 318.45 328.8 318.45 328.85 319.95 328.85 321.4 328.85 321.4 328.8 321.4 328.7 321.4 300.6 321.4 272.45 321.4 270.95 321.4 269.45 319.95 269.45 318.45 269.45 318.45 270.95 318.45 272.45 Z"/>

<path fill="#753D1D" stroke="none" d="
M 318.45 219
Q 318.45 220.5 318.45 221.95 318.45 245.7 318.45 269.45 319.95 269.45 321.4 269.45 321.4 244.25 319.95 219.15 319.95 219 318.45 219 Z"/>

<path fill="#766975" stroke="none" d="
M 122.55 343.65
Q 122.55 342.2 122.55 340.7 121.05 340.7 121.05 340.85 117.35 375.55 122.55 403.05 122.55 373.35 122.55 343.65 Z"/>

<path fill="#5C4E4B" stroke="none" d="
M 122.7 331.8
Q 124.1 331.8 125.5 331.8 152.2 331.8 178.95 331.8 178.95 331.7 178.95 331.65 178.95 330.25 178.95 328.85 150.75 328.85 122.7 330.3 122.55 330.3 122.55 331.8 122.6 331.8 122.7 331.8 Z"/>

<path fill="#3A4B60" stroke="none" d="
M 48.35 352.55
Q 46.95 352.55 45.5 352.55 45.45 352.55 45.35 352.55 45.35 354.05 45.35 355.55 43.15 406.75 48.35 450.5 48.35 449.8 48.35 449.1 48.35 402.35 48.35 355.55 48.35 354.05 48.35 352.55 Z"/>

<path fill="#6B767A" stroke="none" d="
M 46.85 311.15
Q 46.85 311 45.5 311 45.45 311 45.35 311 45.35 312.5 45.35 314 45.35 333.3 45.35 352.55 45.45 352.55 45.5 352.55 46.95 352.55 48.35 352.55 48.35 331.8 46.85 311.15 Z"/>

<path fill="#7E381F" stroke="none" d="
M 36.45 189.3
Q 36.45 190.8 36.45 192.3 36.45 210.1 36.45 227.9 37.95 227.9 39.45 227.9 39.45 208.6 37.95 189.45 37.95 189.3 36.45 189.3 Z"/>

<path fill="#71717D" stroke="none" d="
M 42.4 124
Q 42.4 125.5 42.4 127 42.4 141.85 42.4 156.65 42.5 156.65 42.55 156.65 43.95 156.65 45.35 156.65 45.35 140.35 43.9 124.15 43.9 124 42.55 124 42.5 124 42.4 124 Z"/>

<path fill="#B87948" stroke="none" d="
M 36.45 97.3
Q 35 97.3 33.5 97.3 33.5 98.8 33.35 100.25 31.25 135.15 36.45 162.6 36.45 131.45 36.45 100.25 36.45 98.8 36.45 97.3 Z"/>

<path fill="#84451A" stroke="none" d="
M 36.45 97.3
Q 36.45 78 35 58.85 35 58.7 33.5 58.7 33.5 60.2 33.5 61.7 33.5 79.5 33.5 97.3 35 97.3 36.45 97.3 Z"/>

<path fill="#34434C" stroke="none" d="
M 42.4 37.95
Q 40.9 37.95 40.9 38.1 37.85 60.65 40.9 78.3 41.5 81.95 42.4 85.45 42.4 85.05 42.4 84.7 42.25 62.75 42.4 40.9 42.4 39.4 42.4 37.95 Z"/>

<path fill="#A5622A" stroke="none" d="
M 178.95 156.65
Q 177.45 156.65 175.95 156.65 175.95 158.15 175.8 159.65 173.75 185.6 178.95 204.15 178.8 181.9 178.95 159.65 178.95 158.15 178.95 156.65 Z"/>

<path fill="#51575A" stroke="none" d="
M 184.85 171.5
Q 184.85 173 184.85 174.5 182.65 228.65 187.85 275.4 187.85 274.65 187.85 273.9 187.85 222.7 186.35 171.5
L 184.85 171.5 Z"/>

<path fill="#78390D" stroke="none" d="
M 177.45 133.05
Q 177.45 132.9 175.95 132.9 175.95 134.4 175.95 135.9 176.1 146.3 175.95 156.65 177.45 156.65 178.95 156.65 178.95 144.8 177.45 133.05 Z"/>

<path fill="#3E4747" stroke="none" d="
M 184.85 37.95
Q 183.85 37.95 183.55 38.05 183.4 38.05 183.4 38.1 179.7 71.35 184.85 97.3 184.85 96.85 184.85 96.4 184.85 68.65 184.85 40.9 184.85 39.4 184.85 37.95 Z"/>

<path fill="#B8BAC5" stroke="none" d="
M 172.85 43.9
Q 173 42.4 173 40.9 112.75 21.15 45.2 37.65 43.9 37.95 42.4 37.95 42.4 39.4 42.4 40.9 42.25 62.75 42.4 84.7 42.4 85.05 42.4 85.45 42.4 86.9 42.4 88.4 42.4 106.2 42.4 124 42.5 124 42.55 124 43.9 124 43.9 124.15 45.35 140.35 45.35 156.65 45.35 158.15 45.35 159.65 45.35 200.55 45.35 241.5 45.35 242.1 45.35 242.75 45.35 244.25 45.35 245.7 45.35 278.35 45.35 311 45.45 311 45.5 311 46.85 311 46.85 311.15 48.35 331.8 48.35 352.55 48.35 354.05 48.35 355.55 48.35 402.35 48.35 449.1 48.35 449.8 48.35 450.5 48.35 452 48.35 453.5 48.35 477.25 48.35 501
L 49.8 501
Q 51.3 530.65 51.3 560.35 51.3 716.2 53.85 872 54.25 895.75 81 863.1 83.65 834.3 109.35 821.55 118.25 811.15 119.55 860.15 121.05 860.15 122.55 860.15 122.55 693.9 122.55 527.7 122.55 526.2 122.55 524.75 122.55 465.35 122.55 406 122.55 404.5 122.55 403.05 117.35 375.55 121.05 340.85 121.05 340.7 122.55 340.7 122.55 337.75 122.55 334.75 122.55 333.3 122.55 331.8 122.55 330.3 122.7 330.3 150.75 328.85 178.95 328.85 178.95 308.05 178.95 287.25 178.95 285.8 178.95 284.3 178.95 245.7 178.95 207.15 178.95 205.65 178.95 204.15 173.75 185.6 175.8 159.65 175.95 158.15 175.95 156.65 176.1 146.3 175.95 135.9 175.95 134.4 175.95 132.9 175.95 100.25 175.95 67.6 175.95 66.15 175.95 64.65 170.75 58 172.85 43.9
M 113.65 658.3
Q 113.65 656.8 113.65 655.35 109.35 618.8 113.5 652.35 113.65 653.85 113.65 655.35 118.85 709.5 116.6 771.1 116.6 772.55 116.6 774.05 111.4 719.9 113.65 658.3 Z"/>

<path fill="#8EA1C1" stroke="none" d="
M 113.65 655.35
Q 113.65 653.85 113.5 652.35 109.35 618.8 113.65 655.35 Z"/>

<path fill="#8C9EBD" stroke="none" d="
M 113.65 655.35
Q 113.65 656.8 113.65 658.3 111.4 719.9 116.6 774.05 116.6 772.55 116.6 771.1 118.85 709.5 113.65 655.35 Z"/>

<path fill="#A36426" stroke="none" d="
M 174.5 41.05
Q 174.5 40.9 173 40.9 173 42.4 172.85 43.9 170.75 58 175.95 64.65 175.95 52.8 174.5 41.05 Z"/>

<path fill="#6D6A64" stroke="none" d="
M 223.45 32
Q 223.45 30.5 223.45 29.05 208.6 29.05 193.95 30.5 193.8 30.5 193.8 32 195.25 32 196.75 32 209.95 32 223.45 32 Z"/>

<path fill="#8E5A29" stroke="none" d="
M 315.45 55.75
Q 315.45 57.25 315.35 58.7 313.25 93.6 318.45 121.05 318.45 88.4 316.95 55.75
L 315.45 55.75 Z"/>

<path fill="#BDC4D3" stroke="none" d="
M 315.35 58.7
Q 315.45 57.25 315.45 55.75 300.2 13.15 226.45 28.75 224.95 29.05 223.45 29.05 223.45 30.5 223.45 32 209.95 32 196.75 32 195.25 32 193.8 32 189 32.85 186.9 36.9 186.75 37.1 186.65 37.35 186.6 37.4 186.6 37.45 186.2 37.95 184.85 37.95 184.85 39.4 184.85 40.9 184.85 68.65 184.85 96.4 184.85 96.85 184.85 97.3 184.85 98.8 184.85 100.25 184.85 135.9 184.85 171.5
L 186.35 171.5
Q 187.85 222.7 187.85 273.9 187.85 274.65 187.85 275.4 187.7 288.75 190.05 301.65 195.25 330.3 214.55 346.65
L 216.05 346.65
Q 217.5 387.6 217.5 428.55 217.5 429.15 217.5 429.75 217.5 431.25 217.5 432.7 217.5 527.7 217.5 622.7 217.6 622.7 217.65 622.7 219 622.7 219 622.85 220.5 650.9 220.5 679.1 220.5 680.55 220.5 682.05 220.5 768.3 220.5 854.55 220.5 855.85 220.5 857.15 220.5 858.65 220.5 860.15 220.35 873.5 220.5 886.85 220.6 886.85 220.65 886.85 222 886.9 222.7 887.6 223.3 888.2 224.05 888.75 224.2 888.85 224.35 888.95 227.3 890.85 230.45 889.8 230.65 889.75 230.85 889.7 233 888.9 235.35 886.85 235.35 885.35 235.95 884.2 248.85 857.6 291.75 866.05 291.75 864.6 291.75 863.1 291.75 689.45 291.75 515.8 291.75 514.35 291.75 512.85 291.75 459.45 284.75 406.9 283.95 400.9 283.65 395.4
L 297.05 340.05 309.3 331.7
Q 313.55 329.9 318.45 328.85 318.45 328.8 318.45 328.75 318.45 327.3 318.45 325.85 278.35 329.1 300.65 314
L 303.75 315.15
Q 310.6 318 306.85 300.65
L 315.45 314 314.6 305.25
Q 313.4 294.1 318.45 290.25 318.45 281.35 318.45 272.45 318.45 270.95 318.45 269.45 318.45 245.7 318.45 221.95 318.45 220.5 318.45 219 318.45 171.5 318.45 124 318.45 122.55 318.45 121.05 313.25 93.6 315.35 58.7 Z"/>

<path fill="#33343C" stroke="none" d="
M 536.6 388.35
Q 536.6 388.2 535.1 388.2 535.1 389.65 535.1 391.15 535.1 407.5 535.1 423.8 536.6 423.8 538.1 423.8 538.1 406 536.6 388.35 Z"/>

<path fill="#4B4343" stroke="none" d="
M 538.25 330.3
Q 538.1 330.3 538.1 331.8 538.15 331.8 538.25 331.8 539.65 331.8 541.05 331.8 564.8 331.8 588.55 331.8 588.55 331.7 588.55 331.65 588.55 330.25 588.55 328.85 563.3 328.85 538.25 330.3 Z"/>

<path fill="#AC9E8E" stroke="none" d="
M 597.45 251.65
Q 595.95 251.65 594.5 251.65 594.5 253.15 594.5 254.6 594.5 291.65 594.5 328.7 594.5 328.8 594.5 328.85 595.95 328.85 597.45 328.85 597.45 328.8 597.45 328.7 597.45 291.65 597.45 254.6 597.45 253.15 597.45 251.65 Z"/>

<path fill="#61646B" stroke="none" d="
M 603.4 290.25
Q 603.4 288.75 603.4 287.25 601.95 287.25 600.55 287.25 600.45 287.25 600.4 287.25 600.4 288.75 600.25 290.25 598.2 313.25 603.4 328.85 603.4 328.55 603.4 328.25 603.4 309.25 603.4 290.25 Z"/>

<path fill="#444A5E" stroke="none" d="
M 382.25 331.8
L 380.75 331.8
Q 380.75 333.3 380.75 334.75 378.55 391.9 383.75 441.6 383.75 440.8 383.75 440 383.75 385.9 382.25 331.8 Z"/>

<path fill="#3A4F63" stroke="none" d="
M 327.35 239.8
Q 325.95 239.8 324.55 239.8 324.45 239.8 324.4 239.8 324.4 241.25 324.25 242.75 322.15 280.6 327.35 311 327.35 310.5 327.35 310 327.35 276.4 327.35 242.75 327.35 241.25 327.35 239.8 Z"/>

<path fill="#4B4C52" stroke="none" d="
M 466.85 254.6
Q 466.85 253.15 466.85 251.65 465.45 251.65 464.05 251.65 463.95 251.65 463.9 251.65 463.9 253.15 463.9 254.6 461.65 304.35 466.85 346.65 466.85 345.95 466.85 345.3 466.85 299.95 466.85 254.6 Z"/>

<path fill="#9F6443" stroke="none" d="
M 455 230.85
Q 455 232.35 455 233.85 452.75 282.1 457.95 322.9 457.95 278.35 457.95 233.85 457.95 232.35 457.95 230.85 456.45 230.85 455 230.85 Z"/>

<path fill="#723924" stroke="none" d="
M 455 186.35
Q 455 187.85 455 189.3 455 210.1 455 230.85 456.45 230.85 457.95 230.85 457.95 208.6 456.45 186.5 456.45 186.35 455 186.35 Z"/>

<path fill="#89898F" stroke="none" d="
M 463.9 138.85
Q 463.9 140.35 463.9 141.85 463.9 196.75 463.9 251.65 463.95 251.65 464.05 251.65 465.45 251.65 466.85 251.65 466.85 195.25 465.35 138.85
L 463.9 138.85 Z"/>

<path fill="#6F7980" stroke="none" d="
M 325.85 183.55
Q 325.85 183.4 324.55 183.4 324.5 183.4 324.4 183.4 324.4 184.85 324.4 186.35 324.4 213.05 324.4 239.8 324.45 239.8 324.55 239.8 325.95 239.8 327.35 239.8 327.35 211.6 325.85 183.55 Z"/>

<path fill="#39383B" stroke="none" d="
M 324.4 40.9
Q 324.4 39.4 324.4 37.95 322.9 37.95 322.9 38.1 321.85 45.5 321.5 52.35 320.7 69.25 324.4 82.45 324.4 82.1 324.4 81.8 324.4 61.35 324.4 40.9 Z"/>

<path fill="#996C46" stroke="none" d="
M 452 34.95
Q 452 36.45 451.85 37.95 449.8 63.9 455 82.45 455 58.7 453.5 35.1 453.5 34.95 452 34.95 Z"/>

<path fill="#DFDFE4" stroke="none" d="
M 451.85 37.95
Q 452 36.45 452 34.95 386.1 18.35 327.2 37.5 325.85 37.95 324.4 37.95 324.4 39.4 324.4 40.9 324.4 61.35 324.4 81.8 324.4 82.1 324.4 82.45 324.4 83.95 324.4 85.45 324.4 134.4 324.4 183.4 324.5 183.4 324.55 183.4 325.85 183.4 325.85 183.55 327.35 211.6 327.35 239.8 327.35 241.25 327.35 242.75 327.35 276.4 327.35 310 327.35 310.5 327.35 311 327.35 312.5 327.95 313.7 340.7 336.4 380.75 331.8
L 382.25 331.8
Q 383.75 385.9 383.75 440 383.75 440.8 383.75 441.6 383.75 443.1 383.75 444.6 383.75 573.7 383.75 702.8
L 385.25 702.8
Q 386.7 750.3 386.7 797.8 386.7 799.3 386.7 800.75 386.7 831.95 386.7 863.1 388.2 863.1 389.25 863.7 431.85 888.65 457.95 875 457.95 731 457.95 587.05 457.95 585.6 457.95 584.1 457.95 454.95 457.95 325.85 457.95 324.35 457.95 322.9 452.75 282.1 455 233.85 455 232.35 455 230.85 455 210.1 455 189.3 455 187.85 455 186.35 455 135.9 455 85.45 455 83.95 455 82.45 449.8 63.9 451.85 37.95 Z"/>

<path fill="#776452" stroke="none" d="
M 594.5 132.9
Q 594.5 134.4 594.5 135.9 594.5 193.75 594.5 251.65 595.95 251.65 597.45 251.65 597.45 193.75 597.45 135.9 597.45 134.4 597.45 132.9 595.95 132.9 594.5 132.9 Z"/>

<path fill="#8C8D96" stroke="none" d="
M 600.4 91.35
Q 600.4 92.85 600.4 94.35 600.4 190.8 600.4 287.25 600.45 287.25 600.55 287.25 601.95 287.25 603.4 287.25 603.4 189.3 601.9 91.35
L 600.4 91.35 Z"/>

<path fill="#D0D7E2" stroke="none" d="
M 594.5 88.4
Q 594.5 86.9 594.5 85.45 597.75 2 489.4 22.95 474.1 25.9 469.8 34.95 467.95 42.65 466.6 50.85 460.2 88.35 463.75 135.9 463.9 137.4 463.9 138.85
L 465.35 138.85
Q 466.85 195.25 466.85 251.65 466.85 253.15 466.85 254.6 466.85 299.95 466.85 345.3 466.85 345.95 466.85 346.65 466.85 348.1 466.85 349.6 466.85 395.6 466.85 441.6
L 468.35 441.6
Q 469.8 512.85 469.8 584.1 469.8 585.6 469.8 587.05 469.8 734.75 469.8 882.45 469.8 884.65 469.8 886.85 469.9 886.85 469.95 886.85 471.4 886.85 472.8 886.85 475.75 886.85 478.75 886.85 478.75 885.35 478.85 883.9 484.05 847.8 535.1 857.15 534.95 852.7 535.1 848.25 535.1 846.8 535.1 845.3 535.1 636.05 535.1 426.8 535.1 425.3 535.1 423.8 535.1 407.5 535.1 391.15 535.1 389.65 535.1 388.2 535.1 386.7 534.95 385.2 532.9 359.25 538.1 340.7 538.1 337.75 538.1 334.75 538.1 333.3 538.1 331.8 538.1 330.3 538.25 330.3 563.3 328.85 588.55 328.85 588.65 328.85 588.7 328.85 590.1 328.85 591.5 328.85 593 328.85 594.5 328.85 594.5 328.8 594.5 328.7 594.5 291.65 594.5 254.6 594.5 253.15 594.5 251.65 594.5 193.75 594.5 135.9 594.5 134.4 594.5 132.9 594.5 110.65 594.5 88.4 Z"/>

<path fill="#533D29" stroke="none" d="
M 595.95 85.6
Q 595.95 85.45 594.5 85.45 594.5 86.9 594.5 88.4 594.5 110.65 594.5 132.9 595.95 132.9 597.45 132.9 597.45 109.2 595.95 85.6 Z"/>

<path fill="#BAACA8" stroke="none" d="
M -0.65 584.25
Q -0.65 584.1 -2.15 584.1 -2.15 585.6 -2.15 587.05 -2.15 728.05 -2.15 869.05 -0.65 869.05 -0.05 869.8 14.95 886.85 39.45 889.8 39.45 683.55 39.45 477.25 39.45 475.75 39.45 474.25 39.45 352.55 39.45 230.85 39.45 229.4 39.45 227.9 37.95 227.9 36.45 227.9 36.3 250.15 36.3 272.45 36 544 36.45 845.3 17.9 718.55 -0.65 584.25 Z"/>

<path fill="#C7C3C5" stroke="none" d="
M -2.15 32
Q -2.15 33.5 -2.15 34.95 -2.15 309.55 -2.15 584.1 -0.65 584.1 -0.65 584.25 17.9 718.55 36.45 845.3 36 544 36.3 272.45 36.3 250.15 36.45 227.9 36.45 210.1 36.45 192.3 36.45 190.8 36.45 189.3 36.45 177.45 36.45 165.55 36.45 164.1 36.45 162.6 31.25 135.15 33.35 100.25 33.5 98.8 33.5 97.3 33.5 79.5 33.5 61.7 33.5 60.2 33.5 58.7 37.35 25.2 0.85 31.7 -0.65 32 -2.15 32 Z"/>

<path fill="#878396" stroke="none" d="
M 689.45 860.15
Q 689.45 858.65 689.45 857.15 639.15 848.4 633.35 883.9 633.05 885.35 633.05 886.85 634.55 886.85 636.05 886.85 666.9 886.4 689.45 883.9 689.45 872 689.45 860.15 Z"/>

<path fill="#C6B6A8" stroke="none" d="
M 796.3 866.05
Q 796.3 864.6 796.3 863.1 786.25 886.4 780.15 860.45 780 860.15 778.65 860.15 778.6 860.15 778.5 860.15 778.5 861.6 778.2 863.1 773 886.4 787.4 889.8 787.5 889.8 787.55 889.8 788.9 889.8 788.9 889.65 789.8 880.45 796.3 886.85 796.45 876.45 796.3 866.05 Z"/>

<path fill="#464139" stroke="none" d="
M 820.05 892.8
Q 820.05 892.75 820.05 892.65 820.05 891.25 820.05 889.8 808.2 889.8 796.45 891.3 796.3 891.3 796.3 892.65 796.3 892.7 796.3 892.8 797.8 892.8 799.3 892.8 809.85 892.8 820.05 892.8 Z"/>

<path fill="#505359" stroke="none" d="
M 820.05 888.35
L 820.05 889.8
Q 820.15 889.8 820.2 889.8 821.6 889.85 822.75 890.4 831.65 894.4 846.8 892.8 846.8 892.75 846.8 892.7 846.8 891.25 846.8 889.8 846.8 888.35 846.8 886.85 834 890.55 820.05 888.35 Z"/>

<path fill="#8D8B98" stroke="none" d="
M 846.8 863.1
Q 846.8 861.6 846.8 860.15 825.55 860 805.25 860.15 803.75 860.15 802.25 860.15 800.8 861.6 799 862.5 797.8 863.1 796.3 863.1 796.3 864.6 796.3 866.05 796.45 876.45 796.3 886.85 789.8 880.45 788.9 889.65 788.9 889.8 787.55 889.8 787.5 889.8 787.4 889.8 787.4 891.3 787.85 891.45 791.7 892.8 796.3 892.8 796.3 892.7 796.3 892.65 796.3 891.3 796.45 891.3 808.2 889.8 820.05 889.8
L 820.05 888.35
Q 834 890.55 846.8 886.85 846.8 875 846.8 863.1 Z"/>

<path fill="#A6BBD5" stroke="none" d="
M 846.8 860.15
Q 846.8 851.25 846.8 842.35 846.8 840.85 846.8 839.35 837.3 861.05 802.25 858.65
L 802.25 860.15
Q 803.75 860.15 805.25 860.15 825.55 860 846.8 860.15 Z"/>

<path fill="#7A6C68" stroke="none" d="
M 932.85 857.15
Q 932.85 858.65 932.7 860.15 930.65 878.7 935.85 889.8 935.85 889.55 935.85 889.35 935.85 888.1 935.85 886.85 935.7 873.5 935.85 860.15 935.85 858.65 935.85 857.15 934.4 857.15 933 857.15 932.9 857.15 932.85 857.15 Z"/>

<path fill="#705B34" stroke="none" d="
M 1004.1 892.8
Q 1004.1 892.75 1004.1 892.65 1004.1 891.25 1004.1 889.8 971.45 889.8 938.8 889.8 937.4 889.8 936 889.8 935.9 889.8 935.85 889.8
L 935.85 891.3
Q 969.95 892.8 1004.1 892.8 Z"/>

<path fill="#867554" stroke="none" d="
M 1010.05 883.9
Q 1010.05 885.35 1010.35 886.85 1012.25 896.5 1027.85 892.8 1027.75 892.75 1027.7 892.75 1020.3 889.75 1013.6 885.8 1013 885.35 1013 883.9 1011.6 883.9 1010.2 883.9 1010.15 883.9 1010.05 883.9 Z"/>

<path fill="#C3AF8C" stroke="none" d="
M 1004.1 883.9
Q 1004.1 882.4 1004.1 880.9 977.85 889.8 938.8 887 937.3 886.85 935.85 886.85 935.85 888.1 935.85 889.35 935.85 889.55 935.85 889.8 935.9 889.8 936 889.8 937.4 889.8 938.8 889.8 971.45 889.8 1004.1 889.8 1004.1 886.85 1004.1 883.9 Z"/>

<path fill="#716B6B" stroke="none" d="
M 1084.25 866.05
Q 1084.25 865.5 1084.25 864.9 1083.5 896.8 1033.8 891.3
L 1033.8 892.8
Q 1035.25 892.8 1036.75 892.8 1060.5 892.8 1084.25 892.8 1084.25 892.75 1084.25 892.65 1084.25 879.35 1084.25 866.05 Z"/>

<path fill="#5C4624" stroke="none" d="
M 1176.25 886.85
Q 1176.25 888.35 1176.85 888.65 1188.85 895 1208.9 892.8 1208.9 892.75 1208.9 892.7 1208.9 891.25 1208.9 889.8 1204.45 889.8 1200 889.8 1198.5 889.8 1197.05 889.8 1188.15 889.8 1179.5 888.35 1179.2 888.35 1179.2 886.85 1177.8 886.85 1176.4 886.85 1176.35 886.85 1176.25 886.85 Z"/>

<path fill="#8A8593" stroke="none" d="
M 1247.5 863.1
Q 1247.5 861.6 1247.5 860.15 1211.15 865.9 1197.8 887.3 1197.05 888.35 1197.05 889.8 1198.5 889.8 1200 889.8 1204.45 889.8 1208.9 889.8 1209 889.8 1209.05 889.8 1210.45 889.8 1211.85 889.8 1216.35 889.8 1220.8 889.8 1220.8 889.7 1220.8 889.65 1220.8 888.35 1220.95 888.35 1234.15 886.85 1247.5 886.85 1247.5 875 1247.5 863.1 Z"/>

<path fill="#56575F" stroke="none" d="
M 1247.5 848.25
Q 1247.5 854.2 1247.5 860.15 1247.5 861.6 1247.5 863.1 1247.5 875 1247.5 886.85 1234.15 886.85 1220.95 888.35 1220.8 888.35 1220.8 889.65 1220.8 889.7 1220.8 889.8 1222.25 889.8 1223.6 890.25 1235.3 893.7 1250.45 889.8 1250.45 889.75 1250.45 889.7 1250.45 869 1250.45 848.25 1250.45 846.8 1250.45 845.3 1249 845.3 1247.5 845.3 1247.5 846.8 1247.5 848.25 Z"/>

<path fill="#A79165" stroke="none" d="
M 1452.3 889.8
Q 1438.95 889.8 1425.6 889.8 1424.2 889.8 1422.75 889.8 1422.7 889.8 1422.6 889.8 1422.6 891.3 1422.75 891.3 1437.45 892.8 1452.3 892.8 1452.3 892.7 1452.3 892.65 1452.3 891.2 1452.3 889.8 Z"/>

<path fill="#716A70" stroke="none" d="
M 1490.9 869.35
Q 1488.95 891 1458.25 889.8 1456.75 889.8 1455.25 889.8 1453.8 889.8 1452.3 889.8 1452.3 891.2 1452.3 892.65 1452.3 892.7 1452.3 892.8 1453.8 892.8 1455.25 892.8 1473.1 892.8 1490.9 892.8 1490.9 892.75 1490.9 892.65 1490.9 881 1490.9 869.35 Z"/>

<path fill="#888291" stroke="none" d="
M 1490.9 857.15
Q 1490.9 855.7 1490.9 854.2 1454.4 851.85 1455.25 886.85 1455.25 888.35 1455.25 889.8 1456.75 889.8 1458.25 889.8 1488.95 891 1490.9 869.35 1490.9 867.7 1490.9 866.05 1490.9 864.6 1490.9 863.1 1490.9 860.15 1490.9 857.15 Z"/>

<path fill="#555861" stroke="none" d="
M 1624.45 892.8
Q 1637.8 892.8 1651.15 892.8 1651.15 892.75 1651.15 892.65 1651.15 879.35 1651.15 866.05 1649.7 891.45 1621.5 891.3
L 1621.5 892.8
Q 1622.95 892.8 1624.45 892.8 Z"/>

<path fill="#D7AC7D" stroke="none" d="
M 1740.2 872
Q 1740.2 873.5 1740.05 875 1738.15 887.6 1743.2 892.8 1743.3 892.8 1743.35 892.8 1744.75 892.8 1746.15 892.8 1758.05 892.8 1769.9 892.8 1769.9 891.3 1769.9 889.8 1739.9 897.55 1741.7 872
L 1740.2 872 Z"/>

<path fill="#5E2A1C" stroke="none" d="
M 1740.2 821.55
Q 1739.1 821.55 1738.75 821.75 1738.65 821.8 1738.6 821.85 1735 837 1740.2 845.3 1740.2 845.1 1740.2 844.9 1740.2 834.7 1740.2 824.5 1740.2 823.05 1740.2 821.55 Z"/>

<path fill="#5F5D60" stroke="none" d="
M 1811.45 889.7
Q 1811.45 869 1811.45 848.25 1811.45 846.8 1811.45 845.3 1804.65 880.45 1772.7 892.35 1771.4 892.8 1769.9 892.8 1758.05 892.8 1746.15 892.8 1744.75 892.8 1743.35 892.8 1743.3 892.8 1743.2 892.8 1743.2 894.25 1743.35 894.25 1781.35 896.8 1811.45 889.8 1811.45 889.75 1811.45 889.7 Z"/>

<path fill="#8C7244" stroke="none" d="
M 1903.15 887.45
Q 1902.05 886.9 1900.65 886.85 1900.6 886.85 1900.5 886.85 1900.5 888.35 1901.1 888.65 1921.45 900.05 1956.9 895.75 1956.9 895.7 1956.9 895.65 1956.9 894.2 1956.9 892.8 1922.9 897.1 1903.15 887.45 Z"/>

<path fill="#FEE2C8" stroke="none" d="
M 1903.45 667.2
Q 1903.45 668.7 1903.45 670.15 1903.45 686.5 1903.45 702.8 1904.95 702.8 1906.45 702.8 1906.45 685 1904.95 667.35 1904.95 667.2 1903.45 667.2 Z"/>

<path fill="#5E2B1C" stroke="none" d="
M 1740.2 735.45
Q 1739.2 735.45 1738.9 735.55 1738.75 735.55 1738.75 735.6 1735 776.3 1740.2 809.7 1740.2 809.15 1740.2 808.6 1740.2 773.5 1740.2 738.45 1740.2 736.95 1740.2 735.45 Z"/>

<path fill="#7E8699" stroke="none" d="
M 1651.15 634.55
Q 1651.15 633.05 1651.15 631.6 1646 733.25 1648.2 842.35 1648.2 843.8 1648.2 845.3 1624.15 844.7 1599.8 889.1 1597.75 892.75 1589 892.8 1588.95 892.8 1588.85 892.8 1588.85 894.25 1589 894.25 1608.15 897.25 1621.5 892.8
L 1621.5 891.3
Q 1649.7 891.45 1651.15 866.05 1651.15 864.6 1651.15 863.1 1651.15 861.6 1651.15 860.15 1651.15 747.35 1651.15 634.55 Z"/>

<path fill="#C29577" stroke="none" d="
M 1743.2 435.7
Q 1743.2 434.2 1743.2 432.7 1741.8 432.7 1740.35 432.7 1740.3 432.7 1740.2 432.7 1740.2 434.2 1740.2 435.7 1740.2 484.65 1740.2 533.65 1740.3 533.65 1740.35 533.65 1741.8 533.65 1743.2 533.65 1743.2 484.65 1743.2 435.7 Z"/>

<path fill="#945F38" stroke="none" d="
M 1903.45 560.35
Q 1902.05 560.35 1900.65 560.35 1900.6 560.35 1900.5 560.35 1900.5 561.85 1900.5 563.3 1900.5 633.05 1900.5 702.8 1900.6 702.8 1900.65 702.8 1902.05 702.8 1903.45 702.8 1903.45 686.5 1903.45 670.15 1903.45 668.7 1903.45 667.2 1903.45 615.25 1903.45 563.3 1903.45 561.85 1903.45 560.35 Z"/>

<path fill="#6F3913" stroke="none" d="
M 1903.45 515.8
Q 1903.45 514.55 1903.45 513.25 1903.45 513.05 1903.45 512.85 1898.25 531.4 1900.35 557.4 1900.5 558.85 1900.5 560.35 1900.6 560.35 1900.65 560.35 1902.05 560.35 1903.45 560.35 1903.45 538.1 1903.45 515.8 Z"/>

<path fill="#723E1A" stroke="none" d="
M 1422.6 539.55
Q 1422.6 538.1 1422.6 536.6
L 1421.3 536.6 1421.15 536.6
Q 1417.4 713.95 1422.6 883.9 1422.6 881.35 1422.6 878.8 1422.6 709.2 1422.6 539.55 Z"/>

<path fill="#AA7F7A" stroke="none" d="
M 1582.9 512.85
Q 1581.5 512.85 1580.1 512.85 1580 512.85 1579.95 512.85 1579.95 514.35 1579.95 515.8 1579.95 573.7 1579.95 631.6 1580 631.6 1580.1 631.6 1581.5 631.6 1582.9 631.6 1582.9 573.7 1582.9 515.8 1582.9 514.35 1582.9 512.85 Z"/>

<path fill="#35485F" stroke="none" d="
M 1493.85 512.85
Q 1492.35 512.85 1490.9 512.85 1490.9 514.35 1490.9 515.8 1490.9 640.5 1490.9 765.15 1490.95 765.15 1491.05 765.15 1492.45 765.15 1493.85 765.15 1493.85 765.1 1493.85 765 1493.85 640.45 1493.85 515.8 1493.85 514.35 1493.85 512.85 Z"/>

<path fill="#763839" stroke="none" d="
M 1582.9 420.85
Q 1582.9 419.9 1582.9 418.95 1582.9 418.4 1582.9 417.85 1577.7 460.15 1579.95 509.9 1579.95 511.35 1579.95 512.85 1580 512.85 1580.1 512.85 1581.5 512.85 1582.9 512.85 1582.9 466.85 1582.9 420.85 Z"/>

<path fill="#D9A380" stroke="none" d="
M 1563.6 299.3
Q 1563.6 299.15 1562.25 299.15 1562.2 299.15 1562.1 299.15 1562.1 300.65 1562.1 302.1 1562.1 314 1562.1 325.85 1562.2 325.85 1562.25 325.85 1563.7 325.85 1565.1 325.85 1565.1 312.5 1563.6 299.3 Z"/>

<path fill="#6C594F" stroke="none" d="
M 1582.9 334.75
Q 1582.9 334.55 1582.95 334.4 1584.05 321.6 1567.9 325.55 1566.6 325.85 1565.1 325.85 1563.7 325.85 1562.25 325.85 1562.2 325.85 1562.1 325.85
L 1562.1 327.35
Q 1578 326.3 1582.9 334.75 Z"/>

<path fill="#687C95" stroke="none" d="
M 1493.85 376.3
Q 1493.85 374.85 1493.85 373.35 1488.65 437.9 1490.9 509.9 1490.9 511.35 1490.9 512.85 1492.35 512.85 1493.85 512.85 1493.85 444.6 1493.85 376.3 Z"/>

<path fill="#96908E" stroke="none" d="
M 1496.95 327.35
Q 1496.8 327.35 1496.8 328.85 1496.85 328.85 1496.9 328.85 1498.35 328.85 1499.8 328.85 1526.5 328.85 1553.2 328.85 1553.2 328.8 1553.2 328.7 1553.2 327.3 1553.2 325.85 1525 325.85 1496.95 327.35 Z"/>

<path fill="#B0B9AB" stroke="none" d="
M 1556.2 242.75
Q 1556.2 241.25 1556.2 239.8 1551 277.6 1553.2 322.9 1553.2 324.35 1553.2 325.85 1553.3 325.85 1553.35 325.85 1554.8 325.85 1556.2 325.85 1556.2 325.75 1556.2 325.7 1556.2 284.2 1556.2 242.75 Z"/>

<path fill="#BFA99A" stroke="none" d="
M 1339.65 332.7
Q 1339.55 330.75 1339.5 328.85 1339.5 330.3 1339.5 331.8 1337.3 614.5 1342.5 889.8
L 1342.5 891.3
Q 1378.1 892.8 1413.7 892.8 1413.7 892.75 1413.7 892.65 1413.7 891.25 1413.7 889.8 1413.7 888.35 1413.7 886.85 1382.85 889.8 1348.4 887 1346.95 886.85 1345.45 886.85 1340.4 768.7 1342.6 613.75 1344.65 469.6 1339.65 332.7 Z"/>

<path fill="#B08164" stroke="none" d="
M 1425.6 204.15
Q 1424.2 204.15 1422.75 204.15 1422.7 204.15 1422.6 204.15 1422.6 205.65 1422.6 207.15 1422.6 297.65 1422.6 388.2 1422.7 388.2 1422.75 388.2 1424.2 388.2 1425.6 388.2 1425.6 297.65 1425.6 207.15 1425.6 205.65 1425.6 204.15 Z"/>

<path fill="#4D4D4D" stroke="none" d="
M 1416.7 135.9
Q 1415.2 135.9 1413.7 135.9 1413.7 137.4 1413.7 138.85 1413.7 183.4 1413.7 227.9 1413.8 227.9 1413.85 227.9 1415.3 227.9 1416.7 227.9 1416.7 227.85 1416.7 227.75 1416.7 183.35 1416.7 138.85 1416.7 137.4 1416.7 135.9 Z"/>

<path fill="#6F4D36" stroke="none" d="
M 1425.6 135.9
Q 1425.6 134.75 1425.6 133.65 1425.6 133.25 1425.6 132.9 1420.4 163.35 1422.45 201.2 1422.6 202.7 1422.6 204.15 1422.7 204.15 1422.75 204.15 1424.2 204.15 1425.6 204.15 1425.6 170.05 1425.6 135.9 Z"/>

<path fill="#7F8281" stroke="none" d="
M 1416.7 67.6
Q 1415.2 67.6 1413.7 67.6 1413.7 69.1 1413.7 70.6 1413.7 103.25 1413.7 135.9 1415.2 135.9 1416.7 135.9 1416.7 103.25 1416.7 70.6 1416.7 69.1 1416.7 67.6 Z"/>

<path fill="#8C908A" stroke="none" d="
M 1413.7 32
Q 1413.7 33.5 1413.7 34.95 1413.7 51.3 1413.7 67.6 1415.2 67.6 1416.7 67.6 1416.7 49.8 1415.2 32.15 1415.2 32 1413.7 32 Z"/>

<path fill="#939390" stroke="none" d="
M 1387 29.05
Q 1387 27.55 1387 26.05 1352.85 26.05 1318.75 26.05 1317.25 26.05 1315.75 26.05
L 1315.75 27.55
Q 1351.4 29.05 1387 29.05 Z"/>

<path fill="#996D57" stroke="none" d="
M 1428.55 38.25
Q 1428.55 38.1 1428.55 37.95 1423.35 53.5 1425.45 76.55 1425.6 78 1425.6 79.5 1425.65 79.5 1425.75 79.5 1427.15 79.5 1428.55 79.5 1428.55 60.2 1428.55 40.9 1428.55 39.55 1428.55 38.25 Z"/>

<path fill="#767372" stroke="none" d="
M 1434.5 29.05
Q 1434.55 29.05 1434.65 29.05 1436.05 29.05 1437.45 29.05 1492.35 29.05 1547.3 29.05 1494.6 23.85 1434.65 27.55 1434.55 27.55 1434.5 28.6 1434.5 28.8 1434.5 29.05 Z"/>

<path fill="#B08C5F" stroke="none" d="
M 1562.25 168.55
Q 1562.2 168.55 1562.1 168.55 1562.1 170.05 1562.1 171.5 1562.1 229.4 1562.1 287.25 1562.2 287.25 1562.25 287.25 1563.7 287.25 1565.1 287.25 1565.1 229.4 1565.1 171.5 1565.1 170.05 1565.1 168.55 1563.7 168.55 1562.25 168.55 Z"/>

<path fill="#7B4D31" stroke="none" d="
M 1565.1 98.05
Q 1565.1 97.65 1565.1 97.3 1559.9 127.75 1562 165.55 1562.1 167.05 1562.1 168.55 1562.2 168.55 1562.25 168.55 1563.7 168.55 1565.1 168.55 1565.1 135.9 1565.1 103.25 1565.1 101.75 1565.1 100.25 1565.1 99.15 1565.1 98.05 Z"/>

<path fill="#535D5F" stroke="none" d="
M 1559.15 88.4
Q 1559.15 86.9 1559.15 85.45 1557.65 85.45 1556.2 85.45 1556.2 86.9 1556.2 88.4 1556.2 122.55 1556.2 156.65 1556.25 156.65 1556.35 156.65 1557.75 156.65 1559.15 156.65 1559.15 156.6 1559.15 156.5 1559.15 122.5 1559.15 88.4 Z"/>

<path fill="#BC8870" stroke="none" d="
M 1568.05 40.9
Q 1568.05 39.4 1568.05 37.95 1566.65 44.6 1565.8 51.8 1563.4 71.1 1564.95 94.35 1565.1 95.8 1565.1 97.3 1565.1 97.65 1565.1 98.05 1565.1 99.15 1565.1 100.25 1566.6 100.25 1568.05 100.25 1568.05 70.6 1568.05 40.9 Z"/>

<path fill="#DEE2E7" stroke="none" d="
M 1556.2 40.9
Q 1556.2 39.4 1556.2 37.95 1556.8 29.95 1550.25 29.2 1548.75 29.05 1547.3 29.05 1492.35 29.05 1437.45 29.05 1436.05 29.05 1434.65 29.05 1434.55 29.05 1434.5 29.05 1434.5 30.45 1434.5 31.95
L 1434.5 32
Q 1433.05 32.7 1431.8 33.6
L 1429.45 35.55 1429.45 35.6
Q 1429.35 35.65 1429.3 35.7 1428.55 36.45 1428.55 37.95 1428.55 38.1 1428.55 38.25 1428.55 39.55 1428.55 40.9 1428.55 60.2 1428.55 79.5 1427.15 79.5 1425.75 79.5 1425.65 79.5 1425.6 79.5 1425.6 81 1425.6 82.45 1425.6 107.7 1425.6 132.9 1425.6 133.25 1425.6 133.65 1425.6 134.75 1425.6 135.9 1425.6 170.05 1425.6 204.15 1425.6 205.65 1425.6 207.15 1425.6 297.65 1425.6 388.2 1424.2 388.2 1422.75 388.2 1422.7 388.2 1422.6 388.2 1422.6 389.65 1422.6 391.15 1422.6 463.8 1422.6 536.45 1422.6 536.5 1422.6 536.6 1422.6 538.1 1422.6 539.55 1422.6 709.2 1422.6 878.8 1422.6 881.35 1422.6 883.9 1422.6 885.35 1422.6 886.85 1422.6 888.35 1422.6 889.8 1422.7 889.8 1422.75 889.8 1424.2 889.8 1425.6 889.8 1438.95 889.8 1452.3 889.8 1453.8 889.8 1455.25 889.8 1455.25 888.35 1455.25 886.85 1454.4 851.85 1490.9 854.2 1490.9 811.15 1490.9 768.1 1490.9 766.65 1490.9 765.15 1490.9 640.5 1490.9 515.8 1490.9 514.35 1490.9 512.85 1490.9 511.35 1490.9 509.9 1488.65 437.9 1493.85 373.35 1493.85 371.85 1493.7 370.4 1491.65 345.9 1496.8 328.85 1496.8 327.35 1496.95 327.35 1525 325.85 1553.2 325.85 1553.2 324.35 1553.2 322.9 1551 277.6 1556.2 239.8 1556.2 199.7 1556.2 159.65 1556.2 158.15 1556.2 156.65 1556.2 122.55 1556.2 88.4 1556.2 86.9 1556.2 85.45 1556.2 63.15 1556.2 40.9 Z"/>

<path fill="#6C746C" stroke="none" d="
M 1557.65 38.1
Q 1557.65 37.95 1556.2 37.95 1556.2 39.4 1556.2 40.9 1556.2 63.15 1556.2 85.45 1557.65 85.45 1559.15 85.45 1559.15 61.7 1557.65 38.1 Z"/>

<path fill="#5E3D29" stroke="none" d="
M 1897.45 395.8
L 1897.4 395.75
Q 1897.25 395.8 1903.45 417.85 1903.45 417.5 1903.45 417.2 1903.45 416.05 1903.45 414.9 1903.45 413.4 1903.45 411.95 1902.1 411.95 1901.9 411.6 1901.85 411.55 1901.85 411.5 1897.6505859375 396.6517578125 1897.45 395.8 Z"/>

<path fill="#A4593D" stroke="none" d="
M 1904.95 328.95
Q 1904.95 328.85 1903.6 328.85 1903.55 328.85 1903.45 328.85 1903.45 330.3 1903.45 331.8 1903.45 355.55 1903.45 379.3 1903.55 379.3 1903.6 379.3 1905.05 379.3 1906.45 379.3 1906.45 354.05 1904.95 328.95 Z"/>

<path fill="#324E6F" stroke="none" d="
M 1814.4 385.2
Q 1814.4 383.75 1814.4 382.25 1812.95 382.25 1811.45 382.25 1811.45 383.75 1811.45 385.2 1811.45 450.5 1811.45 515.8 1811.55 515.8 1811.6 515.8 1813 515.8 1814.4 515.8 1814.4 515.75 1814.4 515.65 1814.4 450.45 1814.4 385.2 Z"/>

<path fill="#97A7C3" stroke="none" d="
M 1796.75 370.4
Q 1796.6 368.9 1796.6 367.4 1776 530.35 1775.1 723.6 1774.8 778.95 1775.85 845.3 1777.3 845.3 1777.3 845.15 1789.8 719.15 1790.7 607.85 1790.7 606.35 1791.1 606.2 1801.5 601.9 1787.7 572.2 1787.7 566.3 1790.4 564.65
L 1795.3 561.7
Q 1795.7 533.5 1802.55 465.35 1802.55 466.85 1802.55 468.35 1800.3 535.85 1805.5 595.95 1807.75 476.5 1802.55 388.2
L 1802.55 397.1
Q 1801.05 421.6 1796.75 370.4 Z"/>

<path fill="#647B99" stroke="none" d="
M 1811.45 355.55
Q 1811.45 357 1811.45 358.5 1811.45 370.4 1811.45 382.25 1812.95 382.25 1814.4 382.25 1814.4 364.45 1814.4 346.65 1814.4 345.15 1814.4 343.65 1809.4 344.55 1811.15 352.55 1811.45 354.05 1811.45 355.55 Z"/>

<path fill="#8A98B3" stroke="none" d="
M 1811.45 358.5
Q 1811.45 357 1811.45 355.55 1802.1 358.05 1797.35 364.9 1796.6 365.95 1796.6 367.4 1796.6 368.9 1796.75 370.4 1801.05 421.6 1802.55 397.1
L 1802.55 388.2
Q 1807.75 476.5 1805.5 595.95 1800.3 535.85 1802.55 468.35 1802.55 466.85 1802.55 465.35 1795.7 533.5 1795.3 561.7
L 1790.4 564.65
Q 1787.7 566.3 1787.7 572.2 1801.5 601.9 1791.1 606.2 1790.7 606.35 1790.7 607.85 1789.8 719.15 1777.3 845.15 1777.3 845.3 1775.85 845.3 1775.85 846.8 1775.85 848.25 1775.85 854.2 1775.85 860.15 1769 876 1769.75 886.85 1769.9 888.35 1769.9 889.8 1769.9 891.3 1769.9 892.8 1771.4 892.8 1772.7 892.35 1804.65 880.45 1811.45 845.3 1811.45 682.05 1811.45 518.8 1811.45 517.3 1811.45 515.8 1811.45 450.5 1811.45 385.2 1811.45 383.75 1811.45 382.25 1811.45 370.4 1811.45 358.5 Z"/>

<path fill="#786A62" stroke="none" d="
M 1844.25 325.85
Q 1844.2 325.85 1844.1 325.85
L 1844.1 327.35
Q 1873.8 328.85 1903.45 328.85 1903.1 328.75 1902.8 328.7 1880 323.7 1850.05 325.7 1848.55 325.85 1847.05 325.85 1845.65 325.85 1844.25 325.85 Z"/>

<path fill="#803A1C" stroke="none" d="
M 1844.1 275.4
Q 1843.05 275.4 1842.75 275.5 1842.6 275.5 1842.6 275.55 1838.9 304.35 1844.1 325.85 1844.1 325.45 1844.1 325.1 1844.1 301.7 1844.1 278.35 1844.1 276.9 1844.1 275.4 Z"/>

<path fill="#666D5B" stroke="none" d="
M 1838.15 254.6
Q 1836.7 254.6 1835.2 254.6 1835.2 256.1 1835.2 257.6 1835.2 287.25 1835.2 316.95 1835.3 316.95 1835.35 316.95 1836.75 316.95 1838.15 316.95 1838.15 316.9 1838.15 316.8 1838.15 287.2 1838.15 257.6 1838.15 256.1 1838.15 254.6 Z"/>

<path fill="#CA9062" stroke="none" d="
M 1847.05 204.15
Q 1845.65 204.15 1844.25 204.15 1844.2 204.15 1844.1 204.15 1844.1 205.65 1844.1 207.15 1844.1 241.2 1844.1 275.25 1844.1 275.35 1844.1 275.4 1844.1 276.9 1844.1 278.35 1844.1 301.7 1844.1 325.1 1844.1 325.45 1844.1 325.85 1844.2 325.85 1844.25 325.85 1845.65 325.85 1847.05 325.85 1847.05 324.35 1847.05 322.9 1844.85 265.75 1850.05 216.05 1850.05 210.1 1848.7 204.45 1848.55 204.15 1847.05 204.15 Z"/>

<path fill="#8F5840" stroke="none" d="
M 1728.35 328.7
Q 1728.35 328.75 1728.35 328.85 1729.85 328.85 1730 329.4 1746.75 369.8 1740.2 432.7 1740.3 432.7 1740.35 432.7 1741.8 432.7 1743.2 432.7 1751.8 364.75 1730.15 326.45 1729.85 325.85 1728.35 325.85 1728.35 327.25 1728.35 328.7 Z"/>

<path fill="#55483F" stroke="none" d="
M 1707.55 325.85
Q 1706.15 325.85 1704.75 325.85 1704.7 325.85 1704.6 325.85 1704.6 327.35 1704.75 327.35 1716.45 328.85 1728.35 328.85 1728.35 328.75 1728.35 328.7 1728.35 327.25 1728.35 325.85 1717.95 325.85 1707.55 325.85 Z"/>

<path fill="#374961" stroke="none" d="
M 1654.15 394.15
Q 1652.65 394.15 1651.15 394.15 1651.15 395.6 1651.15 397.1 1651.15 466.85 1651.15 536.6 1651.25 536.6 1651.3 536.6 1652.75 536.6 1654.15 536.6 1654.15 536.5 1654.15 536.45 1654.15 466.75 1654.15 397.1 1654.15 395.6 1654.15 394.15 Z"/>

<path fill="#62758D" stroke="none" d="
M 1654.15 394.15
Q 1654.15 371.85 1654.15 349.6 1654.15 348.1 1654.15 346.65 1648.95 365.2 1651 391.15 1651.15 392.65 1651.15 394.15 1652.65 394.15 1654.15 394.15 Z"/>

<path fill="#736E6A" stroke="none" d="
M 1692.75 328.7
Q 1692.75 327.3 1692.75 325.85 1673.45 325.85 1654.3 327.35 1654.15 327.35 1654.15 328.85 1654.2 328.85 1654.3 328.85 1655.7 328.85 1657.1 328.85 1674.9 328.85 1692.75 328.85 1692.75 328.8 1692.75 328.7 Z"/>

<path fill="#814723" stroke="none" d="
M 1701.65 278.35
Q 1701.65 276.9 1701.65 275.4 1701.65 263.5 1701.65 251.65 1701.65 250.15 1701.65 248.7 1700.6 248.7 1700.3 248.8 1700.15 248.8 1700.15 248.85 1696.45 291 1701.65 325.85 1701.65 325.25 1701.65 324.7 1701.65 301.5 1701.65 278.35 Z"/>

<path fill="#D1976F" stroke="none" d="
M 1707.55 159.65
Q 1707.55 158.15 1706.8 157.4 1706.1 156.65 1704.6 156.65 1703.2 156.65 1701.8 156.65 1701.7 156.65 1701.65 156.65 1701.65 158.15 1701.65 159.65 1701.65 204.1 1701.65 248.55 1701.65 248.65 1701.65 248.7 1701.65 250.15 1701.65 251.65 1701.65 263.5 1701.65 275.4
L 1703.1 275.4
Q 1702.35 213.8 1707.55 159.65 Z"/>

<path fill="#455155" stroke="none" d="
M 1695.7 127
Q 1695.7 128.45 1695.7 129.95 1695.7 152.2 1695.7 174.5 1695.8 174.5 1695.85 174.5 1697.25 174.5 1698.65 174.5 1698.65 174.45 1698.65 174.35 1698.65 152.15 1698.65 129.95 1698.65 128.45 1698.65 127 1697.2 127 1695.7 127 Z"/>

<path fill="#DCDDE1" stroke="none" d="
M 1695.7 97.3
Q 1695.7 95.8 1695.7 94.35 1695.7 92.85 1695.55 91.35 1693.45 75.8 1698.65 67.6 1695.85 30.05 1662.6 19.25 1639.75 11.65 1602.35 17 1595.95 17.9 1590.6 19.55 1573.25 24.9 1568.05 37.95 1568.05 39.4 1568.05 40.9 1568.05 70.6 1568.05 100.25 1566.6 100.25 1565.1 100.25 1565.1 101.75 1565.1 103.25 1565.1 135.9 1565.1 168.55 1565.1 170.05 1565.1 171.5 1565.1 229.4 1565.1 287.25 1563.7 287.25 1562.25 287.25 1562.2 287.25 1562.1 287.25 1562.1 288.75 1562.1 290.25 1562.1 294.7 1562.1 299.15 1562.2 299.15 1562.25 299.15 1563.6 299.15 1563.6 299.3 1565.1 312.5 1565.1 325.85 1566.6 325.85 1567.9 325.55 1584.05 321.6 1582.95 334.4 1582.9 334.55 1582.9 334.75 1582.9 336.25 1582.9 337.75 1582.9 377.8 1582.9 417.85 1582.9 418.4 1582.9 418.95 1582.9 419.9 1582.9 420.85 1582.9 466.85 1582.9 512.85 1582.9 514.35 1582.9 515.8 1582.9 573.7 1582.9 631.6 1581.5 631.6 1580.1 631.6 1580 631.6 1579.95 631.6 1579.95 633.05 1579.95 634.55 1573.25 774.8 1588.85 892.8 1588.95 892.8 1589 892.8 1597.75 892.75 1599.8 889.1 1624.15 844.7 1648.2 845.3 1648.2 843.8 1648.2 842.35 1646 733.25 1651.15 631.6 1651.15 585.6 1651.15 539.55 1651.15 538.1 1651.15 536.6 1651.15 466.85 1651.15 397.1 1651.15 395.6 1651.15 394.15 1651.15 392.65 1651 391.15 1648.95 365.2 1654.15 346.65 1654.15 339.2 1654.15 331.8 1654.15 330.3 1654.15 328.85 1654.15 327.35 1654.3 327.35 1673.45 325.85 1692.75 325.85 1692.8 325.85 1692.85 325.85 1694.25 325.85 1695.7 325.85 1695.7 325.75 1695.7 325.7 1695.7 251.55 1695.7 177.45 1695.7 175.95 1695.7 174.5 1695.7 152.2 1695.7 129.95 1695.7 128.45 1695.7 127 1695.7 112.15 1695.7 97.3 Z"/>

<path fill="#77888A" stroke="none" d="
M 1698.65 97.3
Q 1698.65 95.8 1698.65 94.35 1697.2 94.35 1695.7 94.35 1695.7 95.8 1695.7 97.3 1695.7 112.15 1695.7 127 1697.2 127 1698.65 127 1698.65 112.15 1698.65 97.3 Z"/>

<path fill="#ABBBBA" stroke="none" d="
M 1698.65 70.6
Q 1698.65 69.1 1698.65 67.6 1693.45 75.8 1695.55 91.35 1695.7 92.85 1695.7 94.35 1697.2 94.35 1698.65 94.35 1698.65 82.45 1698.65 70.6 Z"/>

<path fill="#845837" stroke="none" d="
M 1704.6 80.35
Q 1704.6 79.9 1704.6 79.5 1699.4 112.9 1701.5 153.7 1701.65 155.2 1701.65 156.65 1701.7 156.65 1701.8 156.65 1703.2 156.65 1704.6 156.65 1704.6 143.3 1704.6 129.95 1704.6 128.45 1704.6 127 1704.6 104.75 1704.6 82.45 1704.6 81.4 1704.6 80.35 Z"/>

<path fill="#C49874" stroke="none" d="
M 1710.55 32
Q 1706.5 38.2 1704.75 46.7 1703.5 52.9 1703.45 60.35 1703.3 67.85 1704.45 76.55 1704.6 78 1704.6 79.5 1704.6 79.9 1704.6 80.35 1704.6 81.4 1704.6 82.45 1704.6 104.75 1704.6 127
L 1706.1 127
Q 1705.35 90.65 1710.55 61.7 1706.8 46.55 1710.1 34.8 1710.55 33.5 1710.55 32 Z"/>

<path fill="#A4A09A" stroke="none" d="
M 1752.1 26.05
Q 1750.6 26.05 1749.1 26.05
L 1749.1 27.55
Q 1790.7 29.05 1832.25 29.05 1795.85 23.85 1752.1 26.05 Z"/>

<path fill="#969E89" stroke="none" d="
M 1835.2 183.4
Q 1835.2 184.85 1835.2 186.35 1835.2 220.5 1835.2 254.6 1836.7 254.6 1838.15 254.6 1838.15 220.5 1838.15 186.35 1838.15 184.85 1838.15 183.4 1836.7 183.4 1835.2 183.4 Z"/>

<path fill="#D3D3BB" stroke="none" d="
M 1838.15 129.95
Q 1838.15 128.45 1838.15 127 1832.95 150 1835.05 180.4 1835.2 181.9 1835.2 183.4 1836.7 183.4 1838.15 183.4 1838.15 156.65 1838.15 129.95 Z"/>

<path fill="#874E2E" stroke="none" d="
M 1847.05 110.3
Q 1847.05 109.75 1847.05 109.2 1841.9 151.45 1844.1 201.2 1844.1 202.7 1844.1 204.15 1844.2 204.15 1844.25 204.15 1845.65 204.15 1847.05 204.15 1847.05 202.7 1847.05 201.2 1847.05 199.7 1847.05 198.2 1847.05 155.2 1847.05 112.15 1847.05 111.2 1847.05 110.3 Z"/>

<path fill="#465753" stroke="none" d="
M 1838.15 76.55
Q 1838.15 78 1838.15 79.5 1838.15 98.8 1838.15 118.1 1838.25 118.1 1838.3 118.1 1839.75 118.1 1841.15 118.1 1841.15 118.05 1841.15 117.95 1841.15 98.75 1841.15 79.5 1841.15 78 1841.15 76.55 1839.65 76.55 1838.15 76.55 Z"/>

<path fill="#945E30" stroke="none" d="
M 1850.05 40.9
Q 1850.05 39.4 1850.05 38
L 1850.05 37.95
Q 1844.85 44.6 1846.9 58.7 1847.05 60.2 1847.05 61.7 1847.15 61.7 1847.2 61.7 1848.65 61.7 1850.05 61.7 1850.05 51.3 1850.05 40.9 Z"/>

<path fill="#C79670" stroke="none" d="
M 1850.9 35.65
Q 1850.85 35.65 1850.8 35.7 1850.05 36.45 1850.05 37.95
L 1850.05 38
Q 1850.05 39.4 1850.05 40.9 1850.05 51.3 1850.05 61.7 1848.65 61.7 1847.2 61.7 1847.15 61.7 1847.05 61.7 1847.05 63.15 1847.05 64.65 1847.05 86.9 1847.05 109.2 1847.05 109.75 1847.05 110.3 1847.05 111.2 1847.05 112.15 1847.05 155.2 1847.05 198.2
L 1848.55 198.2
Q 1847.8 139.6 1853 88.4 1853 63.15 1853 37.95 1853 36.45 1853 34.95 1851.6 34.95 1850.9 35.65 Z"/>

<path fill="#708674" stroke="none" d="
M 1838.15 34.95
Q 1838.15 36.45 1838.15 37.95 1838.15 57.25 1838.15 76.55 1839.65 76.55 1841.15 76.55 1841.15 55.75 1839.65 35.1 1839.65 34.95 1838.15 34.95 Z"/>

<path fill="#E8E3DE" stroke="none" d="
M 1838.15 37.95
Q 1838.15 36.45 1838.15 34.95 1836.7 32 1834.45 29.8 1833.7 29.05 1832.25 29.05 1790.7 29.05 1749.1 27.55
L 1749.1 26.05
Q 1727.3 25.05 1711 30.35 1710.55 30.5 1710.55 32 1710.55 33.5 1710.1 34.8 1706.8 46.55 1710.55 61.7 1705.35 90.65 1706.1 127
L 1704.6 127
Q 1704.6 128.45 1704.6 129.95 1704.6 143.3 1704.6 156.65 1706.1 156.65 1706.8 157.4 1707.55 158.15 1707.55 159.65 1702.35 213.8 1703.1 275.4
L 1701.65 275.4
Q 1701.65 276.9 1701.65 278.35 1701.65 301.5 1701.65 324.7 1701.65 325.25 1701.65 325.85 1703.1 325.85 1704.6 325.85 1704.7 325.85 1704.75 325.85 1706.15 325.85 1707.55 325.85 1717.95 325.85 1728.35 325.85 1729.85 325.85 1730.15 326.45 1751.8 364.75 1743.2 432.7 1743.2 434.2 1743.2 435.7 1743.2 484.65 1743.2 533.65 1741.8 533.65 1740.35 533.65 1740.3 533.65 1740.2 533.65 1740.2 535.1 1740.2 536.6 1740.2 636 1740.2 735.3 1740.2 735.4 1740.2 735.45 1740.2 736.95 1740.2 738.45 1740.2 773.5 1740.2 808.6 1740.2 809.15 1740.2 809.7 1740.2 811.15 1740.2 812.65 1740.2 817.05 1740.2 821.4 1740.2 821.5 1740.2 821.55 1740.2 823.05 1740.2 824.5 1740.2 834.7 1740.2 844.9 1740.2 845.1 1740.2 845.3 1740.2 846.8 1740.2 848.25 1740.2 860.15 1740.2 872
L 1741.7 872
Q 1739.9 897.55 1769.9 889.8 1769.9 888.35 1769.75 886.85 1769 876 1775.85 860.15 1775.85 854.2 1775.85 848.25 1775.85 846.8 1775.85 845.3 1774.8 778.95 1775.1 723.6 1776 530.35 1796.6 367.4 1796.6 365.95 1797.35 364.9 1802.1 358.05 1811.45 355.55 1811.45 354.05 1811.15 352.55 1809.4 344.55 1814.4 343.65 1814.4 342.2 1814.25 340.7 1812.95 331.35 1816.95 327.4 1821.95 322.45 1835.2 325.85 1835.2 325.75 1835.2 325.65 1835.2 322.8 1835.2 319.9 1835.2 318.45 1835.2 316.95 1835.2 287.25 1835.2 257.6 1835.2 256.1 1835.2 254.6 1835.2 220.5 1835.2 186.35 1835.2 184.85 1835.2 183.4 1835.2 181.9 1835.05 180.4 1832.95 150 1838.15 127 1838.15 124 1838.15 121.05 1838.15 119.55 1838.15 118.1 1838.15 98.8 1838.15 79.5 1838.15 78 1838.15 76.55 1838.15 57.25 1838.15 37.95 Z"/>

<path fill="#8090A8" stroke="none" d="
M 1250.45 753.3
Q 1250.45 751.8 1250.45 750.3 1245.25 792.6 1247.5 842.35 1247.5 843.8 1247.5 845.3 1249 845.3 1250.45 845.3 1250.45 799.3 1250.45 753.3 Z"/>

<path fill="#424D5D" stroke="none" d="
M 1087.2 702.8
Q 1085.75 702.8 1084.25 702.8 1084.25 704.3 1084.25 705.8 1084.25 766.65 1084.25 827.5 1084.35 827.5 1084.4 827.5 1085.8 827.5 1087.2 827.5 1087.2 827.4 1087.2 827.35 1087.2 766.55 1087.2 705.8 1087.2 704.3 1087.2 702.8 Z"/>

<path fill="#897B75" stroke="none" d="
M 1011.5 607.85
L 1010.05 607.85
Q 1010.05 609.3 1010.05 610.8 1010.05 747.35 1010.05 883.9 1010.15 883.9 1010.2 883.9 1011.6 883.9 1013 883.9 1013 745.85 1011.5 607.85 Z"/>

<path fill="#717E8E" stroke="none" d="
M 1087.2 563.3
Q 1087.2 561.85 1087.2 560.35 1082 626.4 1084.25 699.85 1084.25 701.35 1084.25 702.8 1085.75 702.8 1087.2 702.8 1087.2 633.05 1087.2 563.3 Z"/>

<path fill="#2F3742" stroke="none" d="
M 846.8 607.85
Q 846.8 609.3 846.8 610.8 846.8 704.3 846.8 797.8 846.85 797.8 846.95 797.8 848.35 797.8 849.75 797.8 849.75 797.7 849.75 797.65 849.75 702.7 848.25 607.85
L 846.8 607.85 Z"/>

<path fill="#AEBFD6" stroke="none" d="
M 846.8 492.1
Q 846.8 490.6 846.8 489.1 845.3 489.1 845.3 489.25 841.6 531.4 846.8 566.3 846.8 529.2 846.8 492.1 Z"/>

<path fill="#AFBFD6" stroke="none" d="
M 846.8 411.95
Q 846.8 410.45 846.8 408.95 845.3 408.95 845.3 409.1 841.6 440.9 846.8 465.35 846.8 438.65 846.8 411.95 Z"/>

<path fill="#938F91" stroke="none" d="
M 935.85 331.8
Q 935.85 330.3 935.85 328.85 934.45 328.85 933 328.85 932.95 328.85 932.85 328.85 932.85 330.3 932.85 331.8 932.85 594.5 932.85 857.15 932.9 857.15 933 857.15 934.4 857.15 935.85 857.15 935.85 594.5 935.85 331.8 Z"/>

<path fill="#F8F7F9" stroke="none" d="
M 937.3 328.85
L 935.85 328.85
Q 935.85 330.3 935.85 331.8 935.85 594.5 935.85 857.15 937.3 857.15 938.8 857.15 938.8 593 937.3 328.85 Z"/>

<path fill="#ACBCD0" stroke="none" d="
M 846.8 349.6
Q 846.8 348.1 846.8 346.65 845.3 346.65 845.3 346.8 841.6 378.55 846.8 403.05 846.8 376.3 846.8 349.6 Z"/>

<path fill="#F8F6F6" stroke="none" d="
M 876.45 322.9
Q 876.45 324.35 876.45 325.85 876.55 325.85 876.6 325.85 878.05 325.85 879.45 325.85 895.75 325.85 912.1 325.85
L 877.2 315.6
Q 881.5 320.5 876.5 322.9
L 876.45 322.9 Z"/>

<path fill="#483F35" stroke="none" d="
M 867.55 263.5
Q 867.55 265 867.55 266.5 867.55 294.7 867.55 322.9 867.65 322.9 867.7 322.9 869.15 322.9 870.55 322.9 870.55 322.85 870.55 322.75 870.55 293.15 869.05 263.5
L 867.55 263.5 Z"/>

<path fill="#494C53" stroke="none" d="
M 777.05 328.85
L 775.55 328.85
Q 775.55 330.3 775.55 331.8 773.3 378.55 778.5 417.85 778.5 417.2 778.5 416.55 778.5 372.7 777.05 328.85 Z"/>

<path fill="#8894A3" stroke="none" d="
M 692.45 343.65
Q 692.45 342.2 692.45 340.7 687.25 593.75 689.45 854.2 689.45 855.7 689.45 857.15 690.95 857.15 692.45 857.15 692.45 600.4 692.45 343.65 Z"/>

<path fill="#918B93" stroke="none" d="
M 739.95 207.15
Q 739.95 205.65 739.95 204.15 738.55 204.15 737.1 204.15 737.05 204.15 736.95 204.15 736.95 205.65 736.95 207.15 734.75 268.7 739.95 322.9 739.95 322.05 739.95 321.2 739.95 264.15 739.95 207.15 Z"/>

<path fill="#D1D9E4" stroke="none" d="
M 731 55.75
Q 731 54.25 731 52.8 713.05 14.35 641.25 22.5 617.35 25.2 606.35 34.95 602.3 42.6 600.55 52.5 597.75 67.75 600.25 88.4 600.4 89.9 600.4 91.35
L 601.9 91.35
Q 603.4 189.3 603.4 287.25 603.4 288.75 603.4 290.25 603.4 309.25 603.4 328.25 603.4 328.55 603.4 328.85 607.7 328.85 608.3 330.3 627.9 386.1 621.2 465.35
L 622.7 465.35
Q 624.15 560.35 624.15 655.35 624.15 656.8 624.15 658.3 624.15 753.3 624.15 848.4 624.15 849.8 624.15 851.25 624.15 852.7 624.15 854.2 624.15 869.05 624.15 883.9 624.25 883.9 624.3 883.9 625.65 883.9 625.65 884.2 625.8 884.9 626.15 885.45 626.2 885.55 626.25 885.65 629.35 886.4 632.5 887 632.65 886.9 632.85 886.9 632.95 886.85 633.05 886.85 633.05 885.35 633.35 883.9 639.15 848.4 689.45 857.15 689.45 855.7 689.45 854.2 687.25 593.75 692.45 340.7 692.45 339.2 693.05 338.05 693.75 336.75 694.65 335.65
L 696.4 333.65 709.95 327.5
Q 718.6 326.35 731 328.85 731 328.75 731 328.7 731 192.2 731 55.75 Z"/>

<path fill="#6C6253" stroke="none" d="
M 732.5 52.8
L 731 52.8
Q 731 54.25 731 55.75 731 192.2 731 328.7 731 328.75 731 328.85 732.5 328.85 734 328.85 734 328.75 734 328.7 734 190.7 732.5 52.8 Z"/>

<path fill="#A7A0A2" stroke="none" d="
M 739.95 37.95
Q 739.95 36.45 739.95 34.95 739.35 43.75 738.9 52.65 735 124 736.95 201.2 736.95 202.7 736.95 204.15 737.05 204.15 737.1 204.15 738.55 204.15 739.95 204.15 739.95 121.05 739.95 37.95 Z"/>

<path fill="#5D5C5C" stroke="none" d="
M 746 27.55
Q 745.85 27.55 745.85 29.05 747.35 29.05 748.85 29.05 802.25 29.05 855.7 29.05 804.5 23.85 746 27.55 Z"/>

<path fill="#6A6465" stroke="none" d="
M 875 43.9
Q 874.95 46.05 874.9 48.2 871.35 190.65 876.45 325.85 876.45 324.35 876.45 322.9 876.45 322.2 876.45 321.5 876.45 184.15 876.45 46.85 876.45 45.35 876.45 43.9
L 875 43.9 Z"/>

<path fill="#D7DEE8" stroke="none" d="
M 857.15 29.35
Q 857.15 29.05 855.7 29.05 802.25 29.05 748.85 29.05 747.35 29.05 745.85 29.05 745.85 30.5 745.85 32 742.9 32 740.5 33.2 739.95 33.5 739.95 34.95 739.95 36.45 739.95 37.95 739.95 121.05 739.95 204.15 739.95 205.65 739.95 207.15 739.95 264.15 739.95 321.2 739.95 322.05 739.95 322.9 739.95 324.35 740.5 324.65 754.05 331.05 775.55 328.85
L 777.05 328.85
Q 778.5 372.7 778.5 416.55 778.5 417.2 778.5 417.85 778.5 419.35 778.5 420.85 778.5 640.5 778.5 860.15 778.6 860.15 778.65 860.15 780 860.15 780.15 860.45 786.25 886.4 796.3 863.1 797.8 863.1 799 862.5 800.8 861.6 802.25 860.15
L 802.25 858.65
Q 837.3 861.05 846.8 839.35 846.8 820.05 846.8 800.75 846.8 799.3 846.8 797.8 846.8 704.3 846.8 610.8 846.8 609.3 846.8 607.85 846.8 588.55 846.8 569.25 846.8 567.75 846.8 566.3 841.6 531.4 845.3 489.25 845.3 489.1 846.8 489.1 846.95 478.7 846.8 468.35 846.8 466.85 846.8 465.35 841.6 440.9 845.3 409.1 845.3 408.95 846.8 408.95 846.8 407.5 846.8 406 846.8 404.5 846.8 403.05 841.6 378.55 845.3 346.8 845.3 346.65 846.8 346.65 846.8 345.15 846.65 343.65 845.3 334.35 849.3 330.4 854.3 325.45 867.55 328.85 867.55 328.75 867.55 328.65 867.55 327.25 867.55 325.85 867.55 324.35 867.55 322.9 867.55 294.7 867.55 266.5 867.55 265 867.55 263.5 874.1 135.3 857.15 29.35 Z"/>

<path fill="#39424D" stroke="none" d="
M 1253.45 331.8
Q 1253.45 330.3 1253.45 328.85 1248.25 356.3 1250.3 391.15 1250.45 392.65 1250.45 394.15 1250.55 394.15 1250.6 394.15 1252.05 394.15 1253.45 394.15 1253.45 394.05 1253.45 394 1253.45 362.85 1253.45 331.8 Z"/>

<path fill="#958E8A" stroke="none" d="
M 1176.25 337.75
Q 1176.25 339.2 1176.25 340.7 1176.25 613.75 1176.25 886.85 1176.35 886.85 1176.4 886.85 1177.8 886.85 1179.2 886.85 1179.2 612.3 1177.75 337.75
L 1176.25 337.75 Z"/>

<path fill="#A7A19F" stroke="none" d="
M 1087.35 327.35
Q 1087.2 327.35 1087.2 328.85 1087.3 328.85 1087.35 328.85 1088.8 328.85 1090.2 328.85 1116.9 328.85 1143.6 328.85 1143.6 328.8 1143.6 328.7 1143.6 327.3 1143.6 325.85 1142.1 325.85 1140.65 325.85 1113.9 325.85 1087.35 327.35 Z"/>

<path fill="#EBE8E5" stroke="none" d="
M 1001.15 37.95
Q 1001.15 82.45 1001.15 127.15 998 74.45 989.25 29.05 938.8 29.05 888.35 29.05 886.85 29.05 885.35 29.05 877.35 31.4 876.6 40.9 876.45 42.4 876.45 43.9 876.45 45.35 876.45 46.85 876.45 184.15 876.45 321.5 876.45 322.2 876.45 322.9
L 876.5 322.9
Q 881.5 320.5 877.2 315.6
L 912.1 325.85
Q 895.75 325.85 879.45 325.85 878.05 325.85 876.6 325.85 876.55 325.85 876.45 325.85 876.45 327.35 876.6 327.35 904.65 328.85 932.85 328.85 932.95 328.85 933 328.85 934.45 328.85 935.85 328.85
L 937.3 328.85
Q 938.8 593 938.8 857.15 937.3 857.15 935.85 857.15 935.85 858.65 935.85 860.15 935.7 873.5 935.85 886.85 937.3 886.85 938.8 887 977.85 889.8 1004.1 880.9 1004.1 585.6 1005.6 290.25 1006.35 160.4 1001.15 37.95
M 956.6 394.15
Q 952.45 343.5 956.45 391.15 956.6 392.65 956.6 394.15
M 947.7 394.15
Q 943.4 357.6 947.55 391.15 947.7 392.65 947.7 394.15
M 989.1 557.4
Q 989.25 558.85 989.25 560.35 984.95 523.85 989.1 557.4
M 993.7 768.1
L 994.75 777.05
Q 995.05 781.5 995.2 785.95 989.7 796.9 971.45 811.15
L 969.65 801.05
Q 964.9 774.65 986.3 762.2 987.05 786.5 993.7 768.1
M 988.8 854.35
Q 989.25 855.7 989.25 857.15 976.65 823.65 988.8 854.35
M 959.6 800.75
Q 953.35 865.35 951.7 803.75 950.25 743.8 959.6 800.75
M 1001.15 277.75
Q 1001.15 537.8 1001.15 797.8 996.55 540.75 1001.15 277.75 Z"/>

<path fill="#FDFAF4" stroke="none" d="
M 1001.15 797.8
Q 1001.15 537.8 1001.15 277.75 996.55 540.75 1001.15 797.8
M 995.2 29.05
Q 993.7 29.05 992.25 29.05 990.75 29.05 989.25 29.05 998 74.45 1001.15 127.15 1001.15 82.45 1001.15 37.95 1003.2 29.95 998.15 29.2 996.7 29.05 995.2 29.05 Z"/>

<path fill="#F1F2F9" stroke="none" d="
M 951.7 803.75
Q 953.35 865.35 959.6 800.75 950.25 743.8 951.7 803.75 Z"/>

<path fill="#F0F3F9" stroke="none" d="
M 989.25 857.15
Q 989.25 855.7 988.8 854.35 976.65 823.65 989.25 857.15 Z"/>

<path fill="#F0F2F9" stroke="none" d="
M 994.75 777.05
L 993.7 768.1
Q 987.05 786.5 986.3 762.2 964.9 774.65 969.65 801.05
L 971.45 811.15
Q 989.7 796.9 995.2 785.95 995.05 781.5 994.75 777.05 Z"/>

<path fill="#F5F1F2" stroke="none" d="
M 989.25 560.35
Q 989.25 558.85 989.1 557.4 984.95 523.85 989.25 560.35 Z"/>

<path fill="#F2F2F4" stroke="none" d="
M 947.55 391.15
Q 943.4 357.6 947.7 394.15 947.7 392.65 947.55 391.15 Z"/>

<path fill="#F3F3F4" stroke="none" d="
M 956.45 391.15
Q 952.45 343.5 956.6 394.15 956.6 392.65 956.45 391.15 Z"/>

<path fill="#6D6D6C" stroke="none" d="
M 992.25 29.05
Q 993.7 29.05 995.2 29.05 944 23.85 885.5 27.55 885.35 27.55 885.35 29.05 886.85 29.05 888.35 29.05 938.8 29.05 989.25 29.05 990.75 29.05 992.25 29.05 Z"/>

<path fill="#7D726A" stroke="none" d="
M 1013 48.5
Q 1013 47.7 1013 46.85 1007.8 108.45 1010.05 177.45 1010.05 178.95 1010.05 180.4 1010.1 180.4 1010.2 180.4 1011.6 180.4 1013 180.4 1013 115.1 1013 49.8 1013 49.15 1013 48.5 Z"/>

<path fill="#7D7C7C" stroke="none" d="
M 1128.75 29.05
Q 1130.25 29.05 1131.75 29.05 1133.2 29.05 1134.7 29.05 1083.5 23.85 1025.05 27.55 1024.9 27.55 1024.9 29.05 1026.35 29.05 1027.85 29.05 1029.35 29.05 1030.8 29.05 1079.8 29.05 1128.75 29.05 Z"/>

<path fill="#F5F4F3" stroke="none" d="
M 1128.75 32
Q 1128.75 30.5 1128.75 29.05 1079.8 29.05 1030.8 29.05 1029.35 29.05 1027.85 29.05
L 1027.85 30.5
Q 1078.3 32 1128.75 32 Z"/>

<path fill="#59463F" stroke="none" d="
M 1284.75 118.1
L 1284.6 118.1
Q 1280.9 225.7 1286.1 325.85 1286.1 324.3 1286.1 322.8 1286.1 221.9 1286.1 121.05 1286.1 119.55 1286.1 118.1
L 1284.75 118.1 Z"/>

<path fill="#F5F5F3" stroke="none" d="
M 1139.15 85.45
L 1137.65 85.45
Q 1138.1 186.2 1128.75 285.8
L 1128.75 275.4
Q 1128.75 270.95 1128.75 266.5 1124.75 246.45 1124.3 299.15
L 1122.85 299.15
Q 1073.1 317.4 1048.6 309.55
L 1048.6 311
Q 1028.9 331.2 1027.85 339.05
L 1027.85 331.8
Q 1027.85 322.9 1027.85 314 1023.85 293.95 1022.95 346.65 1022.65 362.05 1027.85 370.4 1072.8 350.05 1085.3 329.4 1085.75 328.85 1087.2 328.85 1087.2 327.35 1087.35 327.35 1113.9 325.85 1140.65 325.85 1140.65 205.65 1139.15 85.45 Z"/>

<path fill="#737377" stroke="none" d="
M 1164.55 27.55
Q 1164.4 27.55 1164.4 29.05 1165.85 29.05 1167.35 29.05 1219.3 29.05 1271.25 29.05 1221.5 23.85 1164.55 27.55 Z"/>

<path fill="#988477" stroke="none" d="
M 1152.5 34.95
Q 1151.8 39.2 1151.25 43.6 1147.6 72.15 1149.4 106.2 1149.55 107.7 1149.55 109.2 1149.65 109.2 1149.7 109.2 1151.1 109.2 1152.5 109.2 1152.5 73.55 1152.5 37.95 1152.5 36.45 1152.5 34.95 Z"/>

<path fill="#0A090B" stroke="none" d="
M 1151.25 43.6
Q 1146.8 43.6 1142.25 43.45 1143.3 137.6 1143.6 231.8 1149.55 170.75 1149.55 109.2 1149.55 107.7 1149.4 106.2 1147.6 72.15 1151.25 43.6
M 1289.9 44.9
Q 1289.85 44.9 1289.8 44.9 1282.05 46.4 1274.2 46.85 1284.45 181.15 1280.3 328.7 1280.25 328.7 1280.15 328.7 1280.15 328.8 1280.15 328.85 1268.25 328.85 1256.4 328.85 1255 328.85 1253.6 328.85 1253.6 330.25 1253.6 331.65 1253.6 362.8 1253.6 394 1253.55 394 1253.45 394 1253.45 394.05 1253.45 394.15 1252.05 394.15 1250.6 394.15 1250.6 395.55 1250.6 396.95 1250.6 573.55 1250.6 750.15 1250.6 751.65 1250.6 753.15 1250.6 799.15 1250.6 845.15 1250.6 846.65 1250.6 848.1 1250.6 868.9 1250.6 889.65 1250.5 889.65 1250.45 889.7 1250.45 889.75 1250.45 889.8 1235.3 893.7 1223.6 890.25 1222.25 889.8 1220.8 889.8 1216.35 889.8 1211.85 889.8 1210.45 889.8 1209.05 889.8 1209.05 891.25 1209.05 892.65 1209 892.65 1208.9 892.7 1208.9 892.75 1208.9 892.8 1188.85 895 1176.85 888.65 1176.25 888.35 1176.25 886.85 1176.25 613.75 1176.25 340.7 1176.25 339.2 1176.25 337.75 1149.9 322.95 1143.75 284.95 1143.75 305.35 1143.75 325.7 1143.75 327.2 1143.75 328.7 1143.65 328.7 1143.6 328.7 1143.6 328.8 1143.6 328.85 1116.9 328.85 1090.2 328.85 1088.8 328.85 1087.35 328.85 1087.35 330.25 1087.35 331.65 1087.35 445.9 1087.35 560.2 1087.35 561.7 1087.35 563.15 1087.35 632.9 1087.35 702.65 1087.35 704.15 1087.35 705.65 1087.35 766.5 1087.35 827.35 1087.25 827.35 1087.2 827.35 1087.2 827.4 1087.2 827.5 1085.8 827.5 1084.4 827.5 1084.4 828.9 1084.4 830.3 1084.4 846.65 1084.4 862.95 1084.4 863.85 1084.4 864.75 1084.4 865.35 1084.4 865.9 1084.4 879.3 1084.4 892.65 1084.35 892.65 1084.25 892.65 1084.25 892.75 1084.25 892.8 1060.5 892.8 1036.75 892.8 1035.25 892.8 1033.8 892.8 1032.3 892.8 1030.8 892.8 1029.35 892.8 1027.85 892.8 1012.25 896.5 1010.35 886.85 1010.05 885.35 1010.05 883.9 1010.05 747.35 1010.05 610.8 1010.05 609.3 1010.05 607.85 1010.05 395.6 1010.05 183.4 1010.05 181.9 1010.05 180.4 1010.05 178.95 1010.05 177.45 1007.8 108.45 1013 46.85 1013 45.7 1013 44.6 1008.95 44.75 1004.85 44.9 1003.2 44.9 1001.6 44.9 1006.45 164.1 1005.75 290.1 1004.25 585.45 1004.25 880.75 1004.25 882.25 1004.25 883.75 1004.25 886.7 1004.25 889.65 1004.25 891.15 1004.25 892.65 1004.2 892.65 1004.1 892.65 1004.1 892.75 1004.1 892.8 969.95 892.8 935.85 891.3
L 935.85 889.8
Q 930.65 878.7 932.7 860.15 932.85 858.65 932.85 857.15 932.85 594.5 932.85 331.8 932.85 330.3 932.85 328.85 904.65 328.85 876.6 327.35 876.45 327.35 876.45 325.85 871.35 190.65 874.9 48.2 870.5 48.05 866.1 47.6 864.3 48.2 862.35 48.75 861.35 49.05 860.15 49.35 873.65 147.15 867.7 263.4
L 869.2 263.4
Q 870.7 293.05 870.7 322.75 870.65 322.75 870.55 322.75 870.55 322.85 870.55 322.9 869.15 322.9 867.7 322.9 867.7 324.3 867.7 325.7 867.7 327.2 867.7 328.7 867.6 328.7 867.55 328.65 867.55 328.75 867.55 328.85 854.3 325.45 849.3 330.4 845.5 334.35 846.8 343.5 846.95 345 846.95 346.5 846.95 347.95 846.95 349.45 846.95 376.15 846.95 402.9 846.95 404.35 846.95 405.85 846.95 407.35 846.95 408.8 846.95 410.3 846.95 411.8 846.95 438.5 846.95 465.2 846.95 466.7 846.95 468.2 847.1 478.55 846.95 488.95 846.95 490.45 846.95 491.95 846.95 529.05 846.95 566.15 846.95 567.6 846.95 569.1 846.95 588.4 846.95 607.7
L 848.4 607.7
Q 849.9 702.65 849.9 797.65 849.8 797.65 849.75 797.65 849.75 797.7 849.75 797.8 848.35 797.8 846.95 797.8 846.95 799.2 846.95 800.6 846.95 819.9 846.95 839.2 846.95 840.7 846.95 842.2 846.95 851.1 846.95 860 846.95 861.45 846.95 862.95 846.95 874.85 846.95 886.7 846.95 888.2 846.95 889.65 846.95 891.15 846.95 892.65 846.85 892.65 846.8 892.7 846.8 892.75 846.8 892.8 831.65 894.4 822.75 890.4 821.6 889.85 820.2 889.8 820.2 891.25 820.2 892.65 820.15 892.65 820.05 892.65 820.05 892.75 820.05 892.8 809.85 892.8 799.3 892.8 797.8 892.8 796.3 892.8 791.7 892.8 787.85 891.45 787.4 891.3 787.4 889.8 773 886.4 778.2 863.1 778.5 861.6 778.5 860.15 778.5 640.5 778.5 420.85 778.5 419.35 778.5 417.85 773.3 378.55 775.55 331.8 775.55 330.3 775.55 328.85 754.05 331.05 740.5 324.65 739.95 324.35 739.95 322.9 734.75 268.7 736.95 207.15 736.95 205.65 736.95 204.15 736.95 202.7 736.95 201.2 735 124 738.9 52.65 735.65 52.65 732.65 52.65 734.15 190.65 734.15 328.7 734.1 328.7 734 328.7 734 328.75 734 328.85 732.5 328.85 731 328.85 718.6 326.35 709.95 327.5
L 696.4 333.65 694.65 335.65
Q 693.85 336.7 693.2 337.9 692.6 339.05 692.6 340.55 692.6 342.05 692.6 343.5 692.6 600.25 692.6 857 692.6 858.5 692.6 860 692.6 874.85 692.6 889.65 692.55 889.65 692.45 889.65 692.45 889.75 692.45 889.8 659.65 891.75 632.5 887 629.35 886.4 626.25 885.65 625.35 885.5 624.45 885.35 624.15 885.35 624.15 883.9 624.15 869.05 624.15 854.2 624.15 852.7 624.15 851.25 618.95 758.45 621.2 658.3 621.2 656.8 621.2 655.35 621.2 561.85 621.2 468.35 621.2 466.85 621.2 465.35 627.9 386.1 608.3 330.3 607.7 328.85 603.4 328.85 598.2 313.25 600.25 290.25 600.4 288.75 600.4 287.25 600.4 190.8 600.4 94.35 600.4 92.85 600.4 91.35 600.4 89.9 600.25 88.4 597.75 67.75 600.55 52.5 595.5 52.5 590.2 52.5 595.4 66.15 594.65 85.3 596.1 85.3 596.1 85.45 597.6 109.05 597.6 132.75 597.6 134.25 597.6 135.75 597.6 193.6 597.6 251.5 597.6 253 597.6 254.45 597.6 291.55 597.6 328.7 597.5 328.7 597.45 328.7 597.45 328.8 597.45 328.85 595.95 328.85 594.5 328.85 593 328.85 591.5 328.85 590.1 328.85 588.7 328.85 588.7 330.25 588.7 331.65 588.65 331.65 588.55 331.65 588.55 331.7 588.55 331.8 564.8 331.8 541.05 331.8 539.65 331.8 538.25 331.8 538.25 333.2 538.25 334.6 538.25 337.6 538.25 340.55 533.05 359.1 535.1 385.05 535.25 386.55 535.25 388.05 536.75 388.05 536.75 388.2 538.25 405.85 538.25 423.65 538.25 425.15 538.25 426.65 538.25 635.9 538.25 845.15 538.25 846.65 538.25 848.1 538.25 867.4 538.25 886.7 538.2 886.7 538.1 886.75 538.1 886.8 538.1 886.85 507.65 892.05 469.95 888.35 469.8 888.35 469.8 886.85 464.65 740.65 466.85 587.05 466.85 585.6 466.85 584.1 466.85 514.35 466.85 444.6 466.85 443.1 466.85 441.6 466.85 395.6 466.85 349.6 466.85 348.1 466.85 346.65 461.65 304.35 463.9 254.6 463.9 253.15 463.9 251.65 463.9 196.75 463.9 141.85 463.9 140.35 463.9 138.85 463.9 137.4 463.75 135.9 460.2 88.35 466.6 50.85 460.55 50.7 454.4 50.55 455.15 66.45 455.15 82.3 455.15 83.8 455.15 85.3 455.15 135.75 455.15 186.2 456.6 186.2 456.6 186.35 458.1 208.45 458.1 230.75 458.1 232.2 458.1 233.7 458.1 278.2 458.1 322.75 458.1 324.2 458.1 325.7 458.1 454.85 458.1 583.95
L 459.6 583.95
Q 461.05 736.8 461.05 889.65 461 889.65 460.9 889.65 460.9 889.75 460.9 889.8 459.45 889.8 457.95 889.8 415.05 894.25 387.3 882.55 386.7 882.4 386.7 880.9 381.5 844.55 383.75 800.75 383.75 799.3 383.75 797.8 383.75 751.8 383.75 705.8 383.75 704.3 383.75 702.8 383.75 573.7 383.75 444.6 383.75 443.1 383.75 441.6 378.55 391.9 380.75 334.75 380.75 333.3 380.75 331.8 340.7 336.4 327.95 313.7 327.35 312.5 327.35 311 322.15 280.6 324.25 242.75 324.4 241.25 324.4 239.8 324.4 213.05 324.4 186.35 324.4 184.85 324.4 183.4 324.4 134.4 324.4 85.45 324.4 83.95 324.4 82.45 320.7 69.25 321.5 52.35 317.7 52.05 314 51.6 314.9 53.5 315.6 55.6
L 317.1 55.6
Q 318.6 88.25 318.6 120.9 318.6 122.4 318.6 123.85 318.6 171.35 318.6 218.85 320.05 218.85 320.05 219 321.55 244.1 321.55 269.3 321.55 270.8 321.55 272.3 321.55 300.5 321.55 328.7 321.45 328.7 321.4 328.7 321.4 328.8 321.4 328.85 319.95 328.85 318.45 328.85 313.55 329.9 309.3 331.7
L 297.05 340.05 283.65 395.4
Q 284.1 400.85 284.9 406.75 291.9 459.3 291.9 512.7
L 293.35 512.7
Q 294.85 687.85 294.85 862.95 294.75 862.95 294.7 862.95 294.7 863.05 294.7 863.1 293.3 863.1 291.9 863.1 291.9 864.5 291.9 865.9 291.9 867.4 291.9 868.9 291.9 870.4 291.9 871.85 292 882.25 291.9 892.65 291.85 892.65 291.75 892.65 291.75 892.75 291.75 892.8 263.25 894.25 230.45 889.8 227.3 890.85 224.35 888.95 222.55 888.65 220.8 888.35 220.5 888.35 220.5 886.85 220.35 873.5 220.5 860.15 220.5 858.65 220.5 857.15 215.3 773.3 217.5 682.05 217.5 680.55 217.5 679.1 217.5 652.35 217.5 625.65 217.5 624.15 217.5 622.7 217.5 527.7 217.5 432.7 217.5 431.25 217.5 429.75 212.35 393.4 214.55 349.6 214.55 348.1 214.55 346.65 195.25 330.3 190.05 301.65 187.7 288.75 187.85 275.4 182.65 228.65 184.85 174.5 184.85 173 184.85 171.5 184.85 135.9 184.85 100.25 184.85 98.8 184.85 97.3 179.7 71.35 183.4 38.1 183.4 38.05 183.55 38.05 183.55 38 183.55 37.95 183.55 37.8 185 37.8 186.15 37.8 186.6 37.45 186.6 37.4 186.65 37.35 186.75 37.1 186.9 36.9 175.2 37.35 163.5 37.8 168.4 39.15 173.15 40.75 174.65 40.75 174.65 40.9 176.1 52.65 176.1 64.5 176.1 66 176.1 67.45 176.1 100.1 176.1 132.75 177.6 132.75 177.6 132.9 179.1 144.65 179.1 156.5 179.1 158 179.1 159.5 178.95 181.75 179.1 204 179.1 205.5 179.1 207 179.1 245.55 179.1 284.15 180.55 284.15 180.55 284.3 181.9 306.4 182.05 328.7 181.95 328.7 181.9 328.7 181.9 328.8 181.9 328.85 180.5 328.85 179.1 328.85 179.1 330.25 179.1 331.65 179 331.65 178.95 331.65 178.95 331.7 178.95 331.8 152.2 331.8 125.5 331.8 124.1 331.8 122.7 331.8 122.7 333.2 122.7 334.6 122.7 337.6 122.7 340.55 122.7 342.05 122.7 343.5 122.7 373.2 122.7 402.9 122.7 404.35 122.7 405.85 122.7 465.2 122.7 524.6
L 124.15 524.6
Q 125.65 693.75 125.65 862.95 125.55 862.95 125.5 862.95 125.5 863.05 125.5 863.1 124.1 863.1 122.7 863.1 122.7 864.5 122.7 865.9 122.55 879.3 122.7 892.65 122.6 892.65 122.55 892.65 122.55 892.75 122.55 892.8 86.9 892.8 51.3 892.8 49.8 892.8 48.35 892.8 48.35 728.05 48.35 563.3 48.35 561.85 48.35 560.35 48.35 532.15 48.35 503.95 48.35 502.45 48.35 501 48.35 477.25 48.35 453.5 48.35 452 48.35 450.5 43.15 406.75 45.35 355.55 45.35 354.05 45.35 352.55 45.35 333.3 45.35 314 45.35 312.5 45.35 311 45.35 278.35 45.35 245.7 45.35 244.25 45.35 242.75 40.15 204.9 42.4 159.65 42.4 158.15 42.4 156.65 42.4 141.85 42.4 127 42.4 125.5 42.4 124 42.4 106.2 42.4 88.4 42.4 86.9 42.4 85.45 41.5 81.95 40.9 78.3 38.6 78 36.15 77.55 36.6 87.35 36.6 97.15 36.6 98.65 36.6 100.1 36.6 131.3 36.6 162.45 36.6 163.95 36.6 165.45 36.6 177.3 36.6 189.15 38.1 189.15 38.1 189.3 39.6 208.45 39.6 227.75 39.6 229.25 39.6 230.75 39.6 352.4 39.6 474.1
L 41.05 474.1
Q 42.55 683.4 42.55 892.65 42.5 892.65 42.4 892.65 42.4 892.75 42.4 892.8 21.6 892.8 0.85 892.8 -0.55 892.8 -2 892.8 -2 894.2 -2 895.6 -2 968.05 -2 1040.5
L 31.05 1040.5 -2 1040.5 -2 1696.5 28.05 1696.5 28.05 1717.5 31.05 1717.5 28.05 1717.5 28.05 1696.5 -2 1696.5 -2 2323.4 45.1 2323.4 45.1 2323.45 1950.9 2323.45 1956.9 2323.45 1956.9 1058.85
Q 1957 1058.85 1957.05 1058.85 1957.05 978.7 1957.05 898.55 1957.05 897.1 1957.05 895.6 1956.95 895.6 1956.9 895.65 1956.9 895.7 1956.9 895.75 1921.45 900.05 1901.1 888.65 1900.5 888.35 1900.5 886.85 1900.5 796.3 1900.5 705.8 1900.5 704.3 1900.5 702.8 1900.5 633.05 1900.5 563.3 1900.5 561.85 1900.5 560.35 1900.5 558.85 1900.35 557.4 1898.25 531.4 1903.45 512.85 1903.45 466.85 1903.45 420.85 1903.45 419.35 1903.45 417.85 1897.25 395.8 1897.4 395.75
L 1897.45 395.8
Q 1897.8009765625 396.603125 1902 411.35 1902.15 411.8 1903.45 411.8 1903.45 397 1903.45 382.25 1903.45 380.75 1903.45 379.3 1903.45 355.55 1903.45 331.8 1903.45 330.3 1903.45 328.85 1873.8 328.85 1844.1 327.35
L 1844.1 325.85
Q 1838.9 304.35 1842.6 275.55 1842.6 275.5 1842.75 275.5 1842.75 275.45 1842.75 275.4 1842.75 275.25 1844.1 275.25 1844.1 241.2 1844.1 207.15 1844.1 205.65 1844.1 204.15 1844.1 202.7 1844.1 201.2 1841.9 151.45 1847.05 109.2 1847.05 86.9 1847.05 64.65 1847.05 63.15 1847.05 61.7 1847.05 60.2 1846.9 58.7 1844.85 44.6 1850.05 37.95 1850.05 36.45 1850.8 35.7 1850.85 35.65 1850.9 35.65 1850.9 35.6 1850.95 35.55 1851.25 35.25 1851.65 34.95 1844.7 34.4 1837.7 33.65 1838 34.25 1838.3 34.8 1839.8 34.8 1839.8 34.95 1841.3 55.6 1841.3 76.4 1841.3 77.85 1841.3 79.35 1841.3 98.65 1841.3 117.95 1841.25 117.95 1841.15 117.95 1841.15 118.05 1841.15 118.1 1839.75 118.1 1838.3 118.1 1838.3 119.5 1838.3 120.9 1838.3 123.85 1838.3 126.85 1838.3 128.3 1838.3 129.8 1838.3 156.5 1838.3 183.25 1838.3 184.7 1838.3 186.2 1838.3 220.35 1838.3 254.45 1838.3 255.95 1838.3 257.45 1838.3 287.1 1838.3 316.8 1838.25 316.8 1838.15 316.8 1838.15 316.9 1838.15 316.95 1836.75 316.95 1835.35 316.95 1835.35 318.35 1835.35 319.75 1835.35 322.75 1835.35 325.7 1835.25 325.7 1835.2 325.65 1835.2 325.75 1835.2 325.85 1821.95 322.45 1816.95 327.4 1813.1 331.4 1814.4 340.55 1814.55 342.05 1814.55 343.5 1814.55 345 1814.55 346.5 1814.55 364.3 1814.55 382.1 1814.55 383.6 1814.55 385.05 1814.55 450.35 1814.55 515.65 1814.5 515.65 1814.4 515.65 1814.4 515.75 1814.4 515.8 1813 515.8 1811.6 515.8 1811.6 517.25 1811.6 518.65 1811.6 681.9 1811.6 845.15 1811.6 846.65 1811.6 848.1 1811.6 868.9 1811.6 889.65 1811.55 889.65 1811.45 889.7 1811.45 889.75 1811.45 889.8 1781.35 896.8 1743.35 894.25 1743.2 894.25 1743.2 892.8 1738.15 887.6 1740.05 875 1740.2 873.5 1740.2 872 1740.2 860.15 1740.2 848.25 1740.2 846.8 1740.2 845.3 1735 837 1738.6 821.85 1738.65 821.8 1738.75 821.75
L 1738.75 821.7
Q 1738.9 821.4 1740.2 821.4 1740.2 817.05 1740.2 812.65 1740.2 811.15 1740.2 809.7 1735 776.3 1738.75 735.6 1738.75 735.55 1738.9 735.55 1738.9 735.5 1738.9 735.45 1738.9 735.3 1740.2 735.3 1740.2 636 1740.2 536.6 1740.2 535.1 1740.2 533.65 1740.2 484.65 1740.2 435.7 1740.2 434.2 1740.2 432.7 1746.75 369.8 1730 329.4 1729.85 328.85 1728.35 328.85 1716.45 328.85 1704.75 327.35 1704.6 327.35 1704.6 325.85 1703.1 325.85 1701.65 325.85 1696.45 291 1700.15 248.85 1700.15 248.8 1700.3 248.8 1700.3 248.75 1700.3 248.7 1700.3 248.55 1701.65 248.55 1701.65 204.1 1701.65 159.65 1701.65 158.15 1701.65 156.65 1701.65 155.2 1701.5 153.7 1699.4 112.9 1704.6 79.5 1704.6 78 1704.45 76.55 1703.3 67.85 1703.45 60.35 1703.5 52.9 1704.75 46.7 1699.25 46.55 1693.75 45.95 1697.9 55.3 1698.8 67.45 1698.8 68.95 1698.8 70.45 1698.8 82.3 1698.8 94.2 1698.8 95.65 1698.8 97.15 1698.8 112 1698.8 126.85 1698.8 128.3 1698.8 129.8 1698.8 152.05 1698.8 174.35 1698.75 174.35 1698.65 174.35 1698.65 174.45 1698.65 174.5 1697.25 174.5 1695.85 174.5 1695.85 175.9 1695.85 177.3 1695.85 251.5 1695.85 325.7 1695.8 325.7 1695.7 325.7 1695.7 325.75 1695.7 325.85 1694.25 325.85 1692.85 325.85 1692.85 327.3 1692.85 328.7 1692.8 328.7 1692.75 328.7 1692.75 328.8 1692.75 328.85 1674.9 328.85 1657.1 328.85 1655.7 328.85 1654.3 328.85 1654.3 330.25 1654.3 331.65 1654.3 339.05 1654.3 346.5 1654.3 347.95 1654.3 349.45 1654.3 371.7 1654.3 394 1654.3 395.45 1654.3 396.95 1654.3 466.7 1654.3 536.45 1654.25 536.45 1654.15 536.45 1654.15 536.5 1654.15 536.6 1652.75 536.6 1651.3 536.6 1651.3 538 1651.3 539.4 1651.3 585.45 1651.3 631.45 1651.3 632.9 1651.3 634.4 1651.3 747.2 1651.3 860 1651.3 861.45 1651.3 862.95 1651.3 864.45 1651.3 865.9 1651.3 879.3 1651.3 892.65 1651.25 892.65 1651.15 892.65 1651.15 892.75 1651.15 892.8 1637.8 892.8 1624.45 892.8 1622.95 892.8 1621.5 892.8 1608.15 897.25 1589 894.25 1588.85 894.25 1588.85 892.8 1573.25 774.8 1579.95 634.55 1579.95 633.05 1579.95 631.6 1579.95 573.7 1579.95 515.8 1579.95 514.35 1579.95 512.85 1579.95 511.35 1579.95 509.9 1577.7 460.15 1582.9 417.85 1582.9 377.8 1582.9 337.75 1582.9 336.25 1582.9 334.75 1578 326.3 1562.1 327.35
L 1562.1 325.85
Q 1562.1 314 1562.1 302.1 1562.1 300.65 1562.1 299.15 1562.1 294.7 1562.1 290.25 1562.1 288.75 1562.1 287.25 1562.1 229.4 1562.1 171.5 1562.1 170.05 1562.1 168.55 1562.1 167.05 1562 165.55 1559.9 127.75 1565.1 97.3 1565.1 95.8 1564.95 94.35 1563.4 71.1 1565.8 51.8 1562.2 53.1 1558.55 53.95 1559.3 69.7 1559.3 85.3 1559.3 86.75 1559.3 88.25 1559.3 122.4 1559.3 156.5 1559.2 156.5 1559.15 156.5 1559.15 156.6 1559.15 156.65 1557.75 156.65 1556.35 156.65 1556.35 158.1 1556.35 159.5 1556.35 199.55 1556.35 239.65 1556.35 241.1 1556.35 242.6 1556.35 284.15 1556.35 325.7 1556.3 325.7 1556.2 325.7 1556.2 325.75 1556.2 325.85 1554.8 325.85 1553.35 325.85 1553.35 327.3 1553.35 328.7 1553.25 328.7 1553.2 328.7 1553.2 328.8 1553.2 328.85 1526.5 328.85 1499.8 328.85 1498.35 328.85 1496.9 328.85 1491.8 345.85 1493.85 370.25 1494 371.7 1494 373.2 1494 374.7 1494 376.15 1494 444.45 1494 512.7 1494 514.2 1494 515.65 1494 640.35 1494 765 1493.9 765 1493.85 765 1493.85 765.1 1493.85 765.15 1492.45 765.15 1491.05 765.15 1491.05 766.55 1491.05 767.95 1491.05 811 1491.05 854.05 1491.05 855.55 1491.05 857 1491.05 860 1491.05 862.95 1491.05 864.45 1491.05 865.9 1491.05 867.55 1491.05 869.2 1491.05 880.9 1491.05 892.65 1491 892.65 1490.9 892.65 1490.9 892.75 1490.9 892.8 1473.1 892.8 1455.25 892.8 1453.8 892.8 1452.3 892.8 1437.45 892.8 1422.75 891.3 1422.6 891.3 1422.6 889.8 1422.6 888.35 1422.6 886.85 1422.6 885.35 1422.6 883.9 1417.4 713.95 1421.15 536.6
L 1421.3 536.6
Q 1421.3 536.55 1421.3 536.45
L 1422.6 536.45
Q 1422.6 463.8 1422.6 391.15 1422.6 389.65 1422.6 388.2 1422.6 297.65 1422.6 207.15 1422.6 205.65 1422.6 204.15 1422.6 202.7 1422.45 201.2 1420.4 163.35 1425.6 132.9 1425.6 107.7 1425.6 82.45 1425.6 81 1425.6 79.5 1425.6 78 1425.45 76.55 1423.35 53.5 1428.55 37.95 1428.55 36.45 1429.3 35.7 1429.35 35.65 1429.45 35.6
L 1429.45 35.55 1431.8 33.6
Q 1433.05 32.65 1434.5 31.95 1434.5 30.45 1434.5 29.05 1434.5 28.8 1434.5 28.6 1423.45 27.85 1412.25 27.1 1410.9 27.25 1409.4 27.4
L 1410.9 28.9
Q 1412.4 28.9 1413.1 29.65 1413.85 30.35 1413.85 31.85 1415.35 31.85 1415.35 32 1416.85 49.65 1416.85 67.45 1416.85 68.95 1416.85 70.45 1416.85 103.1 1416.85 135.75 1416.85 137.25 1416.85 138.7 1416.85 183.25 1416.85 227.75 1416.8 227.75 1416.7 227.75 1416.7 227.85 1416.7 227.9 1415.3 227.9 1413.85 227.9 1413.85 262 1413.85 296.05 1413.85 591.35 1413.85 886.7 1413.85 888.2 1413.85 889.65 1413.85 891.15 1413.85 892.65 1413.8 892.65 1413.7 892.65 1413.7 892.75 1413.7 892.8 1378.1 892.8 1342.5 891.3
L 1342.5 889.8
Q 1337.3 614.5 1339.5 331.8 1339.5 330.3 1339.5 328.85 1312.8 328.85 1286.25 327.35 1286.1 327.35 1286.1 325.85 1280.9 225.7 1284.6 118.1
L 1284.75 118.1
Q 1284.75 118.05 1284.75 117.95
L 1286.1 117.95
Q 1286.1 116.55 1285.8 115.1 1283.4 103.9 1282.5 94.05
L 1288.5 47.45 1289.65 45.4
Q 1289.75 45.15 1289.9 44.9
M 1125.95 386.1
Q 1126.1 385.2 1126.85 384.5 1128.65 382.55 1134.85 382.1 1178.35 414.3 1165.25 507.35 1161.55 533.5 1161.55 560.2 1158.9 683.7 1149.25 788.45 1149.2 789.2 1148.8 789.5 1147.45 791.15 1140.65 785.95 1135.5 787.1 1131.15 789.45
L 1123.35 795.35 1113.3 812.15
Q 1112.05 815.75 1111.1 819.9
L 1111.1 819.45
Q 1111 819.75 1110.95 820.05
L 1110.95 818.6
Q 1098.8 580.1 1125.95 386.1
M 1291.55 389.4
Q 1291.8 387.65 1293.25 386.3 1296.05 383.35 1304.05 382.1 1341.45 407.05 1330.75 483.45 1327.8 505.3 1327.8 527.55 1324.8 670.45 1311 769.9
L 1310.9 769.95
Q 1310.85 770 1310.85 770.05
L 1292.05 774.05
Q 1288.6 779.4 1286.95 791.85 1285.55 802.85 1284.65 803.3 1283.05 805.65 1283.1 775.2 1280.35 798.35 1278.85 799.35 1277.8 800.75 1277.3 791.85 1277.2 790.4 1277.2 788.9 1266.2 568.05 1291.55 389.4
M 725.1 385.95
Q 723.8 387.3 723.6 388.95 699.7 575.35 710.4 779.85 712.25 814.45 714.6 812.7 712.15 815.7 710.25 780 699.55 575.5 723.45 389.1 723.65 387.35 725.1 385.95 727.6 383.4 734.15 382.1 772.15 415.35 766.2 501.45 756.25 642.85 757.9 797.65 758.95 809.25 754.1 814 746.55 821.65 724.35 812.35 719 810.1 718.4 800.75 717.75 787.15 717.25 786.65 717.8 784.9 718.55 800.6 719.15 809.95 724.5 812.2 746.45 821.45 754.1 814 758.75 809.2 757.75 797.8 756.1 643 766.05 501.6 772 415.5 734 382.25 727.65 383.5 725.1 385.95
M 875.7 388.8
Q 875.95 386.6 877.5 385.15 880.4 382.1 888.5 382.1 929.75 403.2 921.75 480.8 915.2 543.85 915.2 607.7 914.45 721.2 905.4 807.45
L 905.3 807.45
Q 905.25 807.5 905.25 807.6
L 900.2 806.7
Q 869.2 818.6 864.75 788.9 864.6 787.4 864.6 785.95 855.55 576.95 875.7 388.8
M 1698.95 386.4
Q 1699.2 384.95 1700.25 384 1703.25 380.85 1713.65 382.1
L 1726.1 403.9
Q 1722.7 410.6 1720.8 434.95 1717.95 471.75 1725.65 477.25 1726.75 476.05 1727.85 474.85
L 1728.05 474.65 1728.35 474.25
Q 1728.6 473.6 1728.9 473.45 1732.05 469.5 1732.5 530.5 1732.55 539.95 1731.55 548
L 1716.95 583.8 1708.1 590.3
Q 1705.15 591.9 1701.8 592.95 1700.15 626.35 1697.85 628.15 1695.65 630.85 1692.85 604.85 1692.75 603.4 1692.75 601.9 1691.55 602.55 1690.45 603.7
L 1689.8 604.55 1688.3 616.65
Q 1688.8 620.65 1689.75 628.45 1689.9 629.95 1689.9 631.45 1689.8 630.5 1689.7 629.65 1689.75 630.6 1689.75 631.6 1688.7 622.5 1688.15 617.75
L 1683 659.3
Q 1683.3 667.1 1683.8 675.95 1683.95 677.45 1683.95 678.95 1683.7 675.75 1683.45 672.6 1683.55 674.3 1683.65 676.1 1683.8 677.6 1683.8 679.1 1671.35 522.65 1698.95 386.4
M 1539.3 384.55
Q 1541.15 382.55 1547.45 382.1 1589.6 405.4 1574.45 497.85 1574.15 499.35 1574.15 500.85 1567 540.3 1568.95 619.55 1570.9 690.35 1561.4 724.35
L 1561.3 724.4
Q 1561.25 724.45 1561.25 724.5
L 1557.25 726.1
Q 1557.1 726.15 1557 726.25 1556.35 727.05 1556.35 729.4 1556.3 729.4 1556.2 729.4 1556.2 729.45 1556.2 729.55 1531.8 728.5 1523.7 704.75
L 1523.7 705.65
Q 1523.7 742.75 1523.7 779.85 1523.7 781.35 1523.7 782.8 1523.6 781.6 1523.55 780.4 1523.55 781.7 1523.55 782.95 1510.5 574 1538.4 386.1 1538.55 385.2 1539.3 384.55
M 1898.65 448.5
Q 1897.75 440.1 1900.5 462.25 1900.65 463.75 1900.65 465.2 1900.55 464.25 1900.45 463.35 1900.5 464.35 1900.5 465.35 1897.5 439.95 1898.65 448.5
M 1727.5 402.2
L 1727.2 402.5
Q 1727.0251953125 402.6810546875 1726.85 402.9
L 1726.85 402.85
Q 1726.8 402.95 1726.7 403.05 1728.55 392.75 1730.45 391.1 1733.95 387.2 1737.4 414.75 1737.25 414.4 1737.15 414.05 1737.2 414.45 1737.25 414.9 1731.45 398.9 1727.5 402.2
M 1719.15 594.2
Q 1719.6 594.35 1719.6 595.8 1719.5 595.75 1719.45 595.75 1719.45 595.85 1719.45 595.95 1708.7 590.7 1710.65 591.2 1709.4 590.2 1719.15 594.2
M 600.4 392.85
Q 606.1 387 606.35 367.4 606.4 369.15 606.4 370.9 606.4875 369.85 606.5 368.8 609.8998046875 592.1140625 609.5 848.1 609.5 849.6 609.5 851.1 609.45 849.3 609.35 847.5 609.35 847.9 609.35 848.25 609.35 849.75 609.35 851.25 600.4 636.05 601.9 408.95
L 600.55 408.95
Q 602.5 580.65 597.6 765 597.55 765.05 597.45 765.05 597.45 765.1 597.45 765.15 594.8 766.2 561.7 756.7 560.35 756.25 558.85 756.25 551 680.7 546.1 569.4 541.5 462.85 566.75 386.85 567.1 385.8 568 384.95 569.7 383.15 573.85 382.1 592.35 400.7 600.4 392.85
M 315.6 389.1
Q 316.55 385.9 318.15 384.4 321.45 381 327.5 385.05 353 386.25 356.9 408.8 357.2 410.3 357.2 411.8 357.2 437 357.2 462.25 357.2 463.75 357.2 465.2 357.1 464.35 357.05 463.55 357.05 464.45 357.05 465.35 353.35 424.1 352.1 423.95 351 426.35 352.3 468.2 356.9 620.9 351.85 776.15 351.8 775.05 351.8 774 351.75 775.15 351.7 776.3 350.8 739.8 325.1 722.55 324.4 722.1 324.4 720.65 330.9 684.1 312.35 679.35 311 679.1 309.55 679.1 317.7 608.9 307.9 533.05 297.05 449.95 315.6 389.1
M 176.1 405.85
Q 176 405.8 175.95 405.75 175.95 405.85 175.95 406 148 384.9 153.25 388.35 148.55 384.5 175.35 403.9 176.1 404.35 176.1 405.85
M 167.55 475.9
Q 168.75 473.75 170.05 471.3 174.65 452.85 176.85 450.9 178.55 449 178.95 456.3 179.1 457.8 179.1 459.3 182.2 610.5 185 762.05 185 763.5 185 765 184.9 764.15 184.85 763.35 184.85 764.25 184.85 765.15 178.4 694.25 176 641.45 176.05 640.9 176.1 640.35 178.45 692.85 184.85 763.35 184.85 762.75 184.85 762.2 182.05 610.65 178.95 459.45 178.95 457.95 178.8 456.45 178.45 449.5 176.85 450.9 174.65 453.3 170.2 471.15 168.85 473.7 167.55 475.9
M 146.45 470.1
Q 146.5 469.85 146.6 469.65
L 146.45 480 149.85 474.85
Q 149.85 474.9 149.85 474.95
L 150 474.7
Q 152.1 491.2 158.85 486.85 152 491.55 149.85 474.95
L 146.45 480.05 146.45 480 146.3 480.2 146.45 470.1
Q 129.15 517.55 149.4 572.05 175.8 575.2 174.8 616.6 174.05 648.9 174.8 649.5 173.8 652 174.65 616.75 175.65 575.35 149.25 572.2 128.9 517.45 146.45 469.8
L 146.45 470.1
M 360.15 607.7
Q 360.05 606.75 359.95 605.9 360 606.85 360 607.85 357.1 583.05 358.1 590.6 357.35 583.15 360 604.7 360.15 606.2 360.15 607.7
M 351.25 791
Q 351.25 791.3484375 351.25 791.7 351.390625 791.371875 351.4 790.9 351.39765625 792.8787109375 351.25 794.7
L 351.25 791.7
Q 351.22109375 793.275 351.1 794.85
L 351.1 791.85
Q 351.2421875 791.4234375 351.25 791
M 1387.15 25.9
Q 1387.6 25.9 1387.9 25.9 1380.75 25.6 1373.5 25.35 1357.15 25.9 1340.85 25.2 1340.25 25.6 1339.65 25.9 1363.4 25.9 1387.15 25.9 Z"/>

<path fill="#FAF9E8" stroke="none" d="
M 1137.65 32
L 1136.2 32
Q 1135.9 41.2 1140.65 61.7 1140.65 49.8 1140.65 37.95 1140.65 36.45 1140.65 34.95 1140.65 33.5 1139.9 32.75 1139.15 32 1137.65 32 Z"/>

<path fill="#D7DAE1" stroke="none" d="
M 1136.2 32
L 1137.65 32
Q 1137.65 30.5 1136.95 29.8 1136.2 29.05 1134.7 29.05 1133.2 29.05 1131.75 29.05 1130.25 29.05 1128.75 29.05 1128.75 30.5 1128.75 32 1078.3 32 1027.85 30.5
L 1027.85 29.05
Q 1026.35 29.05 1024.9 29.05 1013.15 30.65 1013 43.9 1013 44.25 1013 44.6 1013 45.7 1013 46.85 1013 47.7 1013 48.5 1013 49.15 1013 49.8 1013 115.1 1013 180.4 1011.6 180.4 1010.2 180.4 1010.1 180.4 1010.05 180.4 1010.05 181.9 1010.05 183.4 1010.05 395.6 1010.05 607.85
L 1011.5 607.85
Q 1013 745.85 1013 883.9 1013 885.35 1013.6 885.8 1020.3 889.75 1027.7 892.75 1027.75 892.75 1027.85 892.8 1029.35 892.8 1030.8 892.8 1032.3 892.8 1033.8 892.8
L 1033.8 891.3
Q 1083.5 896.8 1084.25 864.9 1084.25 864 1084.25 863.1 1084.25 846.8 1084.25 830.45 1084.25 828.95 1084.25 827.5 1084.25 766.65 1084.25 705.8 1084.25 704.3 1084.25 702.8 1084.25 701.35 1084.25 699.85 1082 626.4 1087.2 560.35 1087.2 446.05 1087.2 331.8 1087.2 330.3 1087.2 328.85 1085.75 328.85 1085.3 329.4 1072.8 350.05 1027.85 370.4 1022.65 362.05 1022.95 346.65 1023.85 293.95 1027.85 314 1027.85 322.9 1027.85 331.8
L 1027.85 339.05
Q 1028.9 331.2 1048.6 311
L 1048.6 309.55
Q 1073.1 317.4 1122.85 299.15
L 1124.3 299.15
Q 1124.75 246.45 1128.75 266.5 1128.75 270.95 1128.75 275.4
L 1128.75 285.8
Q 1138.1 186.2 1137.65 85.45
L 1139.15 85.45
Q 1140.65 205.65 1140.65 325.85 1142.1 325.85 1143.6 325.85 1143.6 304.95 1143.6 284 1140.5 263.4 1143.15 236.2 1143.3 234.75 1143.45 233.25 1143.15 134.1 1142.1 34.95
L 1140.65 34.95
Q 1140.65 36.45 1140.65 37.95 1140.65 49.8 1140.65 61.7 1135.9 41.2 1136.2 32
M 1134.1 53.25
Q 1134.7 54.25 1134.7 55.75 1126.4 40.6 1134.1 53.25
M 1128.6 159.65
Q 1128.75 158.15 1128.75 156.65 1133.95 187.1 1131.9 224.95 1131.75 226.4 1131.75 227.9 1126.55 197.5 1128.6 159.65
M 1015.8 515.8
Q 1015.95 514.35 1015.95 512.85 1021.15 543.3 1019.1 581.1 1018.95 582.6 1018.95 584.1 1013.75 553.65 1015.8 515.8
M 1015.95 741.4
Q 1015.95 739.9 1015.95 738.45 1018.35 760.4 1019.1 783.85 1020 766.8 1024.9 756.25 1029.9 795.6 1027.85 842.35 1027.85 843.8 1027.85 845.3 1021.3 847.35 1019.4 826.45 1019.25 834.3 1018.95 842.35 1018.95 843.8 1018.95 845.3 1013.75 797.05 1015.95 741.4 Z"/>

<path fill="#EFF2F9" stroke="none" d="
M 1024.9 756.25
Q 1020 766.8 1019.1 783.85 1019.1 784.9 1019.1 785.8 1018.05 811.75 1019.4 826.45 1021.3 847.35 1027.85 845.3 1027.85 843.8 1027.85 842.35 1029.9 795.6 1024.9 756.25 Z"/>

<path fill="#F5F4F6" stroke="none" d="
M 1015.95 738.45
Q 1015.95 739.9 1015.95 741.4 1013.75 797.05 1018.95 845.3 1018.95 843.8 1018.95 842.35 1019.25 834.3 1019.4 826.45 1018.05 811.75 1019.1 785.8 1019.1 784.9 1019.1 783.85 1018.35 760.4 1015.95 738.45 Z"/>

<path fill="#F6F0F0" stroke="none" d="
M 1015.95 512.85
Q 1015.95 514.35 1015.8 515.8 1013.75 553.65 1018.95 584.1 1018.95 582.6 1019.1 581.1 1021.15 543.3 1015.95 512.85 Z"/>

<path fill="#F6F3EF" stroke="none" d="
M 1128.75 156.65
Q 1128.75 158.15 1128.6 159.65 1126.55 197.5 1131.75 227.9 1131.75 226.4 1131.9 224.95 1133.95 187.1 1128.75 156.65 Z"/>

<path fill="#F8F6F8" stroke="none" d="
M 1134.7 55.75
Q 1134.7 54.25 1134.1 53.25 1126.4 40.6 1134.7 55.75 Z"/>

<path fill="#DEE4ED" stroke="none" d="
M 1272.7 29.2
Q 1272.7 29.05 1271.25 29.05 1219.3 29.05 1167.35 29.05 1165.85 29.05 1164.4 29.05 1154.15 26.2 1154 34.95
L 1152.5 34.95
Q 1152.5 36.45 1152.5 37.95 1152.5 73.55 1152.5 109.2 1151.1 109.2 1149.7 109.2 1149.65 109.2 1149.55 109.2 1149.55 170.75 1143.6 231.8 1143.5 232.5 1143.45 233.25 1143.3 234.75 1143.15 236.2 1140.5 263.4 1143.6 284 1143.65 284.5 1143.75 284.95 1149.9 322.95 1176.25 337.75
L 1177.75 337.75
Q 1179.2 612.3 1179.2 886.85 1179.2 888.35 1179.5 888.35 1188.15 889.8 1197.05 889.8 1197.05 888.35 1197.8 887.3 1211.15 865.9 1247.5 860.15 1247.5 854.2 1247.5 848.25 1247.5 846.8 1247.5 845.3 1247.5 843.8 1247.5 842.35 1245.25 792.6 1250.45 750.3 1250.45 573.7 1250.45 397.1 1250.45 395.6 1250.45 394.15 1250.45 392.65 1250.3 391.15 1248.25 356.3 1253.45 328.85 1253.5 328.85 1253.6 328.85 1255 328.85 1256.4 328.85 1268.25 328.85 1280.15 328.85 1280.15 328.8 1280.15 328.7 1284.6 171.45 1272.7 29.2 Z"/>

<path fill="#F1F0EE" stroke="none" d="
M 1289.65 45.4
L 1288.5 47.45 1282.5 94.05
Q 1283.4 103.9 1285.8 115.1 1286.1 116.55 1286.1 117.95 1286.1 118.05 1286.1 118.1 1286.1 119.55 1286.1 121.05 1286.1 221.9 1286.1 322.8 1286.1 324.3 1286.1 325.85 1286.1 327.35 1286.25 327.35 1312.8 328.85 1339.5 328.85 1339.55 330.75 1339.65 332.7 1344.65 469.6 1342.6 613.75 1340.4 768.7 1345.45 886.85 1346.95 886.85 1348.4 887 1382.85 889.8 1413.7 886.85 1413.7 591.5 1413.7 296.2 1413.7 262.05 1413.7 227.9 1413.7 183.4 1413.7 138.85 1413.7 137.4 1413.7 135.9 1413.7 103.25 1413.7 70.6 1413.7 69.1 1413.7 67.6 1413.7 51.3 1413.7 34.95 1413.7 33.5 1413.7 32 1413.7 30.5 1412.95 29.8 1412.25 29.05 1410.75 29.05 1406.3 29.05 1402.3 27.7 1401.85 27.55 1401.85 26.05 1395.9 26.05 1389.95 26.05 1388.5 26.05 1387 26.05 1387 27.55 1387 29.05 1351.4 29.05 1315.75 27.55
L 1315.75 26.05
Q 1298.15 31.15 1289.65 45.4 Z"/>

<path fill="#2E3952" stroke="none" d="
M 351.25 791.7
Q 351.25 791.3484375 351.25 791 351.2421875 791.4234375 351.1 791.85
L 351.1 794.85
Q 351.22109375 793.275 351.25 791.7
M 318.15 384.4
Q 316.55 385.9 315.6 389.1 297.05 449.95 307.9 533.05 317.7 608.9 309.55 679.1 311 679.1 312.35 679.35 330.9 684.1 324.4 720.65 324.4 722.1 325.1 722.55 350.8 739.8 351.7 776.3 351.75 775.15 351.8 774 356.7 619.9 352.15 468.35 350.75 423.8 352.1 423.95 353.35 424.1 357.05 465.35 357.05 464.45 357.05 463.55 357.05 463 357.05 462.4 357.05 437.15 357.05 411.95 357.05 410.45 356.75 408.95 352.85 386.4 327.35 385.2 321.45 381.2 318.15 384.4 Z"/>

<path fill="#45342D" stroke="none" d="
M 360 607.85
Q 360 606.85 359.95 605.9 359.9 605.35 359.85 604.85 359.65 603.15 359.45 601.6
L 358.1 590.6
Q 357.1 583.05 360 607.85 Z"/>

<path fill="#2A334A" stroke="none" d="
M 149.85 474.95
Q 149.85 474.9 149.85 474.85
L 146.45 480 146.45 480.05 149.85 474.95
M 146.45 470.1
L 146.45 469.8
Q 128.9 517.45 149.25 572.2 175.65 575.35 174.65 616.75 173.8 652 174.8 649.5 174.05 648.9 174.8 616.6 175.8 575.2 149.4 572.05 129.15 517.55 146.45 470.1
M 176.1 640.35
Q 176.05 640.9 176 641.45 178.4 694.25 184.85 765.15 184.85 764.25 184.85 763.35 178.45 692.85 176.1 640.35
M 170.05 471.3
Q 168.75 473.75 167.55 475.9 168.85 473.7 170.2 471.15 174.65 453.3 176.85 450.9 174.65 452.85 170.05 471.3 Z"/>

<path fill="#2B3248" stroke="none" d="
M 175.95 406
Q 175.95 405.85 175.95 405.75 175.9 404.45 175.25 404.05 156.75 390.65 153.25 388.35 148 384.9 175.95 406 Z"/>

<path fill="#363F58" stroke="none" d="
M 606.35 367.4
Q 606.1 387 600.4 392.85 592.4 401 573.7 382.25 569.75 383.25 568 384.95 567.1 385.8 566.75 386.85 541.5 462.85 546.1 569.4 551 680.7 558.85 756.25 560.35 756.25 561.7 756.7 594.8 766.2 597.45 765.15 597.45 765.1 597.45 765.05 602.35 580.65 600.4 408.95
L 600.55 408.95 601.9 408.95
Q 600.4 636.05 609.35 851.25 609.35 849.75 609.35 848.25 609.35 847.9 609.35 847.5 609.75 593 606.4 370.9 606.4 369.15 606.35 367.4
M 1293.25 386.3
Q 1291.8 387.65 1291.55 389.4 1266.2 568.05 1277.2 788.9 1277.2 790.4 1277.3 791.85 1277.8 800.75 1278.85 799.35 1280.4 797.3 1283.1 774.05 1283.1 774.65 1283.1 775.2 1283.05 805.65 1284.65 803.3 1285.5 802.1 1286.8 792 1288.45 779.4 1292 774.05
L 1292.05 774.05 1310.85 770.05
Q 1310.85 770 1310.9 769.95 1324.65 670.5 1327.65 527.7 1327.65 505.45 1330.6 483.6 1341.3 407.2 1303.9 382.25 1296.1 383.45 1293.25 386.3 Z"/>

<path fill="#2D3245" stroke="none" d="
M 1719.45 595.75
Q 1719.4 594.5 1719 594.35 1711.95 591.45 1710.65 591.2 1708.7 590.7 1719.45 595.95 1719.45 595.85 1719.45 595.75 Z"/>

<path fill="#30364A" stroke="none" d="
M 1727.2 402.5
L 1727.5 402.2
Q 1731.45 398.9 1737.25 414.9 1737.2 414.45 1737.15 414.05 1733.8 388 1730.45 391.1 1728.55 392.75 1726.7 403.05 1726.8 402.95 1726.85 402.85 1727.025 402.675 1727.2 402.5
M 1700.25 384
Q 1699.2 384.95 1698.95 386.4 1671.35 522.65 1683.8 679.1 1683.8 677.6 1683.65 676.1 1683.55 674.3 1683.45 672.6 1683.1 665.6 1683 659.3
L 1688.15 617.75
Q 1687.2 609.55 1687.85 614.3
L 1688.2 617.25 1688.3 616.65 1689.8 604.55 1690.45 603.7
Q 1691.55 602.55 1692.75 601.9 1692.75 603.4 1692.85 604.85 1695.65 630.85 1697.85 628.15 1700.05 625.4 1701.65 593 1701.7 593 1701.8 592.95 1705.15 591.9 1708.1 590.3
L 1716.95 583.8 1731.55 548
Q 1732.4 540 1732.35 530.65 1731.95 471.1 1728.9 473.45 1728.6 473.6 1728.35 474.25
L 1728.05 474.65 1727.85 474.85
Q 1726.75 476.05 1725.65 477.25
L 1725.5 477.4
Q 1717.8 471.9 1720.65 435.1 1722.55 410.75 1725.95 404.05
L 1713.5 382.25
Q 1703.35 381 1700.25 384 Z"/>

<path fill="#4C332C" stroke="none" d="
M 1900.35 462.4
Q 1900.2 461.4 1900.1 460.45
L 1898.65 448.5
Q 1897.5 439.95 1900.5 465.35 1900.5 464.35 1900.45 463.35 1900.4 462.85 1900.35 462.4 Z"/>

<path fill="#32394E" stroke="none" d="
M 1547.3 382.25
Q 1541.25 382.7 1539.3 384.55 1538.55 385.2 1538.4 386.1 1510.5 574 1523.55 782.95 1523.55 781.7 1523.55 780.4 1523.55 780.2 1523.55 780 1523.55 742.9 1523.55 705.8
L 1523.55 704.3
Q 1523.6 704.5 1523.7 704.75 1531.8 728.5 1556.2 729.55 1556.2 729.45 1556.2 729.4 1556.2 726.9 1557 726.25 1557.1 726.15 1557.25 726.1
L 1561.25 724.5
Q 1561.25 724.45 1561.3 724.4 1570.75 690.4 1568.8 619.7 1566.85 540.45 1574 501 1574 499.5 1574.3 498 1589.45 405.55 1547.3 382.25 Z"/>

<path fill="#2A3247" stroke="none" d="
M 1687.85 614.3
Q 1687.2 609.55 1688.15 617.75 1688.7 622.5 1689.75 631.6 1689.75 630.6 1689.7 629.65 1689.65 629.1 1689.6 628.6 1689.4 626.85 1689.2 625.3
L 1688.2 617.25 1687.85 614.3 Z"/>

<path fill="#36415B" stroke="none" d="
M 877.5 385.15
Q 875.95 386.6 875.7 388.8 855.55 576.95 864.6 785.95 864.6 787.4 864.75 788.9 869.2 818.6 900.2 806.7
L 905.25 807.6
Q 905.25 807.5 905.3 807.45 914.3 721.25 915.05 607.85 915.05 544 921.6 480.95 929.6 403.35 888.35 382.25 880.45 382.25 877.5 385.15 Z"/>

<path fill="#35405A" stroke="none" d="
M 724.5 812.2
Q 719.15 809.95 718.55 800.6 717.8 784.9 717.25 786.65 717.75 787.15 718.4 800.75 719 810.1 724.35 812.35 746.55 821.65 754.1 814 746.45 821.45 724.5 812.2
M 723.6 388.95
Q 723.8 387.3 725.1 385.95 723.65 387.35 723.45 389.1 699.55 575.5 710.25 780 712.15 815.7 714.6 812.7 712.25 814.45 710.4 779.85 699.7 575.35 723.6 388.95 Z"/>

<path fill="#364059" stroke="none" d="
M 1126.85 384.5
Q 1126.1 385.2 1125.95 386.1 1098.8 580.1 1110.95 818.6
L 1110.95 820.05
Q 1111 819.75 1111.1 819.45 1112.05 815.55 1113.3 812.15
L 1123.35 795.35 1131.15 789.45
Q 1135.5 787.1 1140.65 785.95 1147.45 791.15 1148.8 789.5 1149.05 789.2 1149.1 788.6 1158.75 683.8 1161.4 560.35 1161.4 533.65 1165.15 507.5 1178.2 414.45 1134.7 382.25 1128.75 382.7 1126.85 384.5 Z"/>

<path fill="#E7D5BE" stroke="none" d="
M 1956.9 690.95
Q 1956.9 689.45 1956.9 688 1912.1 717.8 1910.15 667.2 1904.5 526.8 1906.45 379.3 1905.05 379.3 1903.6 379.3 1903.55 379.3 1903.45 379.3 1903.45 380.75 1903.45 382.25 1903.45 397 1903.45 411.8 1903.45 411.85 1903.45 411.95 1903.45 413.4 1903.45 414.9 1903.45 416.05 1903.45 417.2 1903.45 417.5 1903.45 417.85 1903.45 419.35 1903.45 420.85 1903.45 466.85 1903.45 512.85 1903.45 513.05 1903.45 513.25 1903.45 514.55 1903.45 515.8 1903.45 538.1 1903.45 560.35 1903.45 561.85 1903.45 563.3 1903.45 615.25 1903.45 667.2 1904.95 667.2 1904.95 667.35 1906.45 685 1906.45 702.8 1904.95 702.8 1903.45 702.8 1902.05 702.8 1900.65 702.8 1900.6 702.8 1900.5 702.8 1900.5 704.3 1900.5 705.8 1900.5 796.3 1900.5 886.85 1900.6 886.85 1900.65 886.85 1902.05 886.9 1903.15 887.45 1922.9 897.1 1956.9 892.8 1956.9 791.85 1956.9 690.95
M 1924.25 726.55
Q 1915.2 690.05 1923.95 723.75 1924.25 725.1 1924.25 726.55 Z"/>

<path fill="#EDE4D5" stroke="none" d="
M 1923.95 723.75
Q 1915.2 690.05 1924.25 726.55 1924.25 725.1 1923.95 723.75 Z"/>

<path fill="#EFE6DC" stroke="none" d="
M 1956.9 97.3
Q 1956.9 63.15 1956.9 29.05 1909.4 29.05 1861.9 29.05 1860.45 29.05 1858.95 29.05 1856 30.5 1853.75 32.75 1853 33.5 1853 34.95 1853 36.45 1853 37.95 1853 63.15 1853 88.4 1847.8 139.6 1848.55 198.2
L 1847.05 198.2
Q 1847.05 199.7 1847.05 201.2 1847.05 202.7 1847.05 204.15 1848.55 204.15 1848.7 204.45 1850.05 210.1 1850.05 216.05 1844.85 265.75 1847.05 322.9 1847.05 324.35 1847.05 325.85 1848.55 325.85 1850.05 325.7 1880 323.7 1902.8 328.7 1903.1 328.75 1903.45 328.85 1903.55 328.85 1903.6 328.85 1904.95 328.85 1904.95 328.95 1906.45 354.05 1906.45 379.3 1904.5 526.8 1910.15 667.2 1912.1 717.8 1956.9 688 1956.9 392.65 1956.9 97.3 Z"/>

<path fill="#78736A" stroke="none" d="
M 1956.9 29.05
Q 1956.9 27.55 1956.9 26.05 1907.9 26.05 1858.95 27.55
L 1858.95 29.05
Q 1860.45 29.05 1861.9 29.05 1909.4 29.05 1956.9 29.05 Z"/>
</g>
</g>

<g>
<path stroke="#000000" stroke-opacity="0" stroke-width="1" stroke-linejoin="round" stroke-linecap="round" fill="none" d="
M 1950.9 2323.45
L 45.1 2323.45
M -2 2323.4
L -2 1696.5 -2 1040.5
M -2 1696.5
L 28.05 1696.5 28.05 1717.5 31.05 1717.5
M -2 1040.5
L 31.05 1040.5"/>
</g>
</g>
</g>
</g>
</svg>
